<?xml version="1.0" encoding="UTF-8" standalone="no"?>
<!-- Created with Inkscape (http://www.inkscape.org/) -->

<svg
   xmlns:dc="http://purl.org/dc/elements/1.1/"
   xmlns:cc="http://creativecommons.org/ns#"
   xmlns:rdf="http://www.w3.org/1999/02/22-rdf-syntax-ns#"
   xmlns:svg="http://www.w3.org/2000/svg"
   xmlns="http://www.w3.org/2000/svg"
   xmlns:sodipodi="http://sodipodi.sourceforge.net/DTD/sodipodi-0.dtd"
   xmlns:inkscape="http://www.inkscape.org/namespaces/inkscape"
   version="1.1"
   id="svg2"
   xml:space="preserve"
   width="4266.6665"
   height="2666.6667"
   viewBox="0 0 4266.6665 2666.6667"
   sodipodi:docname="5964.svg"
   inkscape:version="0.92.5 (2060ec1f9f, 2020-04-08)"><metadata
     id="metadata8"><rdf:RDF><cc:Work
         rdf:about=""><dc:format>image/svg+xml</dc:format><dc:type
           rdf:resource="http://purl.org/dc/dcmitype/StillImage" /><dc:title></dc:title></cc:Work></rdf:RDF></metadata><defs
     id="defs6" /><sodipodi:namedview
     pagecolor="#ffffff"
     bordercolor="#666666"
     borderopacity="1"
     objecttolerance="10"
     gridtolerance="10"
     guidetolerance="10"
     inkscape:pageopacity="0"
     inkscape:pageshadow="2"
     inkscape:window-width="1366"
     inkscape:window-height="664"
     id="namedview4"
     showgrid="false"
     inkscape:zoom="0.085312503"
     inkscape:cx="1127.72"
     inkscape:cy="2211.452"
     inkscape:window-x="0"
     inkscape:window-y="27"
     inkscape:window-maximized="1"
     inkscape:current-layer="g10" /><g
     id="g10"
     inkscape:groupmode="layer"
     inkscape:label="ink_ext_XXXXXX"
     transform="matrix(1.3333333,0,0,-1.3333333,0,2666.6667)"><g
       transform="scale(0.196319)"
       id="g18"><path
         inkscape:connector-curvature="0"
         id="path20"
         style="fill:#ebf3fa;fill-opacity:1;fill-rule:nonzero;stroke:none"
         d="m 1403.91,1150.58 c 0,0 -1301.725,1979.84 122.9,4123.28 1264.02,1901.82 3258.38,389.56 4388.46,2324.73 C 7456.33,10237.6 15147.2,9207.01 14173.2,5146.78 13701.8,3181.91 16312.4,3110.5 15341.3,1146.4 l -13937.39,4.18" /></g><g
       transform="scale(0.151408)"
       id="g22"><path
         inkscape:connector-curvature="0"
         id="path24"
         style="fill:#82b378;fill-opacity:1;fill-rule:nonzero;stroke:none"
         d="m 14418.3,6621.62 c 0,0 -304.8,404.17 19,628.59 0,0 233.9,122.38 416.9,99.82 0,0 -287.6,-420.41 -206.1,-469.11 81.6,-48.69 286.8,491.58 286.8,491.58 0,0 516,17.71 676,-71.91 0,0 -460.8,-331.45 -369.8,-358.57 91,-27.13 586.6,295.48 586.6,295.48 0,0 472.3,-111.04 428.6,-400.66 -43.5,-289.63 -213.7,-369.28 -285.5,-357 -71.8,12.22 -484.6,200.08 -497.5,141.42 -13,-58.66 229.5,-268.16 407.2,-288.3 0,0 -359.7,-350.19 -576.7,-229.12 -217,121.13 -225.5,292.12 -360.9,364.51 -135.5,72.39 -254.5,79.65 -201,11.1 53.5,-68.56 301.9,-147.42 372.8,-293.45 71,-146.03 136.5,-245.63 -92.7,-196.35 -229.3,49.26 -594.8,242.12 -599.2,437.03 -4.5,194.94 -4.5,194.94 -4.5,194.94" /></g><g
       transform="scale(0.148819)"
       id="g26"><path
         inkscape:connector-curvature="0"
         id="path28"
         style="fill:#82b378;fill-opacity:1;fill-rule:nonzero;stroke:none"
         d="m 16300,6962.69 c 0,0 -1316,133.19 -1630.8,-225.88 0,0 -76.5,-188.92 -285.7,-352.27 l -36.1,-82.25 c 0,0 243.5,226.72 326.3,236.19 0,0 -98.7,475.37 1626.3,424.21" /></g><g
       transform="scale(0.132894)"
       id="g30"><path
         inkscape:connector-curvature="0"
         id="path32"
         style="fill:#82b378;fill-opacity:1;fill-rule:nonzero;stroke:none"
         d="m 16107.1,7149.62 c 0,0 -331.7,-214.69 -379.9,-632.31 l 57.3,-8.73 c 0,0 128.3,426.95 321.9,584.9 193.6,158.02 0.7,56.14 0.7,56.14" /></g><g
       transform="scale(0.143813)"
       id="g34"><path
         inkscape:connector-curvature="0"
         id="path36"
         style="fill:#a8d29f;fill-opacity:1;fill-rule:nonzero;stroke:none"
         d="m 13605,7988.6 c 0,0 -711.6,398.55 -379.5,939.44 0,0 265.6,332.12 550.3,417.53 0,0 -151.8,-806.59 0,-825.57 151.9,-18.98 104.4,910.97 104.4,910.97 0,0 749.6,360.59 1043.8,332.13 0,0 -464.9,-787.62 -313.1,-768.64 151.8,18.98 673.8,816.08 673.8,816.08 0,0 768.6,142.34 891.9,-313.14 123.4,-455.49 -75.9,-683.24 -189.8,-711.7 -113.8,-28.47 -844.5,-18.98 -825.6,-113.88 19.1,-94.88 512.5,-246.71 787.6,-161.31 0,0 -303.6,-749.65 -702.1,-711.7 -398.6,37.96 -521.9,284.68 -768.7,303.66 -246.7,18.98 -427,-47.45 -303.6,-113.87 123.3,-66.42 540.9,-21.77 740.1,-191.18 199.3,-169.42 360.6,-273.8 -9.4,-349.71 -370.1,-75.92 -1034.4,-28.47 -1167.2,256.21 C 13605,7988.6 13605,7988.6 13605,7988.6" /></g><g
       transform="scale(0.139626)"
       id="g38"><path
         inkscape:connector-curvature="0"
         id="path40"
         style="fill:#82b378;fill-opacity:1;fill-rule:nonzero;stroke:none"
         d="m 16300,9635.55 c 0,0 -2052.5,-664.62 -2287,-1407.43 0,0 9.7,-332.31 -195.6,-713.48 v -146.61 c 0,0 215.1,498.46 332.4,566.88 0,0 -459.4,645.07 2150.2,1700.64" /></g><g
       transform="scale(0.120053)"
       id="g42"><path
         inkscape:connector-curvature="0"
         id="path44"
         style="fill:#82b378;fill-opacity:1;fill-rule:nonzero;stroke:none"
         d="m 16070.3,8739.84 c 0,0 -368.1,-559.02 -158.3,-1239.55 l 94.7,25.49 c 0,0 -91.9,749.5 100.7,1126.47 192.6,376.96 -37.1,87.59 -37.1,87.59" /></g><path
       inkscape:connector-curvature="0"
       id="path46"
       style="fill:#a8d29f;fill-opacity:1;fill-rule:nonzero;stroke:none;stroke-width:0.1"
       d="m 1416.84,1119.49 c 0,0 119.11,50.41 76.19,141.44 0,0 -36.08,56.97 -79.46,75.39 0,0 9.87,-129.76 -14.39,-130.11 -24.26,-0.34 -0.57,145.39 -0.57,145.39 0,0 -111.86,69.9 -158.72,70.54 0,0 59.55,-132.23 35.96,-126.6 -23.6,5.64 -91.96,140.36 -91.96,140.36 0,0 -118.65,35.83 -146.03,-33.81 -27.38,-69.63 0.05,-109 17.5,-115.47 17.45,-6.47 132.77,-17.71 128.13,-32.33 -4.65,-14.62 -85.06,-29.95 -126.94,-11.7 0,0 34.79,-123.43 98.26,-124.4 63.47,-0.96 87.21,35.77 126.43,34.46 39.21,-1.31 66.47,-14.92 45.87,-23.24 -20.6,-8.32 -85.62,6 -119.98,-17.23 -34.36,-23.22 -61.6,-36.86 -4.6,-55.28 57,-18.41 162.51,-22.51 188.41,20.04 25.9,42.55 25.9,42.55 25.9,42.55" /><path
       inkscape:connector-curvature="0"
       id="path48"
       style="fill:#82b378;fill-opacity:1;fill-rule:nonzero;stroke:none;stroke-width:0.1"
       d="m 1090.71,1373.54 c 0,0 302.81,-136.42 326.13,-254.05 0,0 -7.12,-50.68 17.84,-112.48 l -2.49,-22.43 c 0,0 -24.46,79.91 -41.25,92.36 0,0 81.2,90.93 -300.23,296.6" /><path
       inkscape:connector-curvature="0"
       id="path50"
       style="fill:#82b378;fill-opacity:1;fill-rule:nonzero;stroke:none;stroke-width:0.1"
       d="m 1434.68,1007.01 c 0,0 40.29,-78.9 2.78,-165.38 l -12.09,4.73 c 0,0 23,97.27 3.15,149.67 -19.86,52.39 6.16,10.98 6.16,10.98" /><path
       inkscape:connector-curvature="0"
       id="path52"
       style="fill:#82b378;fill-opacity:1;fill-rule:nonzero;stroke:none;stroke-width:0.1"
       d="m 1172.53,826.96 c -21.05,30.36 -23.39,58.64 -23.39,58.64 0,0 58.24,41.82 23.9,85.79 0,0 -26.47,26.4 -52.18,31.05 0,0 21.2,-68.95 8.13,-72.11 -13.08,-3.15 -18.09,78.55 -18.09,78.55 0,0 -69.03,24.12 -94.44,18.73 0,0 48.36,-64.22 34.92,-64.05 -13.45,0.16 -66.885,64.65 -66.885,64.65 0,0 -68.539,4.87 -74.832,-36.13 -6.292,-41 13.356,-58.93 23.582,-60.3 10.227,-1.37 73.955,6.65 73.235,-1.82 -0.73,-8.48 -42.333,-26.59 -67.21,-21.84 0,0 33.901,-62.5 68.34,-55.26 34.44,7.24 42.79,30.01 64.15,34.09 21.36,4.09 37.77,0.06 27.64,-6.96 -10.12,-7.01 -47.03,-7.22 -62.77,-23.98 -15.73,-16.76 -28.8,-27.46 4.28,-30.45 33.07,-2.99 90.62,7.69 99.42,33.86 0.39,1.15 0.75,2.23 1.1,3.28 -0.47,-2.14 -1.1,-3.28 -1.1,-3.28 6.36,-2.8 17.17,-18.38 24.81,-30.41 1.13,-2.07 2.87,-4.91 5.4,-8.74 h 0.01 c 1.05,-1.75 1.89,-3.18 2.47,-4.18 14.61,-27.22 14.12,-77.14 14.12,-77.14 l 7.12,-1.07 c 9.71,51.34 -21.73,89.08 -21.73,89.08" /><path
       inkscape:connector-curvature="0"
       id="path54"
       style="fill:#2c3a64;fill-opacity:1;fill-rule:nonzero;stroke:none;stroke-width:0.1"
       d="m 783.265,1525.94 c -0.575,3.14 -7.967,36.86 -60.13,31.11 0,0 25.965,0.66 32.004,-9.92 0,0 -19.391,11.34 -32.897,4.83 -13.506,-6.51 -18.22,-32.52 -17.119,-40.68 1.101,-8.17 12.779,-33.32 22.086,-34.25 3.525,-0.36 7.411,0.44 10.881,1.56 -1.848,-4.07 -3.593,-8.53 -5.165,-13.45 -14.541,-45.52 12.849,-83.97 29.717,-76.84 10.817,4.58 16.784,-14.15 16.784,-14.15 l 96.413,104.3 c 0,0 -52.179,77.21 -92.574,47.49" /><path
       inkscape:connector-curvature="0"
       id="path56"
       style="fill:#2b478b;fill-opacity:1;fill-rule:nonzero;stroke:none;stroke-width:0.1"
       d="m 908.867,269.72 -23.449,-8.73 c 0,0 -101.85,141.25 -114.389,265.54 -2.24,22.19 -1.493,43.68 3.35,63.54 0,0 -0.995,5.68 -2.737,15.73 -0.805,4.69 -1.8,10.34 -2.929,16.81 -3.312,18.97 -7.869,44.93 -13.076,74.49 -11.984,68.02 -27.51,154.97 -39.571,218.9 l 6.318,2.03 68.364,22.05 14.128,44.87 50.904,13.4 c 0,0 11.372,-22.24 21.537,-127.32 1.876,-13.79 3.58,-28.99 4.863,-45.47 3.963,-50.31 4.25,-112.72 -4.844,-184.07 -2.335,-18.27 -5.283,-37.12 -8.94,-56.5 -2.68,-14.2 -3.082,-33.56 -1.953,-55.78 5.131,-101.6 42.424,-259.49 42.424,-259.49" /><path
       inkscape:connector-curvature="0"
       id="path58"
       style="fill:#233862;fill-opacity:1;fill-rule:nonzero;stroke:none;stroke-width:0.1"
       d="M 882.18,825.56 771.642,605.8 c -0.805,4.69 -1.8,10.34 -2.929,16.81 -3.312,18.97 -7.869,44.93 -13.076,74.49 -11.984,68.02 -27.51,154.97 -39.571,218.9 l 6.318,2.03 68.364,22.05 14.128,44.87 50.904,13.4 c 0,0 11.372,-22.24 21.537,-127.32 1.876,-13.79 3.58,-28.99 4.863,-45.47" /><path
       inkscape:connector-curvature="0"
       id="path60"
       style="fill:#2b478b;fill-opacity:1;fill-rule:nonzero;stroke:none;stroke-width:0.1"
       d="m 833.552,970.15 -2.559,21.95 c -42.871,-11.39 -157.416,31.82 -157.416,31.82 0,0 -41.532,-36.51 -36.079,-124.02 2.662,-42.71 7.523,-224.22 12.601,-277.92 1.835,-19.47 3.443,-33.32 4.099,-38.86 l 0.013,-0.05 c 0.202,-1.69 -0.388,-3.28 -1.246,-4.76 -7.475,-12.68 -13.665,-25.89 -18.742,-39.41 -49.837,-132.81 7.676,-296.36 7.676,-296.36 l 14.925,6.02 c 0,0 32.729,182.01 59.322,262.42 4.515,13.64 8.842,24.36 12.808,30.76 11.562,18.66 22.293,49.15 32.032,85.42 18.408,68.57 33.225,157.76 43.085,226.61 1.36,-0.06 29.481,116.38 29.481,116.38" /><path
       inkscape:connector-curvature="0"
       id="path62"
       style="fill:#ffb27d;fill-opacity:1;fill-rule:nonzero;stroke:none;stroke-width:0.1"
       d="m 902.676,1146.05 c 0.836,-0.87 1.653,-1.72 2.641,-2.52 36.641,-34.15 85.988,-64.34 112.393,-70.99 17.36,-4.44 55.65,1.51 87.45,8.05 21.18,4.17 39.63,8.8 47.24,10.6 2.42,0.57 3.78,1 3.78,1 l -3.32,21.44 c 0,0 -19.06,1.51 -42.74,4.18 -32.98,3.88 -74.79,9.83 -85.5,16.16 -24.839,14.76 -68.429,76.67 -103.398,115.59 -1.832,2.12 -3.65,4.16 -5.449,6.16 -1.317,1.47 -2.634,2.9 -3.939,4.31 -0.268,0.27 -0.601,0.74 -1.034,0.97 -1.607,1.55 -2.974,2.99 -4.295,4.25 -0.051,0.15 -0.279,0.27 -0.503,0.4 -6.215,6.24 -17.114,13.82 -17.114,13.82 -6.11,3.48 -11.144,4.15 -14.685,1.18 0,0 -4.571,-4.46 -9.053,-12.9 -0.953,-1.76 -1.891,-3.71 -2.783,-5.82 -0.742,-1.16 -1.108,-2.39 -1.469,-3.63 -2.965,-7.78 -5.126,-17.57 -4.739,-28.97 0.274,-8.64 1.924,-18.17 5.756,-28.68 6.111,-17.24 21.546,-36.42 40.761,-54.6" /><path
       inkscape:connector-curvature="0"
       id="path64"
       style="fill:#ffb27d;fill-opacity:1;fill-rule:nonzero;stroke:none;stroke-width:0.1"
       d="m 870.771,1236.48 c -12.423,-8.11 -27.897,-14.65 -47.201,-18.54 -72.36,-14.58 -98.199,46.96 -107.37,88.96 9.962,5.33 19.221,6.31 24.568,6.8 5.213,0.46 10.689,0.72 15.221,0.81 8.247,5.96 20.99,30.93 24.757,70.14 l 3.357,-1 56.222,-17.11 c 0,0 -3.103,-17.93 -4.855,-34.92 -1.359,-13.29 -1.872,-26.02 0.563,-29.21 4.394,-1.08 7.03,-1.78 7.03,-1.78 l 0.027,-0.05 c 0.726,-1.27 16.401,-28.77 27.681,-64.1" /><path
       inkscape:connector-curvature="0"
       id="path66"
       style="fill:#ff9843;fill-opacity:1;fill-rule:nonzero;stroke:none;stroke-width:0.1"
       d="m 895.96,1191.28 c -0.334,-1.55 -0.736,-3.05 -1.186,-4.61 -12.702,-42.47 -22.977,-212.24 -22.977,-212.24 6.731,-21.22 -116.638,-25.57 -184.674,-15.76 -24.739,3.55 -42.159,8.98 -43.356,16.15 -12.173,27.44 17.616,78.69 34.818,104.74 2.163,3.27 4.016,6.71 5.546,10.28 3.889,8.96 5.765,18.72 5.373,28.56 -0.518,13.46 -1.668,26.53 -3.072,38.77 -2.635,23.09 -6.156,43.25 -7.996,57.52 v 0.01 c 3.578,3.56 7.064,6.86 10.309,10 4.947,4.84 9.285,9.32 12.335,13.67 3.348,4.74 5.212,9.37 4.797,14.22 -0.322,3.67 -0.978,7.39 -1.898,11.06 -0.426,1.74 -0.909,3.46 -1.427,5.19 -5.523,18.1 -15.694,33.76 -15.694,33.76 18.421,10.77 53.907,11.1 53.907,11.1 0,0 0.241,-1.94 0.69,-5.11 1.726,-12.72 6.581,-45.35 11.552,-50.93 6.213,-6.97 104.326,-27.14 107.744,-15.98 3.36,10.97 -16.903,57.14 -17.662,58.89 l -0.023,0.06 c 31.423,-7.47 45.07,-15.91 45.691,-16.41 l -0.035,0.01 c -17.052,-14.93 16.19,-52.26 7.238,-92.95" /><path
       inkscape:connector-curvature="0"
       id="path68"
       style="fill:#ed985f;fill-opacity:1;fill-rule:nonzero;stroke:none;stroke-width:0.1"
       d="m 840.328,1366.54 c 0,0 -3.113,-17.93 -4.854,-34.93 -32.01,4.12 -46.046,35.1 -51.373,52.03 l 56.227,-17.1" /><path
       inkscape:connector-curvature="0"
       id="path70"
       style="fill:#ffb27d;fill-opacity:1;fill-rule:nonzero;stroke:none;stroke-width:0.1"
       d="m 849.436,1349.36 c 0,0 -76.075,6.35 -71.39,53.66 4.684,47.32 -1.979,80 46.79,77.95 48.769,-2.06 56.404,-21.04 58.682,-37.22 2.277,-16.17 -14.173,-94.82 -34.082,-94.39" /><path
       inkscape:connector-curvature="0"
       id="path72"
       style="fill:#2c3a64;fill-opacity:1;fill-rule:nonzero;stroke:none;stroke-width:0.1"
       d="m 883.893,1470.28 c -10.315,15.41 -19.499,13.17 -24.898,9.39 -39.228,26.98 -69.355,-4.08 -69.355,-4.08 -8.479,-33.44 -34.905,-50.43 -34.905,-50.43 0,0 12.987,-9.94 45.722,-4.93 9.999,1.53 19.396,7.59 27.635,15.25 -15.082,-20.35 -34.223,-34.19 -34.223,-34.19 39.884,13.8 60.5,65.29 62.586,70.74 4.22,-4.63 12.453,-14.59 14.352,-23.73 2.58,-12.42 1.799,-37.4 9.112,-37.28 0,0 19.444,36.16 3.974,59.26" /><path
       inkscape:connector-curvature="0"
       id="path74"
       style="fill:#ffb27d;fill-opacity:1;fill-rule:nonzero;stroke:none;stroke-width:0.1"
       d="m 1223.31,1116.46 c -7.61,-7.25 -15.31,-25.37 -38.74,-25.03 -16.71,0.14 -33.64,-1.74 -41.83,-2.75 -3.19,-0.55 -5.05,-0.78 -5.05,-0.78 l -0.83,26.55 c 0,0 0.34,-0.04 1.1,0.09 5.66,0.85 34.4,5.27 45.78,12.82 12.78,8.56 42.64,0.62 42.64,0.62 0,0 4.59,-4.41 -3.07,-11.52" /><path
       inkscape:connector-curvature="0"
       id="path76"
       style="fill:#233862;fill-opacity:1;fill-rule:nonzero;stroke:none;stroke-width:0.1"
       d="M 728.669,230.35 H 610.566 c 0,0 -2.83,18 3.339,31.65 5.91,13.11 15.169,19.06 12.952,34.92 7.504,-7.73 19.736,-16.38 36.81,-14.09 2.092,-3.39 13.504,-21.54 20.492,-26.56 7.718,-5.54 42.133,-3.57 44.51,-25.92" /><path
       inkscape:connector-curvature="0"
       id="path78"
       style="fill:#233862;fill-opacity:1;fill-rule:nonzero;stroke:none;stroke-width:0.1"
       d="M 982.251,230.35 H 864.148 c 0,0 -4.415,18.84 3.338,31.65 6.864,11.35 4.234,17.81 -0.85,27.19 5.35,-2.19 12.272,-4.18 19.892,-3.75 5.884,0.34 12.106,3.01 17.563,6.18 5.083,-5.79 26.849,-30.46 33.65,-35.35 7.718,-5.54 42.133,-3.57 44.51,-25.92" /><path
       inkscape:connector-curvature="0"
       id="path80"
       style="fill:#ffffff;fill-opacity:1;fill-rule:nonzero;stroke:none;stroke-width:0.1"
       d="m 831.292,1376.72 c 0,0 1.065,-6.26 16.479,-6.28 0,0 12.941,-0.01 12.973,6.8 0,0 -12.196,5.61 -29.452,-0.52" /><path
       inkscape:connector-curvature="0"
       id="path82"
       style="fill:#ed7d2b;fill-opacity:1;fill-rule:nonzero;stroke:none;stroke-width:0.1"
       d="m 703.243,1075.99 c -4.672,-29.59 -26.073,-88.96 -16.12,-117.32 -24.739,3.55 -42.159,8.98 -43.356,16.15 -12.173,27.44 17.616,78.69 34.818,104.74 2.163,3.27 4.016,6.71 5.546,10.28 3.889,8.96 5.765,18.72 5.373,28.56 -0.518,13.46 -1.668,26.53 -3.072,38.77 0,0 21.781,-49.73 16.811,-81.18" /><path
       inkscape:connector-curvature="0"
       id="path84"
       style="fill:#ff9843;fill-opacity:1;fill-rule:nonzero;stroke:none;stroke-width:0.1"
       d="m 870.417,1275.64 c 0.822,-26.3 19.843,-98.5 24.355,-88.97 5.156,10.87 25.127,52.19 34.507,53.71 -0.494,1.91 -38.883,44.35 -40.562,43.86 0,0 -10.429,-3.18 -18.3,-8.6" /><path
       inkscape:connector-curvature="0"
       id="path86"
       style="fill:#ffb27d;fill-opacity:1;fill-rule:nonzero;stroke:none;stroke-width:0.1"
       d="m 689.326,902.56 -19.593,-13.04 c 0,0 -4.957,6.19 -12.807,16.1 -2.345,2.98 -3.602,4.78 -3.602,4.78 -6.212,8 -13.431,17.82 -21.326,28.46 l -0.133,0.13 c -13.232,18.58 -27.765,39.72 -38.888,58.83 -7.729,13.54 -13.747,26.09 -16.687,35.95 -0.324,0.98 -0.501,1.85 -0.702,2.97 -5.751,25.01 4.797,74.66 21.586,123.11 2.305,6.69 4.743,13.28 7.072,19.73 8.931,23.76 18.967,46.08 29.048,64.13 5.91,10.85 11.802,20.31 17.479,27.37 1.968,2.52 3.818,4.91 5.819,6.94 1.082,1.22 2.164,2.41 3.23,3.54 11.769,-1 36.461,-5.66 54.786,-26.83 -0.312,-1.11 -0.638,-2.22 -0.971,-3.36 -7.41,-23.9 -18.853,-53.23 -30.713,-81.97 -6.454,-15.79 -13.055,-31.46 -18.835,-46.2 -3.666,-8.81 -6.984,-17.21 -9.977,-24.96 -5.639,-14.86 -9.825,-27.22 -11.489,-35.88 -1.126,-5.62 0.479,-16.2 3.513,-29.2 5.202,-22.65 15.104,-53.16 24.305,-79.07 3.764,-10.81 7.47,-20.87 10.566,-29.21 4.954,-13.5 8.319,-22.32 8.319,-22.32" /><path
       inkscape:connector-curvature="0"
       id="path88"
       style="fill:#ff9843;fill-opacity:1;fill-rule:nonzero;stroke:none;stroke-width:0.1"
       d="m 697.892,1179.93 c -19.57,29.54 -75.662,42.25 -75.662,42.25 31.651,100.43 114.748,91.12 114.748,91.12 0,0 -30.229,-104.48 -39.086,-133.37" /><path
       inkscape:connector-curvature="0"
       id="path90"
       style="fill:#ffb27d;fill-opacity:1;fill-rule:nonzero;stroke:none;stroke-width:0.1"
       d="m 669.733,889.52 c 0,0 5.147,-7.6 5.722,-13.06 0.576,-5.47 5.466,-23.59 11.794,-29.35 6.329,-5.75 20.711,-17.26 22.725,-15.53 2.013,1.73 7.84,15.29 2.439,24.88 -2.438,4.33 -5.747,16.4 -10.11,19.32 -5.295,3.55 -12.977,26.78 -12.977,26.78 l -19.593,-13.04" /><path
       inkscape:connector-curvature="0"
       id="path92"
       style="fill:#ffb27d;fill-opacity:1;fill-rule:nonzero;stroke:none;stroke-width:0.1"
       d="m 689.406,899.61 c 0,0 15.582,-7.91 17.691,-14.24 2.11,-6.33 10.816,-19.09 9.924,-20.57 -0.955,-1.58 -14.501,7.06 -19.104,14.92 -4.603,7.86 -8.511,19.89 -8.511,19.89" /><g
       transform="scale(0.141325)"
       id="g94"><path
         inkscape:connector-curvature="0"
         id="path96"
         style="fill:#ed7d2b;fill-opacity:1;fill-rule:nonzero;stroke:none"
         d="m 7501.78,6886.32 4037.52,2417.11 c 222.6,133.3 500.5,133.3 723.2,0 L 16300,6886.32 V 2946.75 l -8798.22,441.11 v 3498.46" /></g><g
       transform="scale(0.134759)"
       id="g98"><path
         inkscape:connector-curvature="0"
         id="path100"
         style="fill:#fcecdb;fill-opacity:1;fill-rule:nonzero;stroke:none"
         d="M 16300,2451.27 H 8661.54 V 9052.41 H 16300 V 2451.27" /></g><path
       inkscape:connector-curvature="0"
       id="path102"
       style="fill:#efcbab;fill-opacity:1;fill-rule:nonzero;stroke:none;stroke-width:0.1"
       d="m 1198.64,1181.08 c 0,5.85 4.74,10.58 10.58,10.58 5.85,0 10.59,-4.73 10.59,-10.58 0,-5.84 -4.74,-10.58 -10.59,-10.58 -5.84,0 -10.58,4.74 -10.58,10.58" /><g
       transform="scale(0.132793)"
       id="g104"><path
         inkscape:connector-curvature="0"
         id="path106"
         style="fill:#efcbab;fill-opacity:1;fill-rule:nonzero;stroke:none"
         d="m 16140.6,8894.18 c 0,44.01 35.7,79.69 79.7,79.69 44,0 79.7,-35.68 79.7,-79.69 0,-44.02 -35.7,-79.7 -79.7,-79.7 -44,0 -79.7,35.68 -79.7,79.7" /></g><g
       transform="scale(0.132143)"
       id="g108"><path
         inkscape:connector-curvature="0"
         id="path110"
         style="fill:#efcbab;fill-opacity:1;fill-rule:nonzero;stroke:none"
         d="M 16300,8929.2 H 9150.85 v 17.41 H 16300 v -17.41" /></g><path
       inkscape:connector-curvature="0"
       id="path112"
       style="fill:#efcbab;fill-opacity:1;fill-rule:nonzero;stroke:none;stroke-width:0.1"
       d="m 1208.07,240.58 v 944.71 h 2.3 V 240.58 h -2.3" /><g
       transform="scale(0.132236)"
       id="g114"><path
         inkscape:connector-curvature="0"
         id="path116"
         style="fill:#efcbab;fill-opacity:1;fill-rule:nonzero;stroke:none"
         d="m 16282.6,1819.32 v 7144.1 h 17.4 v -7144.1 h -17.4" /></g><g
       transform="scale(0.141325)"
       id="g118"><path
         inkscape:connector-curvature="0"
         id="path120"
         style="fill:#ff9843;fill-opacity:1;fill-rule:nonzero;stroke:none"
         d="M 16300,6897.15 V 1629.93 H 7501.78 V 6897.15 L 11900.9,4263.5 16300,6897.15" /></g><g
       transform="scale(0.141325)"
       id="g122"><path
         inkscape:connector-curvature="0"
         id="path124"
         style="fill:#ed7d2b;fill-opacity:1;fill-rule:nonzero;stroke:none"
         d="m 7501.78,1629.93 4029.82,2889.08 c 220.7,158.29 517.8,158.29 738.5,0 L 16300,1629.93 H 7501.78" /></g><g
       transform="scale(0.115436)"
       id="g126"><path
         inkscape:connector-curvature="0"
         id="path128"
         style="fill:#efcbab;fill-opacity:1;fill-rule:nonzero;stroke:none"
         d="M 16214.1,9500.14 H 12963 c -47.2,0 -85.9,38.62 -85.9,85.83 0,47.21 38.7,85.84 85.9,85.84 h 3251.1 c 47.3,0 85.9,-38.63 85.9,-85.84 0,-47.21 -38.6,-85.83 -85.9,-85.83" /></g><g
       transform="scale(0.121366)"
       id="g130"><path
         inkscape:connector-curvature="0"
         id="path132"
         style="fill:#efcbab;fill-opacity:1;fill-rule:nonzero;stroke:none"
         d="M 16218.3,8708.34 H 11533 c -44.9,0 -81.6,36.74 -81.6,81.64 0,44.9 36.7,81.64 81.6,81.64 h 4685.3 c 45,0 81.7,-36.74 81.7,-81.64 0,-44.9 -36.7,-81.64 -81.7,-81.64" /></g><g
       transform="scale(0.116674)"
       id="g134"><path
         inkscape:connector-curvature="0"
         id="path136"
         style="fill:#efcbab;fill-opacity:1;fill-rule:nonzero;stroke:none"
         d="m 16238.5,8001.68 h -3526.3 c -33.8,0 -61.4,27.68 -61.4,61.45 0,33.77 27.6,61.46 61.4,61.46 h 3526.3 c 33.8,0 61.5,-27.69 61.5,-61.46 0,-33.77 -27.7,-61.45 -61.5,-61.45" /></g><path
       inkscape:connector-curvature="0"
       id="path138"
       style="fill:#efcbab;fill-opacity:1;fill-rule:nonzero;stroke:none;stroke-width:0.1"
       d="m 1524.5,896.15 h -116.01 c -3.94,0 -7.17,3.23 -7.17,7.17 0,3.94 3.23,7.17 7.17,7.17 h 116.01 c 3.94,0 7.17,-3.23 7.17,-7.17 0,-3.94 -3.23,-7.17 -7.17,-7.17" /><g
       transform="scale(0.104701)"
       id="g140"><path
         inkscape:connector-curvature="0"
         id="path142"
         style="fill:#efcbab;fill-opacity:1;fill-rule:nonzero;stroke:none"
         d="m 16231.5,8559.12 h -1338.6 c -37.7,0 -68.4,30.85 -68.4,68.48 0,37.63 30.7,68.48 68.4,68.48 h 1338.6 c 37.6,0 68.5,-30.85 68.5,-68.48 0,-37.63 -30.9,-68.48 -68.5,-68.48" /></g><g
       transform="scale(0.121256)"
       id="g144"><path
         inkscape:connector-curvature="0"
         id="path146"
         style="fill:#efcbab;fill-opacity:1;fill-rule:nonzero;stroke:none"
         d="m 16240.9,7390.53 h -1998.2 c -32.5,0 -59.1,26.64 -59.1,59.14 0,32.49 26.6,59.13 59.1,59.13 h 1998.2 c 32.5,0 59.1,-26.64 59.1,-59.13 0,-32.5 -26.6,-59.14 -59.1,-59.14" /></g><g
       transform="scale(0.104758)"
       id="g148"><path
         inkscape:connector-curvature="0"
         id="path150"
         style="fill:#efcbab;fill-opacity:1;fill-rule:nonzero;stroke:none"
         d="m 16231.6,8138.97 h -2151.3 c -37.6,0 -68.3,30.74 -68.3,68.45 0,37.61 30.7,68.44 68.3,68.44 h 2151.3 c 37.6,0 68.4,-30.83 68.4,-68.44 0,-37.71 -30.8,-68.45 -68.4,-68.45" /></g><g
       transform="scale(0.117175)"
       id="g152"><path
         inkscape:connector-curvature="0"
         id="path154"
         style="fill:#efcbab;fill-opacity:1;fill-rule:nonzero;stroke:none"
         d="M 16238.8,7276.48 H 14724 c -33.6,0 -61.1,27.47 -61.1,61.19 0,33.62 27.5,61.19 61.1,61.19 h 1514.8 c 33.6,0 61.2,-27.57 61.2,-61.19 0,-33.72 -27.6,-61.19 -61.2,-61.19" /></g><g
       transform="scale(0.108576)"
       id="g156"><path
         inkscape:connector-curvature="0"
         id="path158"
         style="fill:#f99746;fill-opacity:1;fill-rule:nonzero;stroke:none"
         d="m 15714.9,6540.57 c -20.5,38.32 8.8,85.57 42.3,116.79 -13.1,-39.24 -27.3,-78.2 -42.3,-116.79 z m -61.7,561.64 c -0.5,19.52 9.8,55.08 32.2,54.71 -10.1,-21.92 -20.5,-43.66 -31.5,-65.12 -0.4,3.5 -0.6,7 -0.7,10.41 z m 590.6,-64.75 c -124.9,-103.61 -258.4,-190 -399.2,-268.84 11.9,37.3 21.9,75.98 20,110.52 -2.5,47.52 -40.4,68.34 -78.3,88.05 -9.4,4.88 -18.2,10.04 -26.9,15.19 14.7,14.46 22.3,34.45 12.6,56.37 -16,35.92 -61,30.12 -76.2,-3.13 -2.8,-6.17 -4.5,-12.16 -5.1,-18.05 -6.2,3.22 -10.8,6.72 -14.9,11.7 23.1,43.19 45,87.12 65.1,132.07 4.5,10.13 -1.2,22.1 -9.4,28.18 -33.4,25.14 -78.9,17.04 -105.7,-14.55 -31.8,-37.49 -23.7,-94.5 -8.5,-137.05 1.1,-3.04 2.3,-5.98 3.5,-8.93 -29.5,-53.14 -61.6,-104.9 -95.9,-155.19 -3.2,3.22 -6.5,6.45 -9.7,9.67 -8.9,8.65 -18.5,19.89 -26.8,32.23 15.8,40.99 25.8,84 29.6,128.85 1.6,19.99 -18.4,29.85 -35,23.67 -46.3,-17.13 -71.2,-64.1 -65.2,-112.45 2.1,-16.58 7.4,-32.42 15.1,-47.07 -10.4,-22.38 -22.6,-44.11 -37.1,-65.02 -9.4,-13.54 -2.6,-27.36 8.3,-33.8 -15.1,-50.38 -35.5,-102.05 -70.3,-138.43 -28.5,-29.65 -81.5,-52.22 -116.2,-16.95 -21.9,22.29 -24.7,59.6 -27.7,89.06 -7.4,72.67 -12.8,148.1 -10.2,221.23 1.3,34.63 5,69.82 16.8,102.51 7.4,20.36 17.6,51.21 27.6,16.12 4.8,-17.13 -1.9,-43.84 -3.6,-61.34 -3.2,-31.22 45.3,-34.81 48.4,-3.68 3.7,36.56 20.1,113.47 -21.3,136.4 -34.4,19.06 -66,-8.29 -81.9,-36.84 -57.2,-102.7 -34.5,-243.88 -25.8,-355.51 6.8,-89.07 40.1,-198.39 153.9,-170.02 107,26.61 146.3,161.54 170.9,254.38 1.6,5.8 1.1,11.05 -0.7,15.57 l 1.3,2.3 c 4.4,-4.42 8.9,-8.84 13.4,-13.35 6.3,-5.53 12.4,-11.52 18.2,-17.6 -11.3,-15.56 -22.8,-31.03 -34.5,-46.32 -6.6,-8.66 -4.7,-21.65 2,-29.66 36,-43.29 100.7,-11.15 99.4,42.09 -0.2,12.34 -3.3,23.3 -8.1,33.34 33.8,48.63 65.4,98.74 94.7,150.13 15.3,-14.92 34.6,-24.5 58.4,-23.4 1.6,0.09 3.2,0.28 4.9,0.46 12.4,-13.17 28.1,-24.13 42.3,-32.14 13.9,-7.83 29.8,-12.62 42.2,-22.75 23.1,-18.88 16.2,-40.43 11.2,-67.23 -6.7,-35.28 -18,-70.55 -28.3,-104.91 -48.9,-28.09 -97.2,-63.82 -113.7,-120.1 -15,-51.39 -1.6,-105.45 42.4,-137.32 13.3,-9.67 30.9,-1.94 36.6,12.06 27.6,67.89 52.5,136.87 73.9,206.96 0.7,2.21 1.4,4.51 2.2,6.72 43.1,24.59 88.4,46.24 131,71.47 113.5,67.14 221.1,143.68 322.4,227.86 24.1,19.99 -8,56.55 -32.1,36.47" /></g><g
       transform="scale(0.105109)"
       id="g160"><path
         inkscape:connector-curvature="0"
         id="path162"
         style="fill:#dce9fb;fill-opacity:1;fill-rule:nonzero;stroke:none"
         d="m 14420.6,13104.6 -509.9,1125.2 1101.8,-194.3 c 12.1,-2.1 24.2,-3.1 36.2,-3.1 72.8,0 141.5,38.1 179.5,102.2 l 561.9,947 509.9,-1125.1 -1879.4,-851.9" /></g><g
       transform="scale(0.10182)"
       id="g164"><path
         inkscape:connector-curvature="0"
         id="path166"
         style="fill:#cee1f6;fill-opacity:1;fill-rule:nonzero;stroke:none"
         d="m 15534.7,14485.5 c -12.3,0 -24.9,1.1 -37.4,3.3 l -1137.4,200.5 1940.1,879.4 -580,-977.6 c -39.2,-66.2 -110.1,-105.6 -185.3,-105.6" /></g><path
       inkscape:connector-curvature="0"
       id="path168"
       style="fill:#dce9fb;fill-opacity:1;fill-rule:nonzero;stroke:none;stroke-width:0.1"
       d="m 400.223,690.28 -28.197,75.62 70.937,-17.6 c 1.091,-0.27 2.193,-0.4 3.284,-0.4 4.412,0 8.638,2.15 11.222,5.89 l 40.863,59.21 28.196,-75.62 -126.305,-47.1" /><path
       inkscape:connector-curvature="0"
       id="path170"
       style="fill:#cee1f6;fill-opacity:1;fill-rule:nonzero;stroke:none;stroke-width:0.1"
       d="m 446.247,747.9 c -1.091,0 -2.193,0.13 -3.284,0.4 l -70.937,17.6 126.306,47.1 -40.863,-59.21 c -2.584,-3.74 -6.81,-5.89 -11.222,-5.89" /><g
       transform="scale(0.163271)"
       id="g172"><path
         inkscape:connector-curvature="0"
         id="path174"
         style="fill:#dce9fb;fill-opacity:1;fill-rule:nonzero;stroke:none"
         d="m 16057.3,6826.53 -1519,405.37 242.6,909.4 555.6,-646.46 c 30.8,-35.84 75.2,-55.39 120.7,-55.39 18.2,0 36.6,3.13 54.4,9.6 l 788.4,286.88 -242.7,-909.4" /></g><g
       transform="scale(0.163271)"
       id="g176"><path
         inkscape:connector-curvature="0"
         id="path178"
         style="fill:#cee1f6;fill-opacity:1;fill-rule:nonzero;stroke:none"
         d="m 15457.2,7439.45 c -45.5,0 -89.9,19.55 -120.7,55.39 l -555.6,646.46 1519.1,-405.37 -788.4,-286.88 c -17.8,-6.47 -36.2,-9.6 -54.4,-9.6" /></g><path
       inkscape:connector-curvature="0"
       id="path180"
       style="fill:#afcdfb;fill-opacity:1;fill-rule:nonzero;stroke:none;stroke-width:0.1"
       d="m 519.133,593.36 c -0.595,0 -1.099,0.46 -1.146,1.06 -0.049,0.64 0.426,1.19 1.059,1.24 10.691,0.82 17.344,1.11 17.41,1.11 0.637,0.05 1.17,-0.47 1.197,-1.1 0.027,-0.64 -0.466,-1.17 -1.101,-1.2 -0.065,0 -6.683,-0.28 -17.329,-1.1 z m -34.457,-3.4 c -0.574,0 -1.071,0.42 -1.141,1.01 -0.077,0.63 0.373,1.2 1.004,1.28 5.67,0.68 11.467,1.32 17.23,1.89 0.628,0.05 1.196,-0.4 1.258,-1.03 0.062,-0.63 -0.4,-1.2 -1.032,-1.26 -5.746,-0.57 -11.526,-1.2 -17.18,-1.89 z m -34.249,-4.98 c -0.551,0 -1.037,0.39 -1.133,0.95 -0.108,0.63 0.312,1.22 0.939,1.33 5.517,0.95 11.278,1.86 17.122,2.71 0.638,0.1 1.213,-0.35 1.304,-0.97 0.091,-0.63 -0.345,-1.22 -0.973,-1.31 -5.825,-0.84 -11.565,-1.75 -17.062,-2.7 z m -33.893,-6.99 c -0.517,0 -0.988,0.35 -1.117,0.88 -0.151,0.61 0.227,1.24 0.844,1.39 5.379,1.32 11.075,2.6 16.931,3.8 0.624,0.12 1.231,-0.28 1.358,-0.9 0.128,-0.62 -0.274,-1.23 -0.896,-1.36 -5.828,-1.19 -11.495,-2.46 -16.844,-3.78 -0.093,-0.02 -0.185,-0.03 -0.276,-0.03 z m 763.536,-2.09 c -0.54,0 -1.03,0.38 -1.13,0.93 -0.12,0.63 0.29,1.23 0.91,1.35 1.17,0.22 1.84,0.35 1.97,0.37 0.68,0.16 1.41,-0.39 1.41,-1.12 0,-0.95 -0.11,-0.97 -2.95,-1.51 z m -34.12,-6.4 c -0.54,0 -1.03,0.39 -1.13,0.94 -0.11,0.62 0.3,1.22 0.92,1.34 6.5,1.2 12.2,2.26 17.05,3.17 0.62,0.12 1.22,-0.29 1.34,-0.92 0.12,-0.62 -0.29,-1.22 -0.92,-1.34 -4.85,-0.91 -10.55,-1.97 -17.05,-3.17 z m -762.519,-1.49 c -0.466,0 -0.906,0.28 -1.078,0.75 -0.222,0.59 0.081,1.25 0.677,1.48 5.097,1.9 10.642,3.74 16.478,5.49 0.612,0.18 1.251,-0.17 1.432,-0.78 0.182,-0.61 -0.164,-1.25 -0.773,-1.43 -5.788,-1.73 -11.283,-3.56 -16.334,-5.44 -0.132,-0.05 -0.268,-0.07 -0.402,-0.07 z m 728.459,-4.74 c -0.55,0 -1.03,0.39 -1.13,0.95 -0.12,0.62 0.3,1.22 0.92,1.34 6.01,1.08 11.7,2.12 17.03,3.09 0.63,0.12 1.23,-0.3 1.34,-0.92 0.11,-0.63 -0.3,-1.23 -0.92,-1.34 -5.34,-0.98 -11.03,-2.01 -17.04,-3.1 z m -34.06,-6.09 c -0.55,0 -1.03,0.39 -1.13,0.95 -0.11,0.63 0.3,1.22 0.93,1.33 5.88,1.05 11.56,2.06 17.03,3.03 0.62,0.12 1.22,-0.3 1.33,-0.93 0.11,-0.62 -0.3,-1.22 -0.93,-1.33 -5.47,-0.98 -11.15,-1.99 -17.03,-3.03 z M 352.591,552.6 c -0.363,0 -0.721,0.18 -0.945,0.5 -0.363,0.52 -0.236,1.23 0.286,1.6 4.346,3.03 9.423,5.97 15.089,8.73 0.57,0.28 1.26,0.05 1.539,-0.53 0.278,-0.57 0.041,-1.26 -0.53,-1.53 -5.559,-2.72 -10.532,-5.59 -14.782,-8.56 -0.2,-0.14 -0.43,-0.21 -0.657,-0.21 z m 691.169,-1.39 c -0.55,0 -1.03,0.4 -1.13,0.96 -0.11,0.62 0.31,1.22 0.94,1.33 5.81,1.01 11.49,2 17.03,2.97 0.63,0.1 1.22,-0.31 1.33,-0.94 0.11,-0.62 -0.31,-1.22 -0.93,-1.33 -5.54,-0.97 -11.22,-1.96 -17.04,-2.97 z m -34.07,-5.84 c -0.55,0 -1.04,0.39 -1.13,0.96 -0.11,0.62 0.31,1.21 0.94,1.32 5.78,0.98 11.46,1.95 17.04,2.91 0.62,0.11 1.22,-0.31 1.32,-0.94 0.11,-0.63 -0.31,-1.22 -0.94,-1.33 -5.57,-0.96 -11.26,-1.93 -17.04,-2.91 z m -34.091,-5.73 c -0.553,0 -1.041,0.4 -1.134,0.96 -0.105,0.63 0.32,1.22 0.946,1.33 5.758,0.95 11.442,1.9 17.046,2.84 0.635,0.11 1.22,-0.31 1.325,-0.94 0.105,-0.63 -0.318,-1.22 -0.944,-1.33 -5.606,-0.94 -11.291,-1.89 -17.049,-2.84 z m -34.109,-5.59 c -0.553,0 -1.042,0.4 -1.134,0.96 -0.102,0.63 0.325,1.22 0.952,1.32 5.742,0.93 11.429,1.86 17.054,2.78 0.626,0.11 1.219,-0.32 1.322,-0.94 0.102,-0.63 -0.323,-1.22 -0.95,-1.33 -5.627,-0.92 -11.314,-1.85 -17.058,-2.78 z m -34.125,-5.47 c -0.557,0 -1.046,0.4 -1.136,0.97 -0.098,0.63 0.33,1.22 0.958,1.32 5.73,0.9 11.419,1.81 17.062,2.71 0.623,0.1 1.217,-0.32 1.318,-0.95 0.1,-0.63 -0.326,-1.22 -0.954,-1.32 -5.643,-0.9 -11.335,-1.81 -17.067,-2.72 z m -574.996,-2.7 -0.228,0.02 c -0.623,0.13 -1.026,0.73 -0.901,1.35 1.106,5.49 3.7,10.78 7.711,15.72 0.402,0.49 1.125,0.57 1.619,0.17 0.493,-0.4 0.568,-1.13 0.168,-1.62 -3.774,-4.65 -6.211,-9.6 -7.242,-14.72 -0.11,-0.55 -0.59,-0.92 -1.127,-0.92 z m 540.849,-2.62 c -0.557,0 -1.048,0.4 -1.135,0.97 -0.097,0.63 0.334,1.22 0.962,1.31 5.723,0.88 11.416,1.77 17.073,2.65 0.627,0.09 1.216,-0.33 1.315,-0.96 0.098,-0.63 -0.332,-1.22 -0.96,-1.32 -5.659,-0.88 -11.353,-1.76 -17.078,-2.64 z m -34.166,-5.18 c -0.561,0 -1.052,0.41 -1.137,0.98 -0.094,0.63 0.34,1.22 0.968,1.31 5.717,0.85 11.412,1.71 17.083,2.57 0.634,0.09 1.215,-0.34 1.31,-0.97 0.096,-0.63 -0.337,-1.21 -0.964,-1.31 -5.674,-0.86 -11.372,-1.71 -17.09,-2.56 z m -34.192,-5 c -0.562,0 -1.055,0.41 -1.137,0.98 -0.091,0.63 0.346,1.21 0.975,1.31 5.711,0.82 11.411,1.64 17.095,2.48 0.628,0.1 1.213,-0.34 1.305,-0.98 0.092,-0.62 -0.343,-1.21 -0.972,-1.3 -5.686,-0.83 -11.388,-1.66 -17.1,-2.48 z m -34.216,-4.84 c -0.565,0 -1.059,0.42 -1.139,1 -0.087,0.63 0.353,1.21 0.982,1.29 5.708,0.79 11.412,1.59 17.109,2.39 0.62,0.1 1.212,-0.34 1.3,-0.97 0.089,-0.63 -0.349,-1.22 -0.979,-1.3 -5.699,-0.81 -11.405,-1.61 -17.114,-2.4 z m -34.291,-4.64 c -0.568,0 -1.063,0.43 -1.139,1 -0.083,0.64 0.359,1.21 0.99,1.3 5.706,0.75 11.417,1.51 17.129,2.29 0.639,0.08 1.209,-0.36 1.294,-0.99 0.085,-0.63 -0.356,-1.21 -0.985,-1.29 -5.715,-0.78 -11.429,-1.54 -17.137,-2.29 z m -34.191,-4.39 c -0.571,0 -1.067,0.42 -1.14,1 -0.079,0.63 0.368,1.21 0.999,1.29 5.68,0.71 11.375,1.43 17.079,2.17 0.627,0.07 1.207,-0.37 1.288,-1 0.081,-0.63 -0.364,-1.21 -0.994,-1.29 -5.707,-0.73 -11.404,-1.46 -17.087,-2.17 z m -34.305,-4.17 c -0.575,0 -1.072,0.44 -1.141,1.02 -0.074,0.63 0.378,1.2 1.009,1.28 5.696,0.67 11.415,1.35 17.151,2.04 0.63,0.08 1.205,-0.37 1.281,-1 0.077,-0.63 -0.373,-1.21 -1.004,-1.28 -5.739,-0.7 -11.461,-1.38 -17.16,-2.05 z M 342.79,494.78 c -0.235,0 -0.472,0.07 -0.677,0.22 -3.333,2.43 -5.739,5.17 -7.152,8.16 -1.032,2.19 -1.893,4.38 -2.558,6.51 -0.189,0.61 0.15,1.25 0.757,1.44 0.603,0.19 1.252,-0.15 1.44,-0.76 0.633,-2.03 1.455,-4.12 2.442,-6.2 1.246,-2.64 3.408,-5.09 6.427,-7.29 0.513,-0.38 0.626,-1.1 0.252,-1.61 -0.225,-0.31 -0.575,-0.47 -0.931,-0.47 z m 290.727,-3.61 c -0.579,0 -1.079,0.44 -1.142,1.03 -0.068,0.63 0.389,1.2 1.021,1.27 5.691,0.61 11.416,1.25 17.168,1.9 0.632,0.06 1.202,-0.39 1.273,-1.02 0.071,-0.63 -0.383,-1.2 -1.015,-1.27 -5.757,-0.65 -11.484,-1.28 -17.179,-1.9 z m -34.377,-3.52 c -0.585,0 -1.086,0.44 -1.143,1.03 -0.062,0.64 0.4,1.2 1.033,1.26 5.686,0.55 11.417,1.13 17.188,1.72 0.628,0.05 1.197,-0.39 1.262,-1.03 0.065,-0.63 -0.395,-1.19 -1.027,-1.26 -5.774,-0.59 -11.51,-1.17 -17.201,-1.72 z m -34.419,-3.13 c -0.593,0 -1.096,0.46 -1.146,1.06 -0.054,0.63 0.417,1.19 1.05,1.24 5.679,0.48 11.417,0.98 17.207,1.51 0.639,0.05 1.193,-0.41 1.251,-1.05 0.057,-0.63 -0.409,-1.19 -1.042,-1.25 -5.796,-0.52 -11.539,-1.03 -17.223,-1.5 z m -189.606,-1.06 -0.204,0.02 c -6.35,1.14 -12.043,2.5 -16.92,4.05 -0.605,0.19 -0.94,0.84 -0.748,1.44 0.192,0.61 0.84,0.95 1.445,0.75 4.782,-1.52 10.377,-2.86 16.629,-3.98 0.626,-0.11 1.042,-0.71 0.93,-1.33 -0.101,-0.56 -0.585,-0.95 -1.132,-0.95 z m 155.142,-1.56 c -0.6,0 -1.106,0.46 -1.147,1.07 -0.043,0.64 0.436,1.18 1.071,1.23 5.667,0.38 11.411,0.8 17.228,1.24 0.633,0.05 1.186,-0.43 1.235,-1.06 0.048,-0.63 -0.427,-1.19 -1.06,-1.24 -5.823,-0.44 -11.574,-0.85 -17.248,-1.24 z m -34.51,-1.98 c -0.611,0 -1.121,0.48 -1.149,1.09 -0.029,0.64 0.461,1.18 1.096,1.21 5.538,0.25 11.342,0.56 17.247,0.9 0.634,0.01 1.179,-0.45 1.216,-1.09 0.036,-0.63 -0.449,-1.18 -1.083,-1.21 -5.914,-0.34 -11.726,-0.65 -17.273,-0.9 z m -86.339,-0.26 h -0.071 c -6.086,0.37 -11.891,0.84 -17.254,1.41 -0.632,0.07 -1.089,0.64 -1.022,1.27 0.067,0.63 0.636,1.09 1.266,1.02 5.328,-0.57 11.098,-1.04 17.149,-1.4 0.634,-0.04 1.117,-0.59 1.079,-1.22 -0.036,-0.61 -0.543,-1.08 -1.147,-1.08 z m 51.785,-0.87 c -0.627,0 -1.139,0.5 -1.15,1.13 -0.011,0.64 0.496,1.16 1.131,1.17 5.527,0.1 11.335,0.24 17.263,0.44 0.662,0.05 1.167,-0.48 1.188,-1.11 0.021,-0.64 -0.477,-1.17 -1.113,-1.19 -5.939,-0.2 -11.76,-0.34 -17.299,-0.44 z m -17.283,-0.13 h -0.003 c -5.993,0.02 -11.809,0.1 -17.287,0.25 -0.636,0.02 -1.136,0.55 -1.119,1.19 0.017,0.63 0.528,1.13 1.182,1.11 5.459,-0.15 11.256,-0.23 17.23,-0.25 0.635,0 1.15,-0.51 1.148,-1.15 -0.002,-0.63 -0.517,-1.15 -1.151,-1.15" /><path
       inkscape:connector-curvature="0"
       id="path182"
       style="fill:#afcdfb;fill-opacity:1;fill-rule:nonzero;stroke:none;stroke-width:0.1"
       d="m 1218.53,515.29 141.75,80.33 -129.31,-7.64 9.98,-21.84 -26.71,-29.59 4.29,-21.26" /><path
       inkscape:connector-curvature="0"
       id="path184"
       style="fill:#ffffff;fill-opacity:1;fill-rule:nonzero;stroke:none;stroke-width:0.1"
       d="M 1360.28,595.62 1211.74,568.4 1103.55,493.26 Z" /><path
       inkscape:connector-curvature="0"
       id="path186"
       style="fill:#ffffff;fill-opacity:1;fill-rule:nonzero;stroke:none;stroke-width:0.1"
       d="m 1230.97,587.98 129.31,7.64 -135.26,39.64 z" /><g
       transform="scale(0.131667)"
       id="g188"><path
         inkscape:connector-curvature="0"
         id="path190"
         style="fill:#afcdfb;fill-opacity:1;fill-rule:nonzero;stroke:none"
         d="m 15077.8,11929.6 1222.2,-193.4 -804.3,566.4 -44,-177 -298.8,-49.4 -75.1,-146.6" /></g><g
       transform="scale(0.131667)"
       id="g192"><path
         inkscape:connector-curvature="0"
         id="path194"
         style="fill:#ffffff;fill-opacity:1;fill-rule:nonzero;stroke:none"
         d="m 16300,11736.2 -1011.2,541.1 -998.3,65.5 2009.5,-606.6" /></g><g
       transform="scale(0.131667)"
       id="g196"><path
         inkscape:connector-curvature="0"
         id="path198"
         style="fill:#ffffff;fill-opacity:1;fill-rule:nonzero;stroke:none"
         d="m 15495.7,12302.6 804.3,-566.4 -615.9,875.4 -188.4,-309" /></g><path
       inkscape:connector-curvature="0"
       id="path296"
       style="fill:#ffb27d;fill-opacity:1;fill-rule:nonzero;stroke:none;stroke-width:0.1"
       d="m 1142.42,1115.24 c 0,0 16.87,6.39 18.79,10.8 1.92,4.41 7.48,6.33 14.19,9.4 6.71,3.07 10.74,8.63 11.7,7.86 0.96,-0.76 1.15,-4.6 -1.54,-7.48 -2.68,-2.87 -14.05,-23.01 -18.34,-25.31 -4.29,-2.3 -24.8,4.73 -24.8,4.73" /><g
       transform="scale(0.178453)"
       id="g298"><path
         inkscape:connector-curvature="0"
         id="path300"
         style="fill:#82b378;fill-opacity:1;fill-rule:nonzero;stroke:none"
         d="m 16210.1,1296.14 h -607.7 c -32.5,27.63 22.6,90.39 80.2,94.59 25,1.91 56.6,-3.36 92.7,-10.98 8.4,111.07 56.1,610.3 236.1,590.24 202.3,-22.47 0,-219.89 -57.2,-336.73 -42.4,-86.58 -87.1,-210.7 -107.5,-269.26 16.4,-3.58 33.4,-7.06 50.8,-10.25 26.8,82.32 126.6,359.31 253.5,343.17 149,-18.88 89.1,-129.95 -16.5,-195.85 -77.5,-48.47 -172.6,-117.4 -217.8,-150.68 38.3,-6.23 78.2,-10.48 118.8,-9.53 104.1,2.46 154.9,-28.19 174.6,-44.72" /></g><path
       inkscape:connector-curvature="0"
       id="path302"
       style="fill:#82b378;fill-opacity:1;fill-rule:nonzero;stroke:none;stroke-width:0.1"
       d="m 462.752,229.1 c 0,0 -41.214,113.19 -70.151,103.54 -28.938,-9.65 70.151,-103.54 70.151,-103.54" /><path
       inkscape:connector-curvature="0"
       id="path304"
       style="fill:#82b378;fill-opacity:1;fill-rule:nonzero;stroke:none;stroke-width:0.1"
       d="m 446.968,229.1 c -3.508,0 -69.275,68.25 -73.659,50.38 -4.385,-17.87 73.659,-50.38 73.659,-50.38" /><path
       inkscape:connector-curvature="0"
       id="path306"
       style="fill:#82b378;fill-opacity:1;fill-rule:nonzero;stroke:none;stroke-width:0.1"
       d="m 517.119,229.1 c 0,0 -27.199,24.94 -61.636,18.45 -34.437,-6.5 -49.145,-13.61 -70.775,-8.69 -21.63,4.92 -32.68,-9.76 -32.68,-9.76 h 165.091" /><path
       inkscape:connector-curvature="0"
       id="path312"
       style="fill:#fcecdb;fill-opacity:1;fill-rule:nonzero;stroke:none;stroke-width:0.1"
       d="m 1356.3,274.29 h -214.23 c -11.97,0 -21.67,9.7 -21.67,21.67 v 58.42 c 0,11.96 9.7,21.66 21.67,21.66 h 214.23 c 11.97,0 21.66,-9.7 21.66,-21.66 v -58.42 c 0,-11.97 -9.69,-21.67 -21.66,-21.67" /><path
       inkscape:connector-curvature="0"
       id="path314"
       style="fill:#efcbab;fill-opacity:1;fill-rule:nonzero;stroke:none;stroke-width:0.1"
       d="m 1312.72,350.75 h -161.37 c -1.81,0 -3.28,1.47 -3.28,3.27 0,1.8 1.47,3.28 3.28,3.28 h 161.37 c 1.8,0 3.28,-1.48 3.28,-3.28 0,-1.8 -1.48,-3.27 -3.28,-3.27" /><path
       inkscape:connector-curvature="0"
       id="path316"
       style="fill:#efcbab;fill-opacity:1;fill-rule:nonzero;stroke:none;stroke-width:0.1"
       d="m 1179.97,336.61 h -28.62 c -1.81,0 -3.28,1.48 -3.28,3.28 0,1.8 1.47,3.28 3.28,3.28 h 28.62 c 1.8,0 3.27,-1.48 3.27,-3.28 0,-1.8 -1.47,-3.28 -3.27,-3.28" /><path
       inkscape:connector-curvature="0"
       id="path318"
       style="fill:#efcbab;fill-opacity:1;fill-rule:nonzero;stroke:none;stroke-width:0.1"
       d="m 1270.13,336.61 h -78.85 c -1.8,0 -3.28,1.48 -3.28,3.28 0,1.8 1.48,3.28 3.28,3.28 h 78.85 c 1.8,0 3.27,-1.48 3.27,-3.28 0,-1.8 -1.47,-3.28 -3.27,-3.28" /><path
       inkscape:connector-curvature="0"
       id="path320"
       style="fill:#efcbab;fill-opacity:1;fill-rule:nonzero;stroke:none;stroke-width:0.1"
       d="m 1312.72,310.44 h -161.37 c -1.81,0 -3.28,1.48 -3.28,3.28 0,1.8 1.47,3.28 3.28,3.28 h 161.37 c 1.8,0 3.28,-1.48 3.28,-3.28 0,-1.8 -1.48,-3.28 -3.28,-3.28" /><path
       inkscape:connector-curvature="0"
       id="path322"
       style="fill:#efcbab;fill-opacity:1;fill-rule:nonzero;stroke:none;stroke-width:0.1"
       d="m 1209.92,296.31 h -58.57 c -1.81,0 -3.28,1.48 -3.28,3.28 0,1.8 1.47,3.28 3.28,3.28 h 58.57 c 1.8,0 3.27,-1.48 3.27,-3.28 0,-1.8 -1.47,-3.28 -3.27,-3.28" /><path
       inkscape:connector-curvature="0"
       id="path324"
       style="fill:#efcbab;fill-opacity:1;fill-rule:nonzero;stroke:none;stroke-width:0.1"
       d="m 1281.18,296.31 h -58.57 c -1.8,0 -3.27,1.48 -3.27,3.28 0,1.8 1.47,3.28 3.27,3.28 h 58.57 c 1.81,0 3.28,-1.48 3.28,-3.28 0,-1.8 -1.47,-3.28 -3.28,-3.28" /></g></svg>