<?xml version="1.0" encoding="UTF-8" standalone="no"?>
<!-- Created with Inkscape (http://www.inkscape.org/) -->

<svg
   xmlns:dc="http://purl.org/dc/elements/1.1/"
   xmlns:cc="http://creativecommons.org/ns#"
   xmlns:rdf="http://www.w3.org/1999/02/22-rdf-syntax-ns#"
   xmlns:svg="http://www.w3.org/2000/svg"
   xmlns="http://www.w3.org/2000/svg"
   xmlns:sodipodi="http://sodipodi.sourceforge.net/DTD/sodipodi-0.dtd"
   xmlns:inkscape="http://www.inkscape.org/namespaces/inkscape"
   version="1.1"
   id="svg2"
   xml:space="preserve"
   width="4266.6665"
   height="2133.3333"
   viewBox="0 0 4266.6665 2133.3333"
   sodipodi:docname="3.svg"
   inkscape:version="0.92.5 (2060ec1f9f, 2020-04-08)"><metadata
     id="metadata8"><rdf:RDF><cc:Work
         rdf:about=""><dc:format>image/svg+xml</dc:format><dc:type
           rdf:resource="http://purl.org/dc/dcmitype/StillImage" /><dc:title></dc:title></cc:Work></rdf:RDF></metadata><defs
     id="defs6" /><sodipodi:namedview
     pagecolor="#ffffff"
     bordercolor="#666666"
     borderopacity="1"
     objecttolerance="10"
     gridtolerance="10"
     guidetolerance="10"
     inkscape:pageopacity="0"
     inkscape:pageshadow="2"
     inkscape:window-width="1366"
     inkscape:window-height="668"
     id="namedview4"
     showgrid="false"
     inkscape:zoom="0.085312503"
     inkscape:cx="2133.3333"
     inkscape:cy="1066.6666"
     inkscape:window-x="0"
     inkscape:window-y="27"
     inkscape:window-maximized="1"
     inkscape:current-layer="g10" /><g
     id="g10"
     inkscape:groupmode="layer"
     inkscape:label="ink_ext_XXXXXX"
     transform="matrix(1.3333333,0,0,-1.3333333,0,2133.3333)"><g
       transform="scale(0.177226)"
       id="g18"><path
         inkscape:connector-curvature="0"
         id="path20"
         style="fill:#ebf2f9;fill-opacity:1;fill-rule:nonzero;stroke:none"
         d="m 16125.4,818.332 -3513.6,1.071 -2983.61,0.847 -410.94,0.114 -6958.67,2.088 c 0,0 -366.89,907.148 -268.57,1888.088 12.26,122.67 31.81,246.52 60.32,369.87 0.1,0.4 0.15,0.73 0.27,1.07 17.48,75.73 38.33,151.28 62.92,226.27 104.02,317.25 274.92,624.59 541.16,893.27 1614.38,1629.21 3700.58,267.38 4483.42,307.07 782.73,39.74 826.91,1602.98 3165.8,1789.68 1297.3,103.53 2689.9,-138.77 3139.7,-1226.74 177.2,-428.74 208,-988.74 28.9,-1710.64 -104.2,-419.86 -14.8,-676.7 183.9,-843.1 412.8,-345.66 1297.6,-300.97 1900.9,-516.18 449.5,-160.3 742.7,-464.94 568.1,-1182.778" /></g><g
       transform="scale(0.148483)"
       id="g22"><path
         inkscape:connector-curvature="0"
         id="path24"
         style="fill:#f8fbff;fill-opacity:1;fill-rule:nonzero;stroke:none"
         d="M 16300,3004.58 4194.61,1431.88 c -109.84,397.82 -166.28,829.85 -137.9,1290.24 L 16046,6052.66 c 211.4,-511.72 248.3,-1180.13 34.5,-2041.78 -124.4,-501.13 -17.7,-807.7 219.5,-1006.3" /></g><g
       transform="scale(0.102369)"
       id="g26"><path
         inkscape:connector-curvature="0"
         id="path28"
         style="fill:#f8fbff;fill-opacity:1;fill-rule:nonzero;stroke:none"
         d="M 16300,7892.58 3445.19,4692.62 c 21.24,212.36 55.08,426.78 104.43,640.33 0.18,0.68 0.27,1.27 0.47,1.85 30.26,131.1 66.35,261.9 108.93,391.72 L 16300,7892.58" /></g><g
       transform="scale(0.100218)"
       id="g30"><path
         inkscape:connector-curvature="0"
         id="path32"
         style="fill:#c9e0f2;fill-opacity:1;fill-rule:nonzero;stroke:none"
         d="m 16300,1450.54 -12305.9,3.89 c 0,0 -821.24,2030.58 -368.28,3993.01 0.19,0.69 0.28,1.29 0.48,1.89 760.38,35.42 2009.64,-53.98 3324.75,-801.85 2076.84,-1181.03 5486.55,-316.91 6473.45,-979.37 986.8,-662.55 1213.4,-1348.46 1947.3,-1466.41 640.2,-102.77 878.1,-620.54 928.1,-750.96 0.1,-0.1 0.1,-0.1 0.1,-0.2" /></g><g
       transform="scale(0.134965)"
       id="g34"><path
         inkscape:connector-curvature="0"
         id="path36"
         style="fill:#f8fbff;fill-opacity:1;fill-rule:nonzero;stroke:none"
         d="m 15790.2,6987.94 c 0,140.76 114.1,254.86 254.9,254.86 140.8,0 254.9,-114.1 254.9,-254.86 0,-140.76 -114.1,-254.87 -254.9,-254.87 -140.8,0 -254.9,114.11 -254.9,254.87" /></g><g
       transform="scale(0.128121)"
       id="g38"><path
         inkscape:connector-curvature="0"
         id="path40"
         style="fill:#a8d29f;fill-opacity:1;fill-rule:nonzero;stroke:none"
         d="m 15690.6,1901.24 c 266.5,83.6 609.4,219.56 422.9,321.65 -199.7,109.35 -454.4,-122.69 -592.4,-276.22 -7.1,1.17 -14.3,2.34 -21.6,3.35 -35.3,5.08 -71.1,7.42 -107.3,7.58 263.2,421.86 556.7,983.44 306.7,1054.85 -269.3,76.96 -462.3,-605.91 -557.6,-1084.2 -263.3,-57.13 -546.6,-184.9 -841.7,-270.06 -104.2,379.25 -344.2,944.81 -847.2,932.32 -528.2,-13.11 131.2,-626.98 575.5,-994.91 -99.3,-16.08 -199.6,-23.81 -300.7,-19.13 -645.9,30.05 -1050.5,-407.73 -1050.5,-407.73 h 3468.6 c 130.3,206.52 -67,587.25 -454.7,732.5" /></g><path
       inkscape:connector-curvature="0"
       id="path42"
       style="fill:#ffb27d;fill-opacity:1;fill-rule:nonzero;stroke:none;stroke-width:0.1"
       d="m 1257.15,1334.36 c 0,0 -30.98,33.79 -40.55,34.92 -9.57,1.13 -48.99,-17.76 -51.25,-25.21 -2.25,-7.45 43.37,7.45 45.9,0 2.54,-7.45 5.35,-12.52 18.3,-13.09 12.96,-0.56 24.22,-7.88 24.22,-7.88 l 3.38,11.26" /><path
       inkscape:connector-curvature="0"
       id="path44"
       style="fill:#233862;fill-opacity:1;fill-rule:nonzero;stroke:none;stroke-width:0.1"
       d="m 1294.31,149.74 c -9.84,6.01 -4.24,50.82 -4.24,50.82 0,0 45.86,36.69 52.16,8.6 6.31,-28.09 43.57,-40.7 64.78,-44.14 14.65,-2.37 19.18,-10.48 20.58,-15.28 h -133.28" /><path
       inkscape:connector-curvature="0"
       id="path46"
       style="fill:#2b478b;fill-opacity:1;fill-rule:nonzero;stroke:none;stroke-width:0.1"
       d="m 1286.09,178.22 c -11.75,4.44 -77.19,161.52 -74.46,212.53 0.32,6.05 -0.86,55.68 -2.73,65.96 -1.45,8.01 -3.4,17.35 -5.73,27.7 -3.58,15.76 -8.04,33.9 -13.01,53.37 -13.91,54.69 -31.63,119.718 -43.86,171.485 21.94,49.197 50.05,92.258 75.84,106.962 18.4,-2.245 36.14,-5.645 49.28,-8.488 10.47,-6.147 18.29,-11.412 24.1,-15.9 2.04,-10.2 5.02,-27.216 7.43,-49.128 1.55,-14.336 2.85,-30.779 3.46,-48.761 4.37,-127.6 -17.94,-266.25 38.94,-492.56 1.6,-6.31 -41.06,-30.03 -59.26,-23.17" /><path
       inkscape:connector-curvature="0"
       id="path48"
       style="fill:#233862;fill-opacity:1;fill-rule:nonzero;stroke:none;stroke-width:0.1"
       d="m 1302.95,742.711 c -9.48,-47.442 -32.29,-148.831 -112.79,-204.931 -13.91,54.69 -31.63,119.718 -43.86,171.485 21.94,49.197 50.05,92.258 75.84,106.962 18.4,-2.245 36.14,-5.645 49.28,-8.488 10.47,-6.147 18.29,-11.412 24.1,-15.9 2.04,-10.2 5.02,-27.216 7.43,-49.128" /><path
       inkscape:connector-curvature="0"
       id="path50"
       style="fill:#ffb27d;fill-opacity:1;fill-rule:nonzero;stroke:none;stroke-width:0.1"
       d="m 1203.98,1189.04 -0.04,-7.96 c 0,0 2.16,-24.89 -28.48,-28.52 -30.65,-3.65 -53.87,9.7 -53.04,28.91 2.76,14.87 5.79,25.08 6,37.38 0.07,4.58 -0.24,9.43 -1.09,14.91 l 59.38,1.18 17.5,-2.86 -0.23,-43.04" /><path
       inkscape:connector-curvature="0"
       id="path52"
       style="fill:#e8945b;fill-opacity:1;fill-rule:nonzero;stroke:none;stroke-width:0.1"
       d="m 1204.21,1232.08 -0.23,-43.04 c -6.31,-2.94 -13.43,-4.73 -21.41,-4.73 -27.29,0 -44.93,20.02 -54.15,34.54 0.07,4.58 -0.24,9.43 -1.09,14.91 l 59.38,1.18 17.5,-2.86" /><path
       inkscape:connector-curvature="0"
       id="path54"
       style="fill:#ffb27d;fill-opacity:1;fill-rule:nonzero;stroke:none;stroke-width:0.1"
       d="m 1207.67,1211.17 c 0,0 -76.05,-15.37 -84.89,32.14 -8.84,47.51 -24.61,77.53 23.57,89.35 48.19,11.82 61.03,-4.55 67.83,-19.69 6.81,-15.14 13.05,-96.58 -6.51,-101.8" /><path
       inkscape:connector-curvature="0"
       id="path56"
       style="fill:#233862;fill-opacity:1;fill-rule:nonzero;stroke:none;stroke-width:0.1"
       d="m 1152.91,149.74 c 0,0 -4.15,22.74 -10.74,35.91 -6.58,13.16 -48.46,4.78 -48.46,4.78 0,0 -8.38,-7.18 -10.18,-40.69 h 69.38" /><path
       inkscape:connector-curvature="0"
       id="path58"
       style="fill:#2b478b;fill-opacity:1;fill-rule:nonzero;stroke:none;stroke-width:0.1"
       d="m 1234.99,791.082 c 0,0 -41.69,-185.754 -55.06,-269.602 -5,-31.37 -15.42,-131.88 -17.04,-163.6 -2.24,-43.54 -16.59,-176.79 -16.59,-176.79 0,0 -24.22,15.3 -60.15,1.02 0,0 -9.07,59.73 -14.85,184.83 -1.69,36.68 5.4,91.76 4.54,109.65 -4.23,87.98 -32.34,315.447 -9.99,330.045 22.34,14.597 169.14,-15.553 169.14,-15.553" /><path
       inkscape:connector-curvature="0"
       id="path60"
       style="fill:#233862;fill-opacity:1;fill-rule:nonzero;stroke:none;stroke-width:0.1"
       d="m 1228.97,1348.26 c 0,0 -21.21,1.64 -46.22,12.51 -20.31,8.83 -45.92,-0.89 -54.24,-5.27 0.22,1.34 0.76,3.17 2.03,5 0,0 -3.73,-2.65 -4.29,-6.35 -0.38,-0.28 -0.55,-0.48 -0.45,-0.54 0,0 -4.23,0.77 -6.95,-0.45 0,0 1.9,0.27 2.58,-0.95 0.07,-0.13 0.18,-0.24 0.3,-0.34 -31.67,-15.3 -34.59,-65.36 -24.4,-76.94 12.26,-13.94 26.96,-45.31 26.96,-45.31 0,0 5.37,7.41 3.14,19.67 -2.23,12.26 8.36,12.26 21.74,17.84 13.37,5.57 2.23,21.18 13.93,30.65 11.71,9.48 54.62,3.91 54.07,11.15 15.93,5.8 11.8,37.7 11.8,39.33" /><path
       inkscape:connector-curvature="0"
       id="path62"
       style="fill:#ee9849;fill-opacity:1;fill-rule:nonzero;stroke:none;stroke-width:0.1"
       d="m 1249.27,1350.8 c 0,0 -6.4,-2.6 -10.25,-11.66 -4.92,-11.59 -0.91,-17.91 -0.91,-17.91 0,0 80.49,-73 75.25,-86.29 -2.73,-6.94 -65.09,-43.51 -91,-58.47 -10.66,0.89 -18.9,0.82 -19.17,0.82 l -0.01,-0.02 c 0,0 -17.63,-53.71 -80.75,4.19 -11.09,-16.13 -97.04,-55.74 -82.11,-124.1 3.51,-16.06 6.54,-31.21 9.15,-45.51 17.74,-96.854 16.35,-153.994 12.89,-185.508 -2.69,-24.592 -12.89,-27.067 -3.76,-33.61 0,0 17.75,-7.957 50.96,-14.838 24.69,-5.115 57.91,-9.658 98.73,-9.915 64.94,-0.409 89.51,21.965 89.51,21.965 17.2,16.812 -16.81,82.968 -14.09,130.723 1.4,24.499 -0.13,108.373 -0.38,146.913 0.01,0 0.02,0.01 0.03,0.02 0.01,0.02 0.03,0.03 0.05,0.06 3.12,3.41 98.11,107.93 116.81,167.26 0,0.01 0.02,0.01 0.02,0.02 0.93,3 1.68,5.87 2.21,8.61 5.68,29.2 -153.18,107.25 -153.18,107.25" /><path
       inkscape:connector-curvature="0"
       id="path64"
       style="fill:#e58638;fill-opacity:1;fill-rule:nonzero;stroke:none;stroke-width:0.1"
       d="m 1062.36,826.342 c 3.46,31.514 4.85,88.654 -12.89,185.508 1.21,3.86 2.42,7.56 3.61,11.09 5.38,15.97 28.23,15.17 32.45,-1.14 13.11,-50.68 24.91,-136.829 -23.17,-195.458" /><path
       inkscape:connector-curvature="0"
       id="path66"
       style="fill:#ffb27d;fill-opacity:1;fill-rule:nonzero;stroke:none;stroke-width:0.1"
       d="m 1042.97,879.295 c 0,0 39.48,23.866 51.72,20.84 12.23,-3.025 38.78,-14.563 37.13,-21.617 -1.64,-7.055 -32.48,-11.868 -37.84,-11.038 -5.37,0.83 -14.03,-0.144 -17.55,-3.176 -3.51,-3.033 -31.49,-4.165 -34.9,4.025 -3.42,8.19 1.44,10.966 1.44,10.966" /><path
       inkscape:connector-curvature="0"
       id="path68"
       style="fill:#ee9849;fill-opacity:1;fill-rule:nonzero;stroke:none;stroke-width:0.1"
       d="m 1122.42,1181.47 c 0,0 -48.4,-3.51 -74.69,-18.92 -17.02,-9.98 -115.615,-167.075 -115.615,-190.196 0,-23.124 103.535,-105.148 103.535,-105.148 0,0 19.22,-6.384 19.9,24.219 0,0 -51.65,76.346 -48.93,85.188 1.71,5.554 77.83,66.617 77.83,66.617 l 37.97,138.24" /><path
       inkscape:connector-curvature="0"
       id="path70"
       style="fill:#e58638;fill-opacity:1;fill-rule:nonzero;stroke:none;stroke-width:0.1"
       d="m 1400.22,1234.92 c -18.7,-59.33 -113.69,-163.85 -116.81,-167.26 -0.02,-0.03 -0.04,-0.04 -0.05,-0.06 -0.01,-0.01 -0.03,-0.02 -0.03,-0.02 0,0 0,0.01 -0.01,0.02 -0.27,1.05 -8.11,30.95 10.59,52.33 19.05,21.76 84.75,76.3 106.31,114.99" /><path
       inkscape:connector-curvature="0"
       id="path72"
       style="fill:#e58638;fill-opacity:1;fill-rule:nonzero;stroke:none;stroke-width:0.1"
       d="m 1104.17,1172.52 c -0.2,4.19 19.66,9.99 19.66,9.99 0,0 22.74,-31.52 60.19,-32.07 0,0 -10.67,-20.77 -23.25,-26.15 0,0 -55.36,23.33 -56.6,48.23" /><path
       inkscape:connector-curvature="0"
       id="path74"
       style="fill:#e58638;fill-opacity:1;fill-rule:nonzero;stroke:none;stroke-width:0.1"
       d="m 1184.02,1151.18 c 0,0 19.85,11.76 19.92,24.51 0,0 12.81,1.61 18.41,-4.61 0,0 4.7,-21.85 -1.54,-34.55 0,0 -28.57,4.36 -36.79,14.65" /><path
       inkscape:connector-curvature="0"
       id="path76"
       style="fill:#c65447;fill-opacity:1;fill-rule:nonzero;stroke:none;stroke-width:0.1"
       d="m 1253.01,855.068 c -0.38,-10.297 -4.58,-20.089 -11.79,-27.462 l -11.33,-11.587 c -2.84,-2.912 -7.56,-2.775 -10.24,0.285 l -15.72,17.954 c -4.22,4.814 -6.41,11.072 -6.14,17.464 0.64,14.241 1.79,41.674 2.46,68.13 0.56,21.435 0.82,42.246 0.26,54.868 -1.78,40.3 -16.48,168.34 -16.48,168.34 h 9.68 c 0,0 26.59,-48.61 42.7,-115.8 3.97,-16.54 7.29,-34.192 9.44,-52.54 0,0 8.86,-73.108 7.16,-119.652" /><path
       inkscape:connector-curvature="0"
       id="path78"
       style="fill:#ba4c43;fill-opacity:1;fill-rule:nonzero;stroke:none;stroke-width:0.1"
       d="m 1170.55,1153.07 26.91,6.45 c 0,0 3.52,-0.31 3.42,-4.69 -0.1,-4.38 -7.58,-17.19 -10.89,-18.21 -3.32,-1.03 -25.8,7.58 -19.44,16.45" /><path
       inkscape:connector-curvature="0"
       id="path80"
       style="fill:#ee9849;fill-opacity:1;fill-rule:nonzero;stroke:none;stroke-width:0.1"
       d="m 1104.17,1178.64 c -0.2,4.2 19.66,9.99 19.66,9.99 0,0 22.74,-31.52 60.19,-32.07 0,0 -10.67,-20.77 -23.25,-26.15 0,0 -55.36,23.33 -56.6,48.23" /><path
       inkscape:connector-curvature="0"
       id="path82"
       style="fill:#ee9849;fill-opacity:1;fill-rule:nonzero;stroke:none;stroke-width:0.1"
       d="m 1184.02,1156.56 c 0,0 19.85,11.77 19.92,24.52 0,0 12.81,1.6 18.41,-4.61 0,0 4.7,-21.86 -1.54,-34.55 0,0 -28.57,4.35 -36.79,14.64" /><path
       inkscape:connector-curvature="0"
       id="path84"
       style="fill:#ba4c43;fill-opacity:1;fill-rule:nonzero;stroke:none;stroke-width:0.1"
       d="m 1253.01,855.068 c -0.38,-10.297 -4.58,-20.089 -11.79,-27.462 l -11.33,-11.587 c -2.84,-2.912 -7.56,-2.775 -10.24,0.285 l -15.72,17.954 c -4.22,4.814 -6.41,11.072 -6.14,17.464 0.64,14.241 1.79,41.674 2.46,68.13 25.13,31.377 33.78,73.379 36.16,107.408 3.97,-16.54 7.29,-34.192 9.44,-52.54 0,0 8.86,-73.108 7.16,-119.652" /><path
       inkscape:connector-curvature="0"
       id="path86"
       style="fill:#233862;fill-opacity:1;fill-rule:nonzero;stroke:none;stroke-width:0.1"
       d="M 1010.95,149.74 H 846.37 c -8.976,0 -16.321,7.35 -16.321,16.33 v 110.57 c 0,8.98 7.345,16.32 16.321,16.32 h 164.58 c 8.97,0 16.32,-7.34 16.32,-16.32 V 166.07 c 0,-8.98 -7.35,-16.33 -16.32,-16.33" /><path
       inkscape:connector-curvature="0"
       id="path88"
       style="fill:#2b478b;fill-opacity:1;fill-rule:nonzero;stroke:none;stroke-width:0.1"
       d="M 1012.31,276.64 V 166.06 c 0,-8.98 -7.35,-16.32 -16.324,-16.32 H 831.409 c -8.976,0 -16.321,7.34 -16.321,16.32 v 110.58 c 0,8.98 7.345,16.32 16.321,16.32 h 164.577 c 8.974,0 16.324,-7.34 16.324,-16.32" /><path
       inkscape:connector-curvature="0"
       id="path90"
       style="fill:#233862;fill-opacity:1;fill-rule:nonzero;stroke:none;stroke-width:0.1"
       d="m 877.739,292.96 c 10.529,12.44 24.241,17.34 33.013,17.34 21.46,0 33.439,-16.69 33.889,-17.34 l -5.228,-0.35 c -0.384,0.55 -8.874,11.23 -27.415,11.23 -7.62,0 -18.8,-0.03 -27.98,-10.88 -0.594,-0.7 -6.407,-0.15 -6.279,0" /><path
       inkscape:connector-curvature="0"
       id="path92"
       style="fill:#233862;fill-opacity:1;fill-rule:nonzero;stroke:none;stroke-width:0.1"
       d="m 1012.31,272.11 v -32.14 c 0,-8.98 -7.35,-16.33 -16.324,-16.33 H 831.409 c -8.976,0 -16.321,7.35 -16.321,16.33 v 32.14 c 0,8.97 7.345,16.32 16.321,16.32 h 164.577 c 8.974,0 16.324,-7.35 16.324,-16.32" /><path
       inkscape:connector-curvature="0"
       id="path94"
       style="fill:#2b478b;fill-opacity:1;fill-rule:nonzero;stroke:none;stroke-width:0.1"
       d="M 1012.31,276.64 V 244.5 c 0,-8.98 -7.35,-16.32 -16.324,-16.32 H 831.409 c -8.976,0 -16.321,7.34 -16.321,16.32 v 32.14 c 0,8.98 7.345,16.32 16.321,16.32 h 164.577 c 8.974,0 16.324,-7.34 16.324,-16.32" /><path
       inkscape:connector-curvature="0"
       id="path96"
       style="fill:#233862;fill-opacity:1;fill-rule:nonzero;stroke:none;stroke-width:0.1"
       d="m 905.764,240.82 c 0,2.76 2.233,4.99 4.987,4.99 2.755,0 4.987,-2.23 4.987,-4.99 0,-2.75 -2.232,-4.98 -4.987,-4.98 -2.754,0 -4.987,2.23 -4.987,4.98" /><g
       transform="scale(0.177226)"
       id="g98"><path
         inkscape:connector-curvature="0"
         id="path100"
         style="fill:#a8d29f;fill-opacity:1;fill-rule:nonzero;stroke:none"
         d="m 16125.4,818.332 -3513.6,1.071 -4.6,0.847 c 0,0 309.4,426.29 912.2,424.77 602.6,-1.53 595.1,311.18 1384.5,505.91 233.7,57.6 456.1,149.41 653.4,250.18 449.5,-160.3 742.7,-464.94 568.1,-1182.778" /></g><g
       transform="scale(0.117993)"
       id="g102"><path
         inkscape:connector-curvature="0"
         id="path104"
         style="fill:#f1a34f;fill-opacity:1;fill-rule:nonzero;stroke:none"
         d="M 16300,8851.3 V 1391.1 c 0,-67.13 -51.2,-122.04 -113.7,-122.04 h -113.9 c -31.1,0 -59.5,13.64 -80,35.68 -20.8,22.12 -33.7,52.8 -33.7,86.36 v 7460.2 c 0,43.83 21.8,82.42 54.3,103.86 17.3,11.55 37.7,18.19 59.4,18.19 h 113.9 c 62.5,0 113.7,-54.86 113.7,-122.05" /></g><g
       transform="scale(0.116158)"
       id="g106"><path
         inkscape:connector-curvature="0"
         id="path108"
         style="fill:#e58638;fill-opacity:1;fill-rule:nonzero;stroke:none"
         d="M 16300,9008.9 V 1430.89 c 0,-44.5 -22,-83.76 -55,-105.54 -21.1,22.47 -34.2,53.63 -34.2,87.72 v 7578.06 c 0,44.52 22.1,83.72 55.2,105.49 20.9,-22.39 34,-53.5 34,-87.72" /></g><g
       transform="scale(0.116531)"
       id="g110"><path
         inkscape:connector-curvature="0"
         id="path112"
         style="fill:#f1a34f;fill-opacity:1;fill-rule:nonzero;stroke:none"
         d="m 14928.6,6014.48 -637.5,-429.71 578.1,-506.88 1430.8,90.25 v 577.98 l -1371.4,268.36" /></g><g
       transform="scale(0.116129)"
       id="g114"><path
         inkscape:connector-curvature="0"
         id="path116"
         style="fill:#ce8032;fill-opacity:1;fill-rule:nonzero;stroke:none"
         d="m 16260.5,5686.76 c -6.6,-17.67 -4.5,-42.29 4.6,-54.98 9.2,-12.7 21.8,-8.66 28.4,9.01 6.5,17.68 4.4,42.31 -4.7,54.99 -9.1,12.69 -21.8,8.66 -28.3,-9.02" /></g><g
       transform="scale(0.116129)"
       id="g118"><path
         inkscape:connector-curvature="0"
         id="path120"
         style="fill:#ce8032;fill-opacity:1;fill-rule:nonzero;stroke:none"
         d="m 16260.5,5343.82 c -6.6,-17.69 -4.5,-42.3 4.6,-54.99 9.2,-12.69 21.8,-8.64 28.4,9.02 6.5,17.68 4.4,42.29 -4.7,55 -9.1,12.69 -21.8,8.64 -28.3,-9.03" /></g><g
       transform="scale(0.140197)"
       id="g122"><path
         inkscape:connector-curvature="0"
         id="path124"
         style="fill:#f1a34f;fill-opacity:1;fill-rule:nonzero;stroke:none"
         d="m 15471.9,5969.72 828.1,-356.52 -796.3,-422.86 -1905.5,66.19 v 594.8 l 1873.7,118.39" /></g><g
       transform="scale(0.141231)"
       id="g126"><path
         inkscape:connector-curvature="0"
         id="path128"
         style="fill:#e89746;fill-opacity:1;fill-rule:nonzero;stroke:none"
         d="m 15358.6,5926 h 119.4 l 822,-353.91 h -119.4 l -822,353.91" /></g><g
       transform="scale(0.141231)"
       id="g130"><path
         inkscape:connector-curvature="0"
         id="path132"
         style="fill:#ce8032;fill-opacity:1;fill-rule:nonzero;stroke:none"
         d="m 15390.1,5152.33 h 63.7 l 846.2,419.76 h -119.4 l -790.5,-419.76" /></g><g
       transform="scale(0.118091)"
       id="g134"><path
         inkscape:connector-curvature="0"
         id="path136"
         style="fill:#ce8032;fill-opacity:1;fill-rule:nonzero;stroke:none"
         d="m 16291.7,6840.69 c 8.3,-22.3 5.7,-53.36 -5.8,-69.37 -11.6,-16.01 -27.6,-10.91 -35.8,11.38 -8.3,22.3 -5.7,53.36 5.9,69.38 11.5,16.02 27.5,10.91 35.7,-11.39" /></g><g
       transform="scale(0.118091)"
       id="g138"><path
         inkscape:connector-curvature="0"
         id="path140"
         style="fill:#ce8032;fill-opacity:1;fill-rule:nonzero;stroke:none"
         d="m 16291.7,6408.05 c 8.3,-22.3 5.7,-53.36 -5.8,-69.38 -11.6,-16.02 -27.6,-10.91 -35.8,11.39 -8.3,22.3 -5.7,53.36 5.9,69.36 11.5,16.03 27.5,10.93 35.7,-11.37" /></g><g
       transform="scale(0.116958)"
       id="g142"><path
         inkscape:connector-curvature="0"
         id="path144"
         style="fill:#f1a34f;fill-opacity:1;fill-rule:nonzero;stroke:none"
         d="m 14054,8392.19 -992.6,-427.37 954.4,-506.88 2284.2,79.36 v 712.97 l -2246,141.92" /></g><g
       transform="scale(0.100842)"
       id="g146"><path
         inkscape:connector-curvature="0"
         id="path148"
         style="fill:#e89746;fill-opacity:1;fill-rule:nonzero;stroke:none"
         d="m 16300,9733.37 h -167.2 l -1151.2,-495.66 h 167.2 l 1151.2,495.66" /></g><g
       transform="scale(0.100569)"
       id="g150"><path
         inkscape:connector-curvature="0"
         id="path152"
         style="fill:#ce8032;fill-opacity:1;fill-rule:nonzero;stroke:none"
         d="m 16300,8673.35 h -89.4 l -1188.2,589.49 h 167.6 l 1110,-589.49" /></g><g
       transform="scale(0.116247)"
       id="g154"><path
         inkscape:connector-curvature="0"
         id="path156"
         style="fill:#ce8032;fill-opacity:1;fill-rule:nonzero;stroke:none"
         d="m 16249.3,8193.07 c -8.3,-22.65 -5.6,-54.21 6.1,-70.48 11.6,-16.27 27.8,-11.08 36.3,11.56 8.3,22.66 5.7,54.22 -6,70.48 -11.7,16.27 -27.9,11.09 -36.4,-11.56" /></g><g
       transform="scale(0.116247)"
       id="g158"><path
         inkscape:connector-curvature="0"
         id="path160"
         style="fill:#ce8032;fill-opacity:1;fill-rule:nonzero;stroke:none"
         d="m 16249.3,7753.56 c -8.3,-22.66 -5.6,-54.21 6.1,-70.47 11.6,-16.28 27.8,-11.09 36.3,11.55 8.3,22.66 5.7,54.22 -6,70.48 -11.7,16.26 -27.9,11.09 -36.4,-11.56" /></g><g
       transform="scale(0.106726)"
       id="g162"><path
         inkscape:connector-curvature="0"
         id="path164"
         style="fill:#e89746;fill-opacity:1;fill-rule:nonzero;stroke:none"
         d="m 16300,6567 h -90.1 l -739.3,-473.34 h 133.3 L 16300,6567" /></g><g
       transform="scale(0.106302)"
       id="g166"><path
         inkscape:connector-curvature="0"
         id="path168"
         style="fill:#ce8032;fill-opacity:1;fill-rule:nonzero;stroke:none"
         d="m 16300,5566.51 h -121.9 l -645.7,551.48 h 133.8 l 633.8,-551.48" /></g><g
       transform="scale(0.119827)"
       id="g170"><path
         inkscape:connector-curvature="0"
         id="path172"
         style="fill:#f1a34f;fill-opacity:1;fill-rule:nonzero;stroke:none"
         d="m 16300,2078.66 v -829.02 h -835 v 832.28 c 0,154.47 117.2,281.4 267.5,296.93 10.2,1 20.5,1.58 31,1.58 h 234.8 c 166.7,0 301.7,-135.11 301.7,-301.77" /></g><g
       transform="scale(0.117643)"
       id="g174"><path
         inkscape:connector-curvature="0"
         id="path176"
         style="fill:#e58638;fill-opacity:1;fill-rule:nonzero;stroke:none"
         d="m 16300,2117.25 v -844.41 h -547.9 v 847.73 c 0,157.34 119.4,286.63 272.5,302.44 154.8,-15.98 275.4,-146.8 275.4,-305.76" /></g><g
       transform="scale(0.117194)"
       id="g178"><path
         inkscape:connector-curvature="0"
         id="path180"
         style="fill:#e58638;fill-opacity:1;fill-rule:nonzero;stroke:none"
         d="m 16278.9,9272.83 v 29.57 h -75.4 l 0.1,-0.48 c -20.6,-1.97 -38.4,-10.25 -53.4,-24.9 -17.4,-16.93 -26.1,-37.77 -26.1,-62.53 0,-23.96 8.9,-44.59 26.7,-61.92 17.7,-17.33 38.5,-26 62.5,-26 h 65.6 v 29.56 c 14,16.14 21.1,35.57 21.1,58.36 0,22.78 -7.1,42.2 -21.1,58.34" /></g><g
       transform="scale(0.11869)"
       id="g182"><path
         inkscape:connector-curvature="0"
         id="path184"
         style="fill:#e58638;fill-opacity:1;fill-rule:nonzero;stroke:none"
         d="m 16216.8,9867.45 c -53,44.81 -118.9,67.24 -198,67.24 -50.6,0 -98.6,-11.62 -144.3,-34.84 -45.6,-23.23 -81.1,-56.06 -106.4,-98.42 -15.5,-26.11 -23.2,-52.18 -23.2,-78.26 0,-20.39 6.3,-37.3 18.9,-50.75 12.7,-13.45 28.8,-20.17 48.4,-20.17 h 64.8 c 0,0 -0.8,24.31 -0.9,40.95 l 44.8,60.53 c 23.7,23.63 55.1,35.46 94.2,35.46 33.4,0 61.4,-9.17 83.8,-27.51 22.4,-18.34 33.6,-44.23 33.6,-77.64 0,-38.32 -11.8,-68.07 -35.5,-89.25 -17.1,-15.5 -46.5,-29.78 -88,-42.8 -31,-9.79 -51.6,-19.77 -61.8,-29.96 -10.2,-10.2 -15.2,-25.49 -15.2,-45.86 v -122.26 c 0,-24.46 6.5,-44.83 19.5,-61.14 13.1,-16.31 31.4,-24.45 55,-24.45 h 64.8 v 37.04 c 3,5.8 5.5,12.05 7.4,19.2 3.3,13.02 4.9,46.46 4.9,100.27 66.9,13.04 119.6,41.76 158.4,86.19 38.6,44.43 58,100.45 58,168.13 0,77.43 -27.7,140.19 -83.2,188.3" /></g><g
       transform="scale(0.119162)"
       id="g186"><path
         inkscape:connector-curvature="0"
         id="path188"
         style="fill:#f1a34f;fill-opacity:1;fill-rule:nonzero;stroke:none"
         d="m 16095.4,9062.34 c 0,-24.36 -8.1,-44.86 -24.3,-61.5 -16.3,-16.63 -36.5,-24.96 -61,-24.96 -23.5,0 -44,8.52 -61.4,25.57 -17.5,17.05 -26.3,37.32 -26.3,60.89 0,24.36 8.6,44.85 25.6,61.49 17.1,16.64 37.8,24.98 62.1,24.98 24.5,0 44.7,-8.34 61,-24.98 16.2,-16.64 24.3,-37.13 24.3,-61.49 z m 204.6,578.49 c 0,-67.41 -19.3,-123.21 -57.8,-167.46 -38.6,-44.26 -91.2,-72.87 -157.7,-85.85 0,-53.6 -1.7,-86.91 -4.9,-99.88 -9.7,-37.35 -33.7,-56.01 -71.9,-56.01 -23.5,0 -41.8,8.1 -54.8,24.35 -13,16.24 -19.5,36.53 -19.5,60.89 v 121.79 c 0,20.28 5.1,35.51 15.3,45.67 10.1,10.15 30.6,20.09 61.4,29.84 41.5,12.97 70.7,27.19 87.7,42.63 23.6,21.1 35.4,50.73 35.4,88.89 0,33.29 -11.2,59.07 -33.5,77.34 -22.3,18.27 -50.2,27.41 -83.4,27.41 -39,0 -70.3,-11.79 -93.9,-35.33 l -48.6,-65.76 c -17.1,-23.56 -37,-35.32 -59.7,-35.32 -19.5,0 -35.5,6.7 -48.1,20.09 -12.6,13.4 -18.9,30.25 -18.9,50.55 0,25.98 7.8,51.94 23.1,77.95 25.2,42.19 60.5,74.9 106,98.04 45.5,23.12 93.3,34.69 143.8,34.69 78.7,0 144.5,-22.34 197.2,-66.97 55.2,-47.92 82.8,-110.43 82.8,-187.55" /></g><path
       inkscape:connector-curvature="0"
       id="path190"
       style="fill:#82b378;fill-opacity:1;fill-rule:nonzero;stroke:none;stroke-width:0.1"
       d="m 252.789,149.13 468.162,-3.06 c 0,0 -43.289,87.03 -150.709,68.41 -67.797,-11.75 -90.253,5.97 -118.149,23.35 51.649,19.55 128.163,51.84 92.546,59.65 -33.988,7.46 -80.322,-25.65 -108.848,-50.25 -5.968,3.06 -12.471,5.92 -19.835,8.37 61.058,57.03 175.971,170.73 125.212,173.98 -49.8,3.17 -112.824,-109.32 -142.811,-169.35 -3.453,0.69 -7.076,1.29 -10.891,1.79 -15.536,2.06 -30.028,-0.76 -43.316,-6.64 -6.616,24.91 -18.842,53.4 -35.09,47.59 -16.401,-5.85 2.142,-34.72 19.163,-56.41 -47.155,-31.34 -75.434,-97.43 -75.434,-97.43" /></g></svg>