<?xml version="1.0" encoding="UTF-8" standalone="no"?>
<!-- Created with Inkscape (http://www.inkscape.org/) -->

<svg
   xmlns:dc="http://purl.org/dc/elements/1.1/"
   xmlns:cc="http://creativecommons.org/ns#"
   xmlns:rdf="http://www.w3.org/1999/02/22-rdf-syntax-ns#"
   xmlns:svg="http://www.w3.org/2000/svg"
   xmlns="http://www.w3.org/2000/svg"
   xmlns:sodipodi="http://sodipodi.sourceforge.net/DTD/sodipodi-0.dtd"
   xmlns:inkscape="http://www.inkscape.org/namespaces/inkscape"
   version="1.1"
   id="svg2"
   xml:space="preserve"
   width="3966.6667"
   height="2266.6667"
   viewBox="0 0 3966.6667 2266.6667"
   sodipodi:docname="7.svg"
   inkscape:version="0.92.5 (2060ec1f9f, 2020-04-08)"><metadata
     id="metadata8"><rdf:RDF><cc:Work
         rdf:about=""><dc:format>image/svg+xml</dc:format><dc:type
           rdf:resource="http://purl.org/dc/dcmitype/StillImage" /><dc:title></dc:title></cc:Work></rdf:RDF></metadata><defs
     id="defs6" /><sodipodi:namedview
     pagecolor="#ffffff"
     bordercolor="#666666"
     borderopacity="1"
     objecttolerance="10"
     gridtolerance="10"
     guidetolerance="10"
     inkscape:pageopacity="0"
     inkscape:pageshadow="2"
     inkscape:window-width="1366"
     inkscape:window-height="668"
     id="namedview4"
     showgrid="false"
     inkscape:zoom="0.091764704"
     inkscape:cx="1983.3334"
     inkscape:cy="1133.3334"
     inkscape:window-x="0"
     inkscape:window-y="27"
     inkscape:window-maximized="1"
     inkscape:current-layer="g10" /><g
     id="g10"
     inkscape:groupmode="layer"
     inkscape:label="ink_ext_XXXXXX"
     transform="matrix(1.3333333,0,0,-1.3333333,0,2266.6667)"><g
       transform="scale(0.169157)"
       id="g18"><path
         inkscape:connector-curvature="0"
         id="path20"
         style="fill:#fbecdb;fill-opacity:1;fill-rule:nonzero;stroke:none"
         d="m 1936.47,990.442 c 0,0 -1671.159,3558.758 1622.51,3558.758 1740.26,0 1023.36,976.42 2206.51,2106.44 C 6948.63,7785.65 11086.4,8688.47 11967,6506.38 12847.7,4324.28 10671.3,2667.52 12774.3,2951.75 15301.6,3293.27 16300,990.442 16300,990.442 H 1936.47" /></g><g
       transform="scale(0.164369)"
       id="g22"><path
         inkscape:connector-curvature="0"
         id="path24"
         style="fill:#a8d29f;fill-opacity:1;fill-rule:nonzero;stroke:none"
         d="m 15921.9,1483.97 c -160.4,117.3 -488.4,38.09 -730.4,-46.6 -36.2,50.8 -80,103.18 -133.1,154.35 521.4,335.89 1241.6,1052.2 859.9,1112.86 -331.8,52.69 -779.6,-592.08 -1018.9,-984.55 -248.6,167.18 -629.3,290.08 -1210.7,247.43 -1508.9,-110.6 -2687.6,862.69 -3556.5,538.06 -690.84,-258.08 -1323.99,-402.69 -1934.56,-353.29 26.28,446.07 32,1321.84 -318.25,1412.67 -355.6,92.23 -6.81,-902.36 187.02,-1398.98 -45.45,5.84 -90.84,12.77 -136.1,20.86 -125.57,247.49 -332.42,571.4 -559.53,582.47 -213.91,10.47 50.07,-280.77 309.85,-527.47 -746.67,156.78 -1632.41,-450.2 -1647.1,-1167.86 h 9321.97 c 0,0 -16.4,104.77 -89.6,242.87 360.3,7.06 830.4,39.79 656,167.18" /></g><path
       inkscape:connector-curvature="0"
       id="path26"
       style="fill:#4a75cb;fill-opacity:1;fill-rule:nonzero;stroke:none;stroke-width:0.1"
       d="M 922.119,267.69 V 176.5 h 403.841 v 91.19 H 922.119" /><path
       inkscape:connector-curvature="0"
       id="path28"
       style="fill:#699dee;fill-opacity:1;fill-rule:nonzero;stroke:none;stroke-width:0.1"
       d="M 797.599,267.69 V 176.5 h 403.841 v 91.19 H 797.599" /><g
       transform="scale(0.109542)"
       id="g30"><path
         inkscape:connector-curvature="0"
         id="path32"
         style="fill:#d86713;fill-opacity:1;fill-rule:nonzero;stroke:none"
         d="M 13554.9,1611.43 H 16300 V 5448.4 H 13554.9 V 1611.43" /></g><g
       transform="scale(0.103854)"
       id="g34"><path
         inkscape:connector-curvature="0"
         id="path36"
         style="fill:#f1a34f;fill-opacity:1;fill-rule:nonzero;stroke:none"
         d="M 13404.6,1699.69 H 16300 V 5746.82 H 13404.6 V 1699.69" /></g><g
       transform="scale(0.109542)"
       id="g38"><path
         inkscape:connector-curvature="0"
         id="path40"
         style="fill:#c95c12;fill-opacity:1;fill-rule:nonzero;stroke:none"
         d="m 15453.6,5448.4 846.4,-576.13 v 576.13 h -846.4" /></g><path
       inkscape:connector-curvature="0"
       id="path42"
       style="fill:#82b378;fill-opacity:1;fill-rule:nonzero;stroke:none;stroke-width:0.1"
       d="m 764.562,503.73 c 0,0 -56.237,-41.82 -67.202,-39.28 -10.965,2.53 41.099,45.14 41.099,45.14 -19.592,9.42 -80.494,3.51 -80.494,3.51 0,0 -20.285,-65.42 -30.29,-60.26 -10.002,5.16 20.918,57.01 20.918,57.01 -21.821,1.32 -48.584,-14.89 -48.584,-14.89 -36.638,-28.93 2.408,-74.49 2.408,-74.49 0,0 -7.52,-22.51 -30.657,-43.02 0,0 -33.045,-24.44 -35.34,-68.11 l 5.997,-0.53 c 0,0 9.509,40.67 26.786,59.9 0.672,0.7 1.649,1.7 2.854,2.91 2.815,2.61 4.787,4.57 6.112,6.02 8.599,8.27 20.483,18.79 26.208,19.81 0,0 -0.287,1.05 -0.244,2.88 0.078,-0.92 0.159,-1.87 0.244,-2.88 1.961,-23.02 46.628,-43.13 74.105,-47.26 27.48,-4.14 18.985,7.16 9.517,23.9 -9.468,16.75 -39.431,24.25 -46.267,31.96 -6.836,7.71 7.297,7.73 23.855,0.17 16.555,-7.56 18.822,-27.73 45.382,-40.45 26.558,-12.71 66.521,31.36 66.521,31.36 -21.166,1.07 -51.392,24.06 -50.3,31.09 1.095,7.04 51.31,-12.13 59.894,-13.05 8.584,-0.92 28.116,9.76 31.138,44.33 3.022,34.58 -53.66,44.23 -53.66,44.23" /><path
       inkscape:connector-curvature="0"
       id="path44"
       style="fill:#a8d29f;fill-opacity:1;fill-rule:nonzero;stroke:none;stroke-width:0.1"
       d="m 465.896,477.76 c 0,0 62.114,34.79 33.127,81.99 0,0 -23.188,28.99 -48.033,36.44 0,0 13.25,-70.39 0,-72.05 -13.252,-1.66 -9.11,79.51 -9.11,79.51 0,0 -65.426,31.47 -91.1,28.98 0,0 40.581,-68.74 27.33,-67.08 -13.251,1.66 -58.799,71.22 -58.799,71.22 0,0 -67.083,12.43 -77.849,-27.33 -10.766,-39.75 6.625,-59.63 16.563,-62.11 9.938,-2.49 73.707,-1.66 72.051,-9.94 -1.656,-8.28 -44.721,-21.53 -68.738,-14.08 0,0 26.502,-65.42 61.285,-62.11 34.783,3.31 45.55,24.84 67.082,26.5 21.532,1.66 37.268,-4.14 26.501,-9.94 -10.766,-5.79 -47.206,-1.9 -64.597,-16.68 -17.392,-14.79 -31.47,-23.9 0.829,-30.52 32.298,-6.63 90.27,-2.49 101.864,22.36 11.594,24.84 11.594,24.84 11.594,24.84" /><path
       inkscape:connector-curvature="0"
       id="path46"
       style="fill:#82b378;fill-opacity:1;fill-rule:nonzero;stroke:none;stroke-width:0.1"
       d="m 482.46,417.31 c -17.392,32.3 -16.564,60.45 -16.564,60.45 -19.875,62.95 -193.792,119.26 -193.792,119.26 221.122,-89.44 182.198,-144.1 182.198,-144.1 5.959,-3.48 14.894,-20.05 21.095,-32.77 0.882,-2.16 2.282,-5.16 4.359,-9.23 v 0 c 0.842,-1.83 1.515,-3.34 1.98,-4.39 11.385,-28.48 5.354,-77.68 5.354,-77.68 l 6.9,-1.85 c 15.291,49.58 -11.53,90.31 -11.53,90.31" /><path
       inkscape:connector-curvature="0"
       id="path48"
       style="fill:#a8d29f;fill-opacity:1;fill-rule:nonzero;stroke:none;stroke-width:0.1"
       d="m 564.714,525.73 c 0,0 -81.877,45.85 -43.668,108.08 0,0 30.567,38.21 63.317,48.03 0,0 -17.467,-92.79 0,-94.97 17.468,-2.19 12.009,104.8 12.009,104.8 0,0 86.243,41.484 120.086,38.209 0,0 -53.493,-90.609 -36.026,-88.429 17.467,2.19 77.509,93.887 77.509,93.887 0,0 88.427,16.376 102.62,-36.027 14.191,-52.4 -8.735,-78.6 -21.834,-81.87 -13.1,-3.28 -97.161,-2.19 -94.977,-13.11 2.184,-10.91 58.95,-28.38 90.609,-18.55 0,0 -34.933,-86.25 -80.784,-81.88 -45.85,4.37 -60.043,32.75 -88.427,34.93 -28.383,2.19 -49.126,-5.45 -34.933,-13.1 14.191,-7.64 62.226,-2.5 85.151,-21.99 22.925,-19.49 41.485,-31.5 -1.093,-40.23 -42.574,-8.74 -118.993,-3.28 -134.276,29.47 -15.283,32.75 -15.283,32.75 -15.283,32.75" /><path
       inkscape:connector-curvature="0"
       id="path50"
       style="fill:#82b378;fill-opacity:1;fill-rule:nonzero;stroke:none;stroke-width:0.1"
       d="m 820.168,682.94 c 0,0 -229.254,-74.24 -255.454,-157.21 0,0 1.092,-37.11 -21.835,-79.69 0,0 -35.355,-53.69 -15.198,-119.04 l 9.095,2.44 c 0,0 -7.95,64.85 7.058,102.4 0.612,1.38 1.5,3.37 2.609,5.79 v 0 c 2.74,5.36 4.583,9.31 5.747,12.16 8.174,16.76 19.953,38.61 27.807,43.19 0,0 -51.309,72.05 240.171,189.96" /><path
       inkscape:connector-curvature="0"
       id="path52"
       style="fill:#f1a34f;fill-opacity:1;fill-rule:nonzero;stroke:none;stroke-width:0.1"
       d="m 561.955,185.28 c 88.577,0 160.382,71.8 160.382,160.38 H 401.572 c 0,-88.58 71.806,-160.38 160.383,-160.38" /><path
       inkscape:connector-curvature="0"
       id="path54"
       style="fill:#ffb973;fill-opacity:1;fill-rule:nonzero;stroke:none;stroke-width:0.1"
       d="m 601.42,186.5 c -6.523,-0.81 -13.174,-1.22 -19.927,-1.22 -88.574,0 -160.375,71.81 -160.375,160.38 h 39.844 c 0,-81.83 61.283,-149.34 140.458,-159.16" /><path
       inkscape:connector-curvature="0"
       id="path56"
       style="fill:#f1a34f;fill-opacity:1;fill-rule:nonzero;stroke:none;stroke-width:0.1"
       d="M 704.766,196.31 H 419.144 c -10.928,0 -19.788,-8.86 -19.788,-19.79 h 325.196 c 0,10.93 -8.859,19.79 -19.786,19.79" /><path
       inkscape:connector-curvature="0"
       id="path58"
       style="fill:#d86713;fill-opacity:1;fill-rule:nonzero;stroke:none;stroke-width:0.1"
       d="M 723.525,345.66 H 398.758 c -1.359,0 -2.46,-1.1 -2.46,-2.46 0,-1.36 1.101,-2.46 2.46,-2.46 h 324.767 c 1.359,0 2.459,1.1 2.459,2.46 0,1.36 -1.1,2.46 -2.459,2.46" /><g
       transform="scale(0.121588)"
       id="g60"><path
         inkscape:connector-curvature="0"
         id="path62"
         style="fill:#ed975d;fill-opacity:1;fill-rule:nonzero;stroke:none"
         d="m 16129.3,9788.99 c -38.2,5.81 -153.4,-100.71 -153.4,-100.71 v 0 c -246,-28.42 -605.7,-93.75 -735.1,-118.67 -91.9,-17.68 -338.7,66.48 -579.9,163.1 -286.8,114.96 -565.4,247.58 -565.4,247.58 -159.1,8.11 -339.8,-282.21 -17.1,-466.78 49.3,-28.18 234.3,-76.28 447.5,-120.19 0,0 0,0 0,0.03 294,-60.58 641.4,-113.18 759.6,-94.69 137.4,21.48 526.1,163.7 757.4,272.61 v -0.01 c 0,0 0.2,0.12 0.6,0.29 0.9,0.41 1.7,0.81 2.5,1.22 13.9,6.49 70.5,31.7 108.3,29.47 43.4,-2.58 139.9,76.72 142.8,97.88 2.9,21.15 -129.5,83.07 -167.8,88.87" /></g><g
       transform="scale(0.118074)"
       id="g64"><path
         inkscape:connector-curvature="0"
         id="path66"
         style="fill:#2b478b;fill-opacity:1;fill-rule:nonzero;stroke:none"
         d="m 16300,6314.12 -139.5,-28.35 c 0,0 -638.3,717.21 -736.8,1019 -52.7,161.28 -389.7,230.97 -741.9,322.02 -306.5,79.25 -624.5,174.73 -776.4,361.04 -326.5,400.29 205,892.15 205,892.15 0,0 565.1,-335.85 1052.6,-682.82 340.7,-242.49 643.6,-490.37 689.2,-632.85 110.9,-346.45 345.9,-1005.01 447.8,-1250.19" /></g><g
       transform="scale(0.120756)"
       id="g68"><path
         inkscape:connector-curvature="0"
         id="path70"
         style="fill:#233862;fill-opacity:1;fill-rule:nonzero;stroke:none"
         d="m 15755.4,5942.54 h 76.7 c 25.7,4.03 44.6,11.47 71,14.92 40.1,5.25 58.5,-11.16 62.1,-14.92 0.5,-0.5 0.7,-0.78 0.7,-0.78 h 325.9 c 8.2,11.7 0.3,38.82 -7.4,58.78 -5.1,13.57 -16.4,23.84 -30.4,27.89 -34.6,10.02 -102.7,18.92 -165.2,75.41 -35,31.72 -169.4,116.63 -169.4,116.63 l -0.7,0.17 c -3,-0.06 -17,-4.38 -78.2,-56 -31.6,-26.63 -85.5,37.62 -85.5,37.62 0,0 -10.1,-8.36 -17.6,-23.96 -6.1,-12.29 -10.5,-29.19 -7.1,-50.02 4.9,-29.37 -10.7,-83.93 -23.3,-120.84 -7.5,-22.38 -13.9,-38.24 -13.9,-38.24 0,0 -3.7,-18.41 62.3,-26.66" /></g><g
       transform="scale(0.109838)"
       id="g72"><path
         inkscape:connector-curvature="0"
         id="path74"
         style="fill:#1e3d70;fill-opacity:1;fill-rule:nonzero;stroke:none"
         d="m 16300,8811.82 -517.3,-613.14 c -329.5,85.2 -671.4,187.84 -834.6,388.12 -351,430.3 220.3,959.05 220.3,959.05 0,0 607.6,-361.03 1131.6,-734.03" /></g><g
       transform="scale(0.106671)"
       id="g76"><path
         inkscape:connector-curvature="0"
         id="path78"
         style="fill:#2b478b;fill-opacity:1;fill-rule:nonzero;stroke:none"
         d="m 16300,9403.25 c 0,0 -42.9,-135.4 -112.9,-339.13 -88.4,-257.58 -220,-624.35 -362.8,-964.48 -31.4,-74.74 -63.3,-148.22 -95.5,-218.95 -118.8,-261.74 -240.3,-486.12 -347.3,-600.13 -192.4,-204.98 -659.9,-1522.74 -659.9,-1522.74 l -116.5,32.25 c 0,0 -162.5,1125.22 412.9,1765.54 6.2,6.82 11,14.73 11.6,23.9 0.1,0.07 0.1,0.15 0.1,0.24 7.7,94.78 35.1,519.22 94.7,949.32 14.6,105.54 31.2,211.31 49.8,312.68 1.2,6.49 2.4,12.9 3.7,19.3 87.4,468.71 171.2,677.2 279.4,782.05 l 795.6,-226.45 47.1,-13.4" /></g><path
       inkscape:connector-curvature="0"
       id="path80"
       style="fill:#233862;fill-opacity:1;fill-rule:nonzero;stroke:none;stroke-width:0.1"
       d="m 1556.54,596.92 h 9.27 c 3.1,0.49 5.39,1.39 8.57,1.81 4.84,0.63 7.06,-1.35 7.5,-1.81 0.06,-0.06 0.09,-0.09 0.09,-0.09 h 39.35 c 0.99,1.42 0.04,4.69 -0.89,7.1 -0.63,1.64 -1.99,2.88 -3.68,3.37 -4.18,1.21 -12.4,2.28 -19.94,9.1 -4.24,3.83 -20.47,14.09 -20.47,14.09 l -0.08,0.02 c -0.36,-0.01 -2.05,-0.53 -9.44,-6.76 -3.81,-3.22 -10.32,4.54 -10.32,4.54 0,0 -1.22,-1.01 -2.13,-2.89 -0.73,-1.49 -1.27,-3.53 -0.85,-6.05 0.59,-3.54 -1.3,-10.13 -2.81,-14.59 -0.92,-2.7 -1.7,-4.61 -1.7,-4.61 0,0 -0.44,-2.23 7.53,-3.23" /><path
       inkscape:connector-curvature="0"
       id="path82"
       style="fill:#ffb27d;fill-opacity:1;fill-rule:nonzero;stroke:none;stroke-width:0.1"
       d="m 1574.74,1166.29 c 0,0 -14.2,-34.73 -30.57,-68.54 -13.77,-28.43 -29.07,-56.2 -38.77,-62.13 -13.68,-8.35 -51.36,-31.92 -75.81,-49.507 0,0 -19.07,0.145 -22.04,-3.507 -2.96,-3.652 -9.8,-20.061 -7.8,-21.721 2,-1.661 17.16,-0.891 20.84,2.886 3.22,3.293 10.37,5.662 12.15,6.213 0.11,0.035 0.22,0.067 0.33,0.102 0.05,0.013 0.08,0.021 0.08,0.021 v 10e-4 c 29.7,9.138 76.3,28.177 90.4,37.492 12.15,8.01 39.07,41.18 60.54,70.69 0.01,0 0.01,0 0.01,0 15.57,21.4 28.27,40.87 30.39,47.44 13.91,43.01 -26.11,54.32 -39.75,40.56" /><g
       transform="scale(0.102122)"
       id="g84"><path
         inkscape:connector-curvature="0"
         id="path86"
         style="fill:#2c3a64;fill-opacity:1;fill-rule:nonzero;stroke:none"
         d="m 16147.3,12754.4 c -16.4,24 -33.2,45.3 -49.7,64.4 20.6,-0.5 42.8,1.5 61.3,9.2 48.9,20.1 71.1,175.1 63.7,221 -7.3,46 -75.1,178.9 -158.7,192.1 -83.6,13.3 -170,-79.6 -170,-79.6 15.5,67.1 156.9,105.7 156.9,105.7 -291.3,-53.7 -276.4,-248 -274.5,-266 -266.6,95 -423.2,-407.2 -423.2,-407.2 l 690.8,-407.1 c 0,0 1.8,111 67.7,103.8 102.8,-11.1 188.4,241.2 35.7,463.7" /></g><g
       transform="scale(0.102945)"
       id="g88"><path
         inkscape:connector-curvature="0"
         id="path90"
         style="fill:#ffb27d;fill-opacity:1;fill-rule:nonzero;stroke:none"
         d="m 16061.9,11607 c -157.3,-74.1 -365.9,32.7 -364.8,33.8 13.5,13.5 8.7,53.8 -3.6,106.6 -12.4,55.1 -41.6,130.3 -95.5,220.2 -11.2,19.1 -22.5,38.2 -36,58.4 l 18,6.7 305.5,122.4 c 0,0 49.5,-88.7 101.1,-169.6 43.8,-67.4 89.9,-128 110.1,-125.8 1.2,1.2 203.3,-138.1 -34.8,-252.7" /></g><g
       transform="scale(0.100328)"
       id="g92"><path
         inkscape:connector-curvature="0"
         id="path94"
         style="fill:#ed975d;fill-opacity:1;fill-rule:nonzero;stroke:none"
         d="m 16300,12441.2 c -8.1,-111.8 -46,-313.5 -197.1,-387.3 -12.6,56.5 -42.6,133.7 -97.9,225.9 l 295,161.4" /></g><g
       transform="scale(0.100911)"
       id="g96"><path
         inkscape:connector-curvature="0"
         id="path98"
         style="fill:#ffb27d;fill-opacity:1;fill-rule:nonzero;stroke:none"
         d="m 15894.2,12082.3 c 0,0 405.8,160 302.2,411.1 -103.4,251.1 -120.8,440.9 -384.2,349.4 -263.4,-91.4 -274,-207.9 -259.8,-300.1 14.2,-92.2 233.6,-495.5 341.8,-460.4" /></g><g
       transform="scale(0.100834)"
       id="g100"><path
         inkscape:connector-curvature="0"
         id="path102"
         style="fill:#2c3a64;fill-opacity:1;fill-rule:nonzero;stroke:none"
         d="m 16057.7,12560.2 c 187.6,26.5 242.3,102.3 242.3,102.3 0,0 -172.7,49.5 -274.1,218.6 0,0 -210.8,71.1 -367,-47.7 -9.5,-12.4 -16.3,-26.9 -19.7,-44.1 -35.8,11.8 -89.6,8.7 -120.7,-92.4 -46.6,-152 119.3,-317.9 119.3,-317.9 40.3,11.3 -5.1,146.8 -11.5,219 -4.6,53.3 24.1,121.3 39.6,153.6 19.8,-25.7 217.7,-274.3 459.2,-284.2 0,0 -127.7,44.2 -243.8,130.8 57.8,-28.4 119.2,-46.1 176.4,-38" /></g><g
       transform="scale(0.107355)"
       id="g104"><path
         inkscape:connector-curvature="0"
         id="path106"
         style="fill:#699dee;fill-opacity:1;fill-rule:nonzero;stroke:none"
         d="m 16128.3,10643.9 c -3.2,11.4 -6.7,23.2 -10.3,35.4 56.6,108.2 84.5,205.8 96.2,288.4 25.9,174.5 -18.2,282.2 -18.2,282.2 0,0 -264.6,140.3 -381.4,158.1 -0.6,0.2 -1,0.4 -1.5,0.5 -1.4,0.1 -3,0.3 -4.6,0.4 -118,16.3 -373.3,-35.9 -373.3,-35.9 0,0 49.3,-131.1 -89.6,-218.5 -139,-87.3 -287.4,22.4 -287.4,22.4 -4.4,-3 -9.2,-6.3 -14,-9.8 l -0.1,0.1 c 0,0 -365.5,-241.2 -398.3,-296.3 -32.9,-55.2 -173.5,-328.1 -173.5,-328.1 0,0 44.6,-229.1 538.4,-248.2 40.6,-98.5 71.7,-194.5 81.8,-274.6 39.2,-311.03 -6.3,-556.35 39.4,-737.87 45.7,-181.54 869.7,-78.02 1018.9,-43.09 149.2,34.93 115.6,194.25 127.1,349.03 14.5,194.49 -100.9,884.33 -149.6,1055.83" /></g><g
       transform="scale(0.10679)"
       id="g108"><path
         inkscape:connector-curvature="0"
         id="path110"
         style="fill:#4a82d3;fill-opacity:1;fill-rule:nonzero;stroke:none"
         d="m 16300,11025.7 c -11.9,-83.4 -40,-181.9 -97.4,-291.2 -13,57.3 -66,267.4 -151.6,362.7 0,0 144,-13 249,-71.5" /></g><path
       inkscape:connector-curvature="0"
       id="path112"
       style="fill:#ed975d;fill-opacity:1;fill-rule:nonzero;stroke:none;stroke-width:0.1"
       d="m 1380.52,958.621 c 0,0 16.48,19.97 20.03,22.33 3.55,2.361 19.11,6.499 20,5.666 0.89,-0.834 0.93,-2.04 -1,-3.743 -1.92,-1.703 -9.29,-5.999 -8.24,-6.483 1.06,-0.485 23.26,10.572 26.47,6.853 3.2,-3.718 -1.82,-19.068 -10.38,-26.427 -8.55,-7.358 -34.1,-10.497 -35.7,-11.524 -13.63,-8.712 -11.18,13.328 -11.18,13.328" /><path
       inkscape:connector-curvature="0"
       id="path114"
       style="fill:#ffb27d;fill-opacity:1;fill-rule:nonzero;stroke:none;stroke-width:0.1"
       d="m 1090.39,1004.73 c 0,0 23.68,-28.084 53.82,-16.334 0,0 6.49,15.684 6.58,27.254 0.01,1.42 0.03,2.8 0.05,4.11 0.16,13.02 0.6,20.33 0.6,20.33 0,0 -0.01,0 -0.03,0 -1.37,0.57 -46.09,18.93 -46.05,17.41 0.77,-35.22 -14.97,-52.77 -14.97,-52.77" /><path
       inkscape:connector-curvature="0"
       id="path116"
       style="fill:#ed975d;fill-opacity:1;fill-rule:nonzero;stroke:none;stroke-width:0.1"
       d="m 1109.85,1049.1 c 4.31,-7.99 19.11,-23.63 40.99,-29.34 0.16,13.02 0.6,20.33 0.6,20.33 0,0 -0.01,0 -0.03,0 -1.24,0.33 -42.84,11.37 -41.56,9.01" /><path
       inkscape:connector-curvature="0"
       id="path118"
       style="fill:#ffb27d;fill-opacity:1;fill-rule:nonzero;stroke:none;stroke-width:0.1"
       d="m 1160.81,1041.44 c 0,0 -50.29,-11.82 -57.17,19.61 -6.88,31.43 -18.01,51.07 13.81,59.94 31.82,8.88 40.7,-1.74 45.55,-11.67 4.85,-9.94 10.71,-64 -2.19,-67.88" /><path
       inkscape:connector-curvature="0"
       id="path120"
       style="fill:#a9453d;fill-opacity:1;fill-rule:nonzero;stroke:none;stroke-width:0.1"
       d="m 1105.36,1052.48 c -0.69,-0.44 -11.51,-3.76 -32,37.06 -3.22,6.41 -5.41,20.27 2.09,32.52 7.5,12.25 34.09,21.88 56.18,26.07 22.09,4.19 27.39,-8.24 32.59,-20.73 5.46,-13.11 21.23,-23.91 21.23,-23.91 -19.04,-10.64 -41.99,4.58 -49.94,2.08 -7.95,-2.51 -10.75,-15.03 -11.35,-19.05 -0.6,-4.01 -1.51,-7.35 -11.51,-3.76 -9.99,3.58 -4.52,-14.17 -2.92,-17.56 0,0 1.36,-9.04 -4.37,-12.72" /><path
       inkscape:connector-curvature="0"
       id="path122"
       style="fill:#2c3a64;fill-opacity:1;fill-rule:nonzero;stroke:none;stroke-width:0.1"
       d="m 975.818,267.69 h -30.45 c -6.382,0 -13.475,6.48 -15.251,18.33 -1.776,11.87 -14.896,18.34 -17.737,28.05 -2.841,9.7 11.71,23.37 11.71,23.37 l 2.431,3.17 2.531,3.3 24.12,-5.75 c 0,0 0.595,-5.82 0.967,-13.24 0.258,-5.35 0.399,-11.54 0.098,-16.96 -0.71,-12.95 3.577,-26.88 14.923,-29.4 11.355,-2.52 6.658,-10.87 6.658,-10.87" /><path
       inkscape:connector-curvature="0"
       id="path124"
       style="fill:#2c3a64;fill-opacity:1;fill-rule:nonzero;stroke:none;stroke-width:0.1"
       d="m 1187.79,267.4 h -80.71 c -0.77,0.15 -1.36,0.32 -1.71,0.51 -5.39,2.78 -3.7,24.02 -3.06,30.58 0.13,1.22 0.22,1.93 0.22,1.93 0,0 28.38,23.37 32.28,5.47 0.13,-0.55 0.27,-1.1 0.42,-1.64 v -0.01 c 4.93,-16.74 26.95,-24.35 39.68,-26.47 9.72,-1.63 12.24,-7.46 12.88,-10.37" /><path
       inkscape:connector-curvature="0"
       id="path126"
       style="fill:#ee9849;fill-opacity:1;fill-rule:nonzero;stroke:none;stroke-width:0.1"
       d="m 1171.53,734.147 c 0,0 -4.31,-53.777 -9.38,-118.417 -6.89,-87.82 -15.17,-195.69 -15.98,-216.12 -1.42,-35.48 -7.1,-92.24 -7.1,-92.24 0,0 -13.48,-13.49 -40.45,-7.8 0,0 -24.03,81.02 -30.89,166.75 -0.11,1.41 -0.22,2.82 -0.32,4.24 -6.39,87.27 -16.32,271.039 -16.32,271.039 l 120.44,-7.452" /><path
       inkscape:connector-curvature="0"
       id="path128"
       style="fill:#e58638;fill-opacity:1;fill-rule:nonzero;stroke:none;stroke-width:0.1"
       d="m 1171.53,734.147 c 0,0 -4.31,-53.777 -9.38,-118.417 l -94.42,-149.41 c -0.11,1.41 -0.22,2.82 -0.32,4.24 -6.39,87.27 -16.32,271.039 -16.32,271.039 l 120.44,-7.452" /><path
       inkscape:connector-curvature="0"
       id="path130"
       style="fill:#ee9849;fill-opacity:1;fill-rule:nonzero;stroke:none;stroke-width:0.1"
       d="m 1151.84,727.762 c 0,0 -77.69,-194.762 -128.78,-286.292 -51.081,-91.53 -67.045,-117.07 -67.045,-117.07 0,0 -29.269,11.7 -31.93,19.69 0,0 19.536,176.7 53.747,219.77 19.331,24.34 42.038,97.38 43.108,122.93 1.06,25.54 6.91,76.093 6.91,76.093 l 123.99,-35.121" /><path
       inkscape:connector-curvature="0"
       id="path132"
       style="fill:#ed975d;fill-opacity:1;fill-rule:nonzero;stroke:none;stroke-width:0.1"
       d="m 973.958,760.197 c 0,0 -2.012,-24.323 -3.486,-28.058 -1.475,-3.735 -11.296,-15.313 -12.434,-15.147 -1.138,0.166 -1.817,1.078 -1.242,3.435 0.576,2.355 3.963,9.639 2.891,9.451 -1.075,-0.191 -12.316,-20.696 -16.793,-19.542 -4.479,1.155 -8.857,15.736 -6.193,26.035 2.665,10.299 20.748,26.472 21.439,28.131 5.856,14.072 15.818,-4.305 15.818,-4.305" /><path
       inkscape:connector-curvature="0"
       id="path134"
       style="fill:#1e3d70;fill-opacity:1;fill-rule:nonzero;stroke:none;stroke-width:0.1"
       d="m 965.621,754.028 c 8.6,-2.76 9.978,-2.136 9.978,-2.136 0,0 41.851,76.203 46.091,83.178 4.24,6.976 88.87,85.453 88.87,85.453 l -21.75,81.097 c 0,0 -96.251,-124.641 -106.646,-142.527 -17.176,-29.555 -27.24,-98.197 -27.24,-98.197 0,0 3.942,-4.699 10.697,-6.868" /><path
       inkscape:connector-curvature="0"
       id="path136"
       style="fill:#2a4e96;fill-opacity:1;fill-rule:nonzero;stroke:none;stroke-width:0.1"
       d="m 1187.93,888.684 c -0.3,-16.656 -1.27,-35.377 -2.58,-54.393 -0.08,-1.128 -0.16,-2.256 -0.24,-3.383 -0.83,-11.78 -1.74,-23.588 -2.78,-35.101 -0.41,-4.618 -0.86,-9.18 -1.32,-13.662 l -0.07,-0.605 c -0.03,-1.678 -0.24,-3.497 -0.42,-5.158 -4.25,-43.126 -8.7,-77.202 -9.52,-77.722 -0.99,-0.66 -2.1,-0.99 -3.31,-0.84 -11.31,1.42 -45.06,-1.15 -72.68,4.862 -23.31,4.918 -43.39,14.239 -64.66,26.81 -2.82,1.668 -9.26,6.089 -8.73,9.392 0.51,3.631 1.46,8.878 2.67,15.473 4.19,22.94 11.42,62.4 13.89,108.58 0.48,8.604 1.18,17.098 2.09,25.453 2.37,21.758 6.17,42.425 11.27,60.785 9.47,34.106 23.39,60.225 40.85,70.445 2.28,1.27 14.56,-6.54 25.83,-13.77 10.42,-6.678 21.38,-8.525 32.04,-7.592 l 9.38,-10.378 c 11.37,-13.21 23.47,-30.797 26.77,-55.795 0.25,-1.847 0.46,-3.809 0.64,-5.895 0.91,-10.182 1.14,-23.073 0.88,-37.506" /><path
       inkscape:connector-curvature="0"
       id="path138"
       style="fill:#1e3d70;fill-opacity:1;fill-rule:nonzero;stroke:none;stroke-width:0.1"
       d="m 1187.93,888.684 c -0.3,-16.656 -1.27,-35.377 -2.58,-54.393 -0.08,-1.128 -0.16,-2.256 -0.24,-3.383 -64.6,40.437 -74.55,114.432 -74.55,114.432 31.78,-1.395 57.03,-8.701 76.49,-19.15 0.91,-10.182 1.14,-23.073 0.88,-37.506" /><path
       inkscape:connector-curvature="0"
       id="path140"
       style="fill:#2a4e96;fill-opacity:1;fill-rule:nonzero;stroke:none;stroke-width:0.1"
       d="m 1390.33,956.623 c -3.33,9.009 -8.51,8.423 -8.51,8.423 0,0 -96.06,-23.937 -104.68,-24.964 -8.61,-1.028 -103.43,37.022 -103.43,37.022 0,0 -37.32,16.749 -54.8,1.456 -15.19,-13.29 -15.88,-30.124 -12.33,-44.262 4.24,-16.848 18.49,-29.294 35.73,-31.489 38.68,-4.927 115.86,-14.201 132.03,-11.95 36,5.013 117.58,52.103 117.58,52.103 0,0 1.02,6.585 -1.59,13.661" /><g
       transform="scale(0.144221)"
       id="g142"><path
         inkscape:connector-curvature="0"
         id="path144"
         style="fill:#2c3a64;fill-opacity:1;fill-rule:nonzero;stroke:none"
         d="m 16207.5,5412.31 c 0,0 92.5,-85.76 74.5,-146.69 -18.1,-60.93 -101.6,-101.55 -112.9,-176.04 -11.2,-74.47 -56.4,-115.09 -97,-115.09 -40.6,0 -193.7,0 -193.7,0 0,0 -29.9,52.41 42.3,68.21 72.3,15.79 99.4,103.3 94.9,184.55 -4.5,81.25 6.8,189.57 6.8,189.57 l 153.5,36.11 31.6,-40.62" /></g><g
       transform="scale(0.133502)"
       id="g146"><path
         inkscape:connector-curvature="0"
         id="path148"
         style="fill:#2c3a64;fill-opacity:1;fill-rule:nonzero;stroke:none"
         d="m 16263,5384.85 c -10.1,-5.09 -45.8,-8.59 -94.7,-10.95 h -473.2 c 1.7,14.08 12.7,64.24 90.1,76.72 87.4,14.2 238.8,65.01 272.5,176.81 1.2,3.56 2.1,7.27 3,10.95 26.7,119.45 221.8,-36.55 221.8,-36.55 0,0 0.6,-4.77 1.4,-12.92 4.6,-43.92 16.1,-185.59 -20.9,-204.06" /></g><g
       transform="scale(0.136253)"
       id="g150"><path
         inkscape:connector-curvature="0"
         id="path152"
         style="fill:#35488b;fill-opacity:1;fill-rule:nonzero;stroke:none"
         d="m 15489.1,8406.84 c 0,0 29,-362.11 63.1,-797.4 46.4,-591.29 102.2,-1317.61 107.7,-1455.2 9.5,-238.93 47.7,-621.11 47.7,-621.11 0,0 90.8,-90.8 272.4,-52.52 0,0 161.8,545.57 208,1122.82 0.7,9.46 1.5,18.98 2.1,28.52 43,587.64 109.9,1825.05 109.9,1825.05 l -810.9,-50.16" /></g><g
       transform="scale(0.136253)"
       id="g154"><path
         inkscape:connector-curvature="0"
         id="path156"
         style="fill:#2c3a64;fill-opacity:1;fill-rule:nonzero;stroke:none"
         d="m 15489.1,8406.84 c 0,0 29,-362.11 63.1,-797.4 L 16188,6603.43 c 0.7,9.46 1.5,18.98 2.1,28.52 43,587.64 109.9,1825.05 109.9,1825.05 l -810.9,-50.16" /></g><g
       transform="scale(0.143402)"
       id="g158"><path
         inkscape:connector-curvature="0"
         id="path160"
         style="fill:#35488b;fill-opacity:1;fill-rule:nonzero;stroke:none"
         d="m 14842.8,7946.87 c 0,0 497.1,-1246.06 823.9,-1831.64 326.9,-585.58 429,-749 429,-749 0,0 187.3,74.9 204.3,125.97 0,0 -125,1130.5 -343.9,1406.07 -123.7,155.72 -268.9,623.03 -275.8,786.46 -6.7,163.41 -44.2,486.85 -44.2,486.85 l -793.3,-224.71" /></g><g
       transform="scale(0.117818)"
       id="g162"><path
         inkscape:connector-curvature="0"
         id="path164"
         style="fill:#ffb27d;fill-opacity:1;fill-rule:nonzero;stroke:none"
         d="m 16199.9,10495.2 c 0,0 -164,37.5 -191.7,35.6 -27.6,-1.9 -124.2,-42.3 -125.5,-50.2 -1.3,-7.8 3.3,-14.2 20,-15.3 16.7,-1.1 71.6,6 68.1,-0.7 -3.4,-6.7 -161.7,-37.8 -163.4,-69.6 -1.8,-31.9 84.9,-91.1 158.2,-95.1 73.2,-3.9 217.3,81.2 229.7,82.3 104.7,9.1 4.6,113 4.6,113" /></g><g
       transform="scale(0.132204)"
       id="g166"><path
         inkscape:connector-curvature="0"
         id="path168"
         style="fill:#e58638;fill-opacity:1;fill-rule:nonzero;stroke:none"
         d="m 14374.6,9315.97 c -21.1,66.8 -16.1,77.45 -16.1,77.45 0,0 592.8,320.55 647.1,353.06 54.3,32.49 666.9,684.42 666.9,684.42 l 627.5,-172.7 c 0,0 -971.1,-739.7 -1110.3,-819.35 -229.9,-131.64 -762.5,-206.14 -762.5,-206.14 0,0 -36.2,30.79 -52.6,83.26" /></g><g
       transform="scale(0.128656)"
       id="g170"><path
         inkscape:connector-curvature="0"
         id="path172"
         style="fill:#ffb27d;fill-opacity:1;fill-rule:nonzero;stroke:none"
         d="m 16300,11044.2 c 0,0 -226,-397.7 -447,-449.6 0,0 9.2,133.5 63,225 -22,25.9 -41.4,49.8 -58.2,71.2 -55.6,71.2 -82,114.9 -82,114.9 l 74.9,201.6 51,136.8 c 24.4,-44.4 51.3,-82.3 79.5,-114.6 144.8,-166.5 318.8,-185.3 318.8,-185.3" /></g><g
       transform="scale(0.126353)"
       id="g174"><path
         inkscape:connector-curvature="0"
         id="path176"
         style="fill:#ed975d;fill-opacity:1;fill-rule:nonzero;stroke:none"
         d="m 16272.5,11434.2 c 0,0 27.5,-202.9 -125.6,-344.9 -56.6,72.6 -83.5,117 -83.5,117 l 76.3,205.3 c 81.9,25 132.8,22.6 132.8,22.6" /></g><g
       transform="scale(0.126715)"
       id="g178"><path
         inkscape:connector-curvature="0"
         id="path180"
         style="fill:#ffb27d;fill-opacity:1;fill-rule:nonzero;stroke:none"
         d="m 15957,11144.5 c 0,0 343,133.7 256.4,345.9 -86.5,212.3 -100.5,372.5 -323.1,296.2 -222.7,-76.4 -231.9,-174.7 -220.2,-252.5 11.6,-77.9 195.5,-418.9 286.9,-389.6" /></g><g
       transform="scale(0.138756)"
       id="g182"><path
         inkscape:connector-curvature="0"
         id="path184"
         style="fill:#ee9849;fill-opacity:1;fill-rule:nonzero;stroke:none"
         d="m 16190.1,8347.88 c -126.3,-181.63 -1070.9,-424.31 -1059.7,-298.58 4.3,48.11 10.1,132.94 -0.2,247.97 -2.3,26.94 -5.6,55.48 -10,85.68 -24,165.19 -81,377.61 -208.1,623.47 -9.5,18.43 -19.5,36.98 -29.8,55.8 -52.3,95.2 -96.9,195.83 -130.9,294.24 -65.5,189.11 -91.8,370.05 -58.8,488.35 0.1,0.57 0.3,1.08 0.5,1.66 197.4,91.3 274,445.33 274,445.33 0,0 673.5,-120.9 1050.9,-1018.77 0,0 282,-767.05 172.1,-925.15" /></g><g
       transform="scale(0.13119)"
       id="g186"><path
         inkscape:connector-curvature="0"
         id="path188"
         style="fill:#e58638;fill-opacity:1;fill-rule:nonzero;stroke:none"
         d="m 16002.9,8775.81 c -2.5,28.5 -6,58.67 -10.6,90.62 -25.4,174.72 -85.7,399.38 -220.2,659.43 23.1,139.95 55,256.33 90,308.71 142.1,212.93 224.8,246.23 224.8,246.23 0,0 213.1,-898.64 -84,-1304.99" /></g><g
       transform="scale(0.120936)"
       id="g190"><path
         inkscape:connector-curvature="0"
         id="path192"
         style="fill:#ffb27d;fill-opacity:1;fill-rule:nonzero;stroke:none"
         d="m 16141.5,9751.84 c 0,0 -213.8,-11.22 -247,-23.17 -33.1,-11.93 -137.2,-95 -136,-105.03 1.1,-10.01 8.9,-16.21 29.7,-11.79 20.8,4.44 85.6,32.21 83.6,22.85 -1.9,-9.36 -184.7,-102.52 -175.8,-142.09 9.1,-39.57 135.7,-81.8 226.8,-61.15 90.9,20.65 237.5,174.93 252.3,180.55 124.9,47.64 -33.6,139.83 -33.6,139.83" /></g><g
       transform="scale(0.132274)"
       id="g194"><path
         inkscape:connector-curvature="0"
         id="path196"
         style="fill:#ee9849;fill-opacity:1;fill-rule:nonzero;stroke:none"
         d="m 14720.9,8841.77 c -39.1,63.27 -10.9,92.13 -10.9,92.13 0,0 603.9,472.79 651.2,520.56 47.3,47.75 266.6,808.34 266.6,808.34 0,0 75.4,307.8 252.2,341.7 153.5,29.5 259.6,-46.5 329.1,-135.6 82.7,-106.1 90.9,-252.5 22.2,-368.2 -154.2,-259.83 -465.2,-775.51 -556,-863.62 -202.1,-196.08 -878.5,-470.11 -878.5,-470.11 0,0 -45.1,25.12 -75.9,74.8" /></g><g
       transform="scale(0.126909)"
       id="g198"><path
         inkscape:connector-curvature="0"
         id="path200"
         style="fill:#2b478b;fill-opacity:1;fill-rule:nonzero;stroke:none"
         d="m 16237.8,11866.6 c 2.4,4.8 9.4,9.8 26.3,15 0,0 -15.9,5.4 -34.4,1.3 -9.6,23.5 -33,63.4 -76.8,63.7 0,0 25.1,-6.5 34.4,-31.7 -60,38.1 -171.4,49.1 -449.3,-43.4 -366.3,-122 -183.3,-334.7 -127.8,-351.7 55.6,-17.1 157.8,92.3 249.6,107.3 92,14.9 141.7,-113.1 176.7,-123.7 35.1,-10.7 15.1,18.5 51.9,47.6 36.7,29.2 57.7,-39.4 56.9,-87.6 -0.8,-48.2 70.8,-93.9 70.8,-93.9 0,0 0,0 42,76.9 41.9,77 30.5,356.5 -9.6,406.7 -3.5,4.5 -7,9 -10.7,13.5" /></g><path
       inkscape:connector-curvature="0"
       id="path206"
       style="fill:#4271bc;fill-opacity:1;fill-rule:nonzero;stroke:none;stroke-width:0.1"
       d="m 1325.96,268.72 v -52.61 l -124.52,52.61 z" /><g
       transform="scale(0.146727)"
       id="g208"><path
         inkscape:connector-curvature="0"
         id="path210"
         style="fill:#4a75cb;fill-opacity:1;fill-rule:nonzero;stroke:none"
         d="M 13493.3,4889.54 V 1203.05 H 16300 v 3686.49 h -2806.7" /></g><g
       transform="scale(0.138937)"
       id="g212"><path
         inkscape:connector-curvature="0"
         id="path214"
         style="fill:#699dee;fill-opacity:1;fill-rule:nonzero;stroke:none"
         d="M 13335.8,5163.68 V 1270.51 H 16300 v 3893.17 h -2964.2" /></g><g
       transform="scale(0.146727)"
       id="g216"><path
         inkscape:connector-curvature="0"
         id="path218"
         style="fill:#4271bc;fill-opacity:1;fill-rule:nonzero;stroke:none"
         d="m 16300,4889.52 v -551.26 l -865.4,551.26 h 865.4" /></g></g></svg>