<?xml version="1.0" encoding="UTF-8" standalone="no"?>
<!-- Created with Inkscape (http://www.inkscape.org/) -->

<svg
   xmlns:dc="http://purl.org/dc/elements/1.1/"
   xmlns:cc="http://creativecommons.org/ns#"
   xmlns:rdf="http://www.w3.org/1999/02/22-rdf-syntax-ns#"
   xmlns:svg="http://www.w3.org/2000/svg"
   xmlns="http://www.w3.org/2000/svg"
   xmlns:sodipodi="http://sodipodi.sourceforge.net/DTD/sodipodi-0.dtd"
   xmlns:inkscape="http://www.inkscape.org/namespaces/inkscape"
   version="1.1"
   id="svg834"
   xml:space="preserve"
   width="3966.6667"
   height="2266.6667"
   viewBox="0 0 3966.6667 2266.6667"
   sodipodi:docname="5278.svg"
   inkscape:version="0.92.5 (2060ec1f9f, 2020-04-08)"><metadata
     id="metadata840"><rdf:RDF><cc:Work
         rdf:about=""><dc:format>image/svg+xml</dc:format><dc:type
           rdf:resource="http://purl.org/dc/dcmitype/StillImage" /><dc:title></dc:title></cc:Work></rdf:RDF></metadata><defs
     id="defs838" /><sodipodi:namedview
     pagecolor="#ffffff"
     bordercolor="#666666"
     borderopacity="1"
     objecttolerance="10"
     gridtolerance="10"
     guidetolerance="10"
     inkscape:pageopacity="0"
     inkscape:pageshadow="2"
     inkscape:window-width="1366"
     inkscape:window-height="664"
     id="namedview836"
     showgrid="false"
     inkscape:zoom="0.20621848"
     inkscape:cx="1983.3334"
     inkscape:cy="1133.3334"
     inkscape:window-x="0"
     inkscape:window-y="27"
     inkscape:window-maximized="1"
     inkscape:current-layer="g842" /><g
     id="g842"
     inkscape:groupmode="layer"
     inkscape:label="ink_ext_XXXXXX"
     transform="matrix(1.3333333,0,0,-1.3333333,0,2266.6667)"><g
       transform="matrix(0.172081,0,0,0.172081,0,-18)"
       id="g850"><path
         inkscape:connector-curvature="0"
         id="path852"
         style="fill:#ebf2f9;fill-opacity:1;fill-rule:nonzero;stroke:none"
         d="m 3149.16,1143.3 c 0,0 -2890.663,2893.17 -1095.53,4623.01 C 3848.76,7496.16 5267.59,5250.48 6248.8,5415.93 7490.83,5625.36 8027.97,8776.36 9884.65,8779.34 11997.2,8782.75 13547.8,7533.9 12721.9,4559.73 12112.7,2366.1 16300,4162.46 15685,1100.64 L 3149.16,1143.3" /></g><g
       transform="matrix(0.105287,0,0,0.105287,0,-18)"
       id="g854"><path
         inkscape:connector-curvature="0"
         id="path856"
         style="fill:#acd29a;fill-opacity:1;fill-rule:nonzero;stroke:none"
         d="m 15451.5,2483.03 c -642.2,103.44 -1127.1,-121.57 -1593.3,-56.89 -371.9,51.57 -565.6,427.69 -1065.3,534.26 118.8,70.09 257.3,157.76 323.5,221.49 128.6,123.85 313.2,371.56 0,381.34 -225.4,7.03 -401,-368.42 -481.7,-579.66 -74,6.18 -154.1,6.65 -241.4,0.19 103.2,332.43 304.3,975.82 353.5,1099.38 66.9,168.21 -214.2,728.97 -545.6,99.64 -232.5,-441.37 -74.7,-951.5 40.3,-1216.78 -90.8,-14.62 -176.4,-35.71 -258.3,-61.36 -273.8,624.87 -1145.1,2406.2 -2089.44,2184.81 C 8864.14,4848.2 11070,3650.61 11626.3,2762.75 11171.8,2552.08 10772.5,2296.21 10082.2,2483.03 8247.81,2979.68 8102.3,1862.25 8102.3,1862.25 l 8197.7,-2.75 c 0,0 -206.2,520.2 -848.5,623.53" /></g><path
       inkscape:connector-curvature="0"
       id="path858"
       style="fill:#ffb07b;fill-opacity:1;fill-rule:nonzero;stroke:none;stroke-width:0.1"
       d="m 1392.05,666.77 c 0.88,-8.3 12.64,-8 25.92,-6.01 13.28,1.99 9.85,-1.5 28.53,-1.14 18.67,0.36 24.91,6.74 25.72,9.44 0.73,2.39 -8.33,4.09 -18.03,6.11 -1.22,0.25 -2.44,0.52 -3.67,0.78 -10.93,2.4 -18.39,10.277 -27.9,17.057 -9.02,6.422 -15.09,35.854 -15.09,35.854 l -26.55,0.157 c 0,0 8.34,-26.617 12.69,-35.873 2.55,-5.445 -0.17,-12.435 -1.03,-17.675 -0.46,-2.85 -0.91,-5.77 -0.59,-8.7" /><path
       inkscape:connector-curvature="0"
       id="path860"
       style="fill:#365da4;fill-opacity:1;fill-rule:nonzero;stroke:none;stroke-width:0.1"
       d="m 1417.97,660.76 c 13.28,1.99 9.85,-1.5 28.53,-1.14 18.67,0.36 24.91,6.74 25.72,9.44 0.73,2.39 -8.33,4.09 -18.03,6.11 l -0.11,-0.18 c 0,0 -11.8,-6.85 -27.23,-5.82 -12.57,0.84 -25.53,5.65 -34.21,6.3 -0.46,-2.85 -0.91,-5.77 -0.59,-8.7 0.88,-8.3 12.64,-8 25.92,-6.01" /><path
       inkscape:connector-curvature="0"
       id="path862"
       style="fill:#ffb07b;fill-opacity:1;fill-rule:nonzero;stroke:none;stroke-width:0.1"
       d="m 1184.46,668.09 c 0.58,-8.33 12.33,-8.48 25.68,-6.99 13.35,1.49 9.79,-1.87 28.47,-2.21 18.67,-0.35 25.14,5.8 26.06,8.46 0.81,2.37 -8.17,4.4 -17.79,6.79 -1.21,0.29 -2.42,0.61 -3.63,0.92 -10.84,2.81 -18,10.96 -27.25,18.092 -8.76,6.758 -1.55,34.788 -1.55,34.788 l -20.15,9.515 c 0,0 -2.77,-28.889 -4.27,-43.5 -0.61,-5.983 -3.59,-11.995 -4.64,-17.205 -0.57,-2.83 -1.13,-5.72 -0.93,-8.66" /><path
       inkscape:connector-curvature="0"
       id="path864"
       style="fill:#365da4;fill-opacity:1;fill-rule:nonzero;stroke:none;stroke-width:0.1"
       d="m 1210.14,661.1 c 13.35,1.49 9.79,-1.87 28.47,-2.21 18.67,-0.35 25.14,5.8 26.06,8.46 0.81,2.37 -8.17,4.4 -17.79,6.79 l -0.11,-0.18 c 0,0 -12.06,-6.4 -27.44,-4.78 -12.53,1.31 -25.3,6.6 -33.94,7.57 -0.57,-2.83 -1.13,-5.72 -0.93,-8.66 0.58,-8.33 12.33,-8.48 25.68,-6.99" /><path
       inkscape:connector-curvature="0"
       id="path866"
       style="fill:#2b478b;fill-opacity:1;fill-rule:nonzero;stroke:none;stroke-width:0.1"
       d="m 1229.72,1084.09 c 0,0 -5.58,-27.02 -11.17,-164.061 0,0 -10.37,-25.374 -17.89,-56.399 -7.52,-31.025 -12.82,-160.482 -12.82,-160.482 0,0 3,-4.322 12.1,-4.868 7.43,-0.446 13.22,2.813 13.22,2.813 0,0 52.27,169.557 77.71,235.384 25.45,65.833 40.36,159.823 40.36,159.823 l -101.51,-12.21" /><path
       inkscape:connector-curvature="0"
       id="path868"
       style="fill:#2b478b;fill-opacity:1;fill-rule:nonzero;stroke:none;stroke-width:0.1"
       d="m 1292.59,1072.52 c 0,0 4.12,-27.28 46.32,-157.781 0,0 -0.94,-27.392 2.75,-59.102 3.69,-31.71 46.41,-156.557 46.41,-156.557 0,0 5.67,-1.971 14.18,0.275 7.91,2.088 14.12,6.848 14.12,6.848 0,0 -16.38,178.444 -15.3,249.01 1.08,70.567 -17.48,163.907 -17.48,163.907 l -91,-46.6" /><path
       inkscape:connector-curvature="0"
       id="path870"
       style="fill:#c65447;fill-opacity:1;fill-rule:nonzero;stroke:none;stroke-width:0.1"
       d="m 1367.33,1450.46 c -6.62,4.21 -14.75,5.04 -20.48,4.99 1.55,1.44 4.47,1.85 4.47,1.85 -3.52,0.71 -11.59,-2.41 -11.59,-2.41 -48.27,21.43 -59.64,-50.66 -59.44,-67.55 0.18,-16.89 -0.66,-36.28 -25.99,-50.15 -49.83,-27.3 -11.63,-81.21 -11.63,-81.21 -8.97,-25.74 24.24,-57.27 24.24,-57.27 -0.57,13.67 62.18,100.75 96.01,120.62 8.56,11.34 12.43,31.93 12.72,33.56 -2.2,-16.38 -5.47,-25.46 -8.24,-30.53 29.01,24.14 17.46,116.95 -0.07,128.1" /><path
       inkscape:connector-curvature="0"
       id="path872"
       style="fill:#ffb07b;fill-opacity:1;fill-rule:nonzero;stroke:none;stroke-width:0.1"
       d="m 1356.81,1328.66 c 0.17,-0.08 -15.82,-8.39 -27.86,-5.1 -11.32,3.09 -18.72,17.77 -18.56,17.8 4.79,0.95 6.18,7.54 6.07,35.85 l 2.17,-0.43 35.13,-6.96 1.31,-0.25 c 0,0 -0.83,-11.47 -0.86,-22.28 -0.01,-2.28 0.03,-4.53 0.11,-6.64 0.24,-6.27 0.94,-11.26 2.49,-11.99" /><path
       inkscape:connector-curvature="0"
       id="path874"
       style="fill:#ea8e50;fill-opacity:1;fill-rule:nonzero;stroke:none;stroke-width:0.1"
       d="m 1354.21,1347.29 c -0.01,-2.28 0.03,-4.53 0.11,-6.64 -20.43,0.82 -32.21,24.19 -36.66,34.44 l 36.1,-5.27 1.31,-0.25 c 0,0 -0.83,-11.47 -0.86,-22.28" /><path
       inkscape:connector-curvature="0"
       id="path876"
       style="fill:#c65447;fill-opacity:1;fill-rule:nonzero;stroke:none;stroke-width:0.1"
       d="m 1314.87,1380.75 c 0,0 -10.69,16.88 -13.25,31.32 -1.84,10.31 3.41,48.51 41.81,43.01 0,0 11.15,-1.1 21.63,-8.18 8.34,-5.63 20.37,-17.78 6.91,-51.12 l -3.49,-11.26 -53.61,-3.77" /><path
       inkscape:connector-curvature="0"
       id="path878"
       style="fill:#ffb07b;fill-opacity:1;fill-rule:nonzero;stroke:none;stroke-width:0.1"
       d="m 1357.22,1352.59 c 0,0 -47.84,6.32 -43.44,36.05 4.4,29.73 1.18,50.57 31.91,47.79 30.73,-2.78 34.97,-15 35.92,-25.28 0.94,-10.28 -11.84,-59.44 -24.39,-58.56" /><path
       inkscape:connector-curvature="0"
       id="path880"
       style="fill:#c65447;fill-opacity:1;fill-rule:nonzero;stroke:none;stroke-width:0.1"
       d="m 1367.53,1433.92 c 0,0 -18.26,-32.93 -39.08,-35.09 -20.82,-2.17 -28.71,4.5 -28.71,4.5 0,0 17.2,9.92 23.57,30.77 0,0 36.84,17.88 44.22,-0.18" /><path
       inkscape:connector-curvature="0"
       id="path882"
       style="fill:#c65447;fill-opacity:1;fill-rule:nonzero;stroke:none;stroke-width:0.1"
       d="m 1363.87,1431.57 c 0,0 8.6,-9.24 9.85,-17.16 1.25,-7.93 0,-23.67 4.62,-23.82 0,0 13.37,22.24 4.31,37.3 -9.61,15.96 -18.78,3.68 -18.78,3.68" /><g
       transform="matrix(0.104385,0,0,0.104385,0,-18)"
       id="g884"><path
         inkscape:connector-curvature="0"
         id="path886"
         style="fill:#d86713;fill-opacity:1;fill-rule:nonzero;stroke:none"
         d="m 16109.1,10017.4 c -96.2,203.7 -363.5,372.2 -588.6,372.2 -166.3,0.1 -313,-56.7 -426.5,-149.1 -65,-52.9 -162.8,-18 -180.4,63.8 l -197.2,915.8 c -28.7,133.5 -160.2,218.4 -293.8,189.7 l -3189.2,-686.4 c -130.5,-28.1 -213.5,-156.6 -185.4,-287.1 l 685.6,-3185.77 c 19.7,-91.13 86.5,-159.87 169.3,-186.28 l -41.9,-11.87 h 123.9 l 1,0.18 c 15.1,0.44 30.4,2.18 45.8,5.49 l 69.4,14.94 v 0 0 l 818.6,176.17 c 114.9,24.72 161.4,163.68 84.3,252.28 -74.6,85.57 -128.3,191.57 -151.1,311.64 -64.4,338.36 144.8,673.52 477.2,763.59 369.8,100.19 743.2,-130.65 822.8,-500.38 29.9,-139.09 13.9,-277.37 -37.9,-399.01 -20.1,-47.26 -3.5,-96.34 31,-124.31 l -47.7,-23.3 110.7,0.07 v 0.01 c 8.2,-0.2 16.7,0.5 25.5,2.38 l 977.3,210.35 c 133.7,28.76 218.6,160.36 189.9,293.94 l -195.9,910.09 c -18.1,84.22 58.7,158.04 142.1,136.6 96.5,-24.79 200.1,-28.14 304,-5.76 409,88.02 648.1,535.62 457.2,940.05" /></g><g
       transform="matrix(0.103663,0,0,0.103663,0,-18)"
       id="g888"><path
         inkscape:connector-curvature="0"
         id="path890"
         style="fill:#f1a34f;fill-opacity:1;fill-rule:nonzero;stroke:none"
         d="m 15515.1,10461.9 c -167.5,0.1 -315.2,-57 -429.5,-150.1 -65.3,-53.3 -163.9,-18.2 -181.7,64.2 l -198.4,922.1 c -28.9,134.5 -161.4,220 -295.9,191.1 L 11198.2,10798 c -131.4,-28.3 -215,-157.7 -186.7,-289 l 690.4,-3208.01 c 29.4,-136.4 163.7,-223.17 300.1,-193.82 l 894.2,192.44 c 115.7,24.89 162.6,164.82 84.9,254.04 -75.1,86.17 -129.1,192.9 -152.1,313.81 -64.9,340.7 145.7,678.21 480.5,768.9 372.4,100.89 748.4,-131.56 828.5,-503.86 30.2,-140.07 14,-279.3 -38.2,-401.79 -33.9,-79.59 35.8,-164.35 120.4,-146.16 l 984.1,211.81 c 134.5,28.96 220.1,161.48 191.1,295.99 l -197.1,916.43 c -18.4,84.8 59,159.13 143,137.54 97.2,-24.96 201.4,-28.33 306.2,-5.8 411.8,88.64 652.5,539.35 460.2,946.58 -96.8,205.1 -365.9,374.8 -592.6,374.8" /></g><path
       inkscape:connector-curvature="0"
       id="path892"
       style="fill:#ffb07b;fill-opacity:1;fill-rule:nonzero;stroke:none;stroke-width:0.1"
       d="m 1486.53,1192.94 c 0,0 20.77,-3.4 26.21,-16.9 5.44,-13.51 -2.16,-22.65 -5.08,-22.62 -2.92,0.03 -8.53,2.19 -11.15,9.2 -2.63,7 -9.98,30.32 -9.98,30.32" /><path
       inkscape:connector-curvature="0"
       id="path894"
       style="fill:#ffb07b;fill-opacity:1;fill-rule:nonzero;stroke:none;stroke-width:0.1"
       d="m 1200.66,1132.69 c 0,0 23.31,0.03 31.7,-13.75 8.38,-13.78 1.73,-25.15 -1.47,-25.64 -3.2,-0.49 -9.72,0.86 -13.85,8.04 -4.13,7.18 -16.38,31.35 -16.38,31.35" /><path
       inkscape:connector-curvature="0"
       id="path896"
       style="fill:#80bdcc;fill-opacity:1;fill-rule:nonzero;stroke:none;stroke-width:0.1"
       d="m 1487.11,1177.27 c -2.06,0.44 -11.1,1.5 -22.59,3.31 -21.17,3.32 -50.67,9.17 -60.57,18.3 -2.68,2.48 -8.93,16.12 -15.42,31.76 -6.56,-34.62 -6.93,-61.18 -5.19,-81.4 l -143.04,-30.78 c 12.26,24.79 31.25,55.54 27.69,80.42 -1.32,9.22 -6.38,21.88 -8.27,36.1 -0.15,1.22 -0.29,2.45 -0.4,3.69 -20.06,-16.52 -43.23,-34.74 -43.79,-38.38 -0.92,-6.11 14.7,-73.73 14.7,-73.73 -3.88,-8.93 -20.73,-7.05 -20.73,-7.05 -15.78,11.27 -39,75.15 -37.14,89.3 1.86,14.15 59.42,94.8 73.35,114.07 13.76,19.05 64,18.57 65.21,18.56 h 0.01 c 0.01,0 0.01,0 0.02,0 39.95,-23.99 43.55,-4.05 43.55,-4.05 0,0 36.05,-6.85 42.24,-17.5 6.2,-10.65 33.37,-91.4 35.29,-94.24 4.02,-5.95 69.69,-29.74 70.87,-36.63 1.19,-6.89 -9.9,-13 -15.79,-11.75" /><path
       inkscape:connector-curvature="0"
       id="path898"
       style="fill:#5f9aa8;fill-opacity:1;fill-rule:nonzero;stroke:none;stroke-width:0.1"
       d="m 1290.17,1129.14 -49.87,-10.68 c 12.42,24.73 28.74,55.52 25.17,80.25 -1.33,9.23 -4.33,20.15 -5.77,34.44 -0.14,1.37 -0.38,5.52 -0.38,5.52 0,0 35.32,-27.8 35.94,-57.88 0.33,-15.61 -2.4,-36.02 -5.09,-51.65" /><path
       inkscape:connector-curvature="0"
       id="path900"
       style="fill:#5f9aa8;fill-opacity:1;fill-rule:nonzero;stroke:none;stroke-width:0.1"
       d="m 1465.84,1180.4 c -21.42,3.32 -51.29,9.17 -61.31,18.3 -2.71,2.49 -9.04,16.14 -15.61,31.8 0,0 -2.3,25.17 4.28,24.23 6.58,-0.94 16.26,-45.58 23.17,-48.4 6.18,-2.53 40.36,-15.65 49.47,-25.93" /><g
       transform="matrix(0.154853,0,0,0.154853,0,-18)"
       id="g902"><path
         inkscape:connector-curvature="0"
         id="path904"
         style="fill:#2c3a64;fill-opacity:1;fill-rule:nonzero;stroke:none"
         d="m 16280.6,1546.5 c -19.5,-65.74 -109.6,-109.53 -121.7,-189.86 -5.9,-39.2 -20.5,-69.62 -39.1,-90.54 h -280.3 c 2.8,15.43 15.1,32.03 51.5,39.97 77.9,17.05 107.2,111.4 102.5,199.03 -2.1,36.68 -1.1,78.59 0.7,114.82 2.4,50.18 6.5,89.57 6.5,89.57 l 165.5,38.94 17.4,-22.34 16.6,-21.51 c 0,0 99.8,-92.41 80.4,-158.08" /></g><g
       transform="matrix(0.142396,0,0,0.142396,0,-18)"
       id="g906"><path
         inkscape:connector-curvature="0"
         id="path908"
         style="fill:#2c3a64;fill-opacity:1;fill-rule:nonzero;stroke:none"
         d="m 16285.5,1376.86 h -616.6 c 13.9,16.37 37.6,32.17 77.7,38.7 94.9,15.38 259.2,70.43 295.9,191.79 1.2,3.86 2.2,7.86 3.1,11.93 29.1,129.64 240.8,-39.75 240.8,-39.75 0,0 0.7,-5.19 1.7,-13.97 3.7,-36.52 11.9,-135.54 -2.6,-188.7" /></g><g
       transform="matrix(0.145629,0,0,0.145629,0,-18)"
       id="g910"><path
         inkscape:connector-curvature="0"
         id="path912"
         style="fill:#35488b;fill-opacity:1;fill-rule:nonzero;stroke:none"
         d="m 15421.7,4705.3 c 0,0 31.4,-392.23 68.4,-863.7 50.2,-640.46 110.5,-1427.18 116.5,-1576.19 10.4,-258.81 51.8,-672.74 51.8,-672.74 0,0 98.2,-98.33 295,-56.92 0,0 175.2,590.95 225.3,1216.17 0.8,10.3 1.5,20.6 2.4,30.9 46.5,636.54 118.9,1976.8 118.9,1976.8 l -878.3,-54.32" /></g><g
       transform="matrix(0.145629,0,0,0.145629,0,-18)"
       id="g914"><path
         inkscape:connector-curvature="0"
         id="path916"
         style="fill:#2c3a64;fill-opacity:1;fill-rule:nonzero;stroke:none"
         d="m 15421.7,4705.3 c 0,0 31.4,-392.23 68.4,-863.7 l 688.6,-1089.68 c 0.8,10.3 1.5,20.6 2.4,30.9 46.5,636.54 118.9,1976.8 118.9,1976.8 l -878.3,-54.32" /></g><g
       transform="matrix(0.153906,0,0,0.153906,0,-18)"
       id="g918"><path
         inkscape:connector-curvature="0"
         id="path920"
         style="fill:#35488b;fill-opacity:1;fill-rule:nonzero;stroke:none"
         d="m 14728.2,4408.22 c 0,0 536.2,-1344.13 888.7,-1975.75 352.6,-631.69 462.8,-807.97 462.8,-807.97 0,0 202,80.83 220.3,135.93 0,0 -134.8,1219.45 -370.9,1516.71 -133.4,167.96 -290.2,672.04 -297.5,848.31 -7.3,176.28 -47.7,525.15 -47.7,525.15 l -855.7,-242.38" /></g><g
       transform="matrix(0.145726,0,0,0.145726,0,-18)"
       id="g922"><path
         inkscape:connector-curvature="0"
         id="path924"
         style="fill:#935c2f;fill-opacity:1;fill-rule:nonzero;stroke:none"
         d="m 15845.3,6846.84 c -25.2,148.66 -26,236.78 -26,236.78 l 287.3,231.54 c -10.6,-318.38 193.4,-471.48 193.4,-471.48 0,0 -382.9,-188.46 -604.2,-118.66 0,0 54.5,69.64 149.5,121.82" /></g><g
       transform="matrix(0.145334,0,0,0.145334,0,-18)"
       id="g926"><path
         inkscape:connector-curvature="0"
         id="path928"
         style="fill:#a16d3c;fill-opacity:1;fill-rule:nonzero;stroke:none"
         d="m 15794.2,7108.02 c 0,0 366.5,-60.88 400.9,167.93 34.4,228.82 104.9,375.07 -127.7,423.62 -232.5,48.54 -291.2,-31.92 -321.2,-105.5 -30.1,-73.59 -46.4,-464.31 48,-486.05" /></g><g
       transform="matrix(0.129347,0,0,0.129347,0,-18)"
       id="g930"><path
         inkscape:connector-curvature="0"
         id="path932"
         style="fill:#a16d3c;fill-opacity:1;fill-rule:nonzero;stroke:none"
         d="m 16300,7456.53 -87.7,54.28 c 0,0 -109.3,161.37 -296,61.11 0,0 -73.9,-47.14 -24.3,-86.63 49.7,-39.48 36.3,-17.18 105,-74.37 68.8,-57.19 157.7,-77.62 215.2,-46.09 l 73.6,6.95 14.2,84.75" /></g><g
       transform="matrix(0.146317,0,0,0.146317,0,-18)"
       id="g934"><path
         inkscape:connector-curvature="0"
         id="path936"
         style="fill:#d3782f;fill-opacity:1;fill-rule:nonzero;stroke:none"
         d="m 14317.6,6576.8 c 19.9,62.46 29.4,67.96 29.4,67.96 0,0 626.8,-74.05 685.9,-78.42 59,-4.38 879.7,164.7 879.7,164.7 l 387.4,-470.51 c 0,0 -1142.4,-43.07 -1291.9,-29.06 -247,23.15 -695.1,253.17 -695.1,253.17 0,0 -11.1,43.11 4.6,92.16" /></g><g
       transform="matrix(0.14754,0,0,0.14754,0,-18)"
       id="g938"><path
         inkscape:connector-curvature="0"
         id="path940"
         style="fill:#e69d43;fill-opacity:1;fill-rule:nonzero;stroke:none"
         d="m 16298.9,4779.6 c 1.1,-24.08 -48.5,-50.51 -70.1,-60.2 -162.2,-72.72 -313.3,-123.29 -484,-139.69 -202.6,-20.81 -441.9,24.74 -524,23.66 -8.8,0 -16.4,3.25 -22.9,8.74 -5.5,4.4 -9.9,251.78 -5.5,563.67 0,12.04 0,25.22 1.1,37.27 v 4.33 c 0.3,32.48 0.8,65.49 1.5,98.81 2,91.16 5.4,184.74 9.4,277.74 5.9,137.1 14.1,271.84 25.4,391.21 11.8,124.67 26.7,232.65 45.7,309.23 43.8,176.21 144.5,292.27 236.4,377.64 l 75.5,66.7 c 75.6,-15.29 155.5,-10.89 235.4,28.47 86.5,42.69 180.6,88.68 195.9,77.72 116.7,-87.21 195.2,-285.21 235.5,-536.84 21.7,-135.43 32.2,-286.35 31.6,-443.96 -0.2,-60.44 -2.1,-121.79 -5.5,-183.72 -19.5,-332.34 0.5,-620.48 11.9,-787.95 3.3,-48.16 6,-86.45 6.7,-112.83" /></g><g
       transform="matrix(0.131582,0,0,0.131582,0,-18)"
       id="g942"><path
         inkscape:connector-curvature="0"
         id="path944"
         style="fill:#4a75cb;fill-opacity:1;fill-rule:nonzero;stroke:none"
         d="m 16123.7,8804.23 -2559.9,406.56 c -109,17.29 -211.2,-56.94 -228.5,-165.79 L 13222,8331.48 c -5.3,-33.05 3.2,-125.93 3.2,-125.93 l 92.2,-13.73 c 5.3,-1.14 10.6,-1.95 16,-2.39 v 0 0 c 16.7,-1.34 34.1,0.74 51.5,7.03 84.9,30.72 178.9,40.06 274.5,22.52 269.5,-49.41 458.1,-300.85 429.3,-573.31 -31.9,-303.06 -310.3,-513.75 -607.4,-466.57 -111.8,17.75 -209.8,69.39 -285.1,142.78 -14.6,14.23 -32.2,21.74 -49.9,23.57 v 0 l -96.6,14.49 -120.2,-870.38 c -17.1,-107.35 56.1,-208.18 163.5,-225.24 l 731.3,-116.14 c 67.7,-10.74 100.4,-88.92 60.5,-144.65 -46.1,-64.44 -78.3,-140.29 -91.6,-223.86 -52.2,-328.64 211.1,-634.5 566,-609.04 178.6,12.77 380.4,162.61 445.1,329.62 47.9,123.34 47.9,248.44 11.9,359.19 -20.6,63.31 33.4,125.91 99.2,115.46 l 735.8,-116.86 c 107.3,-17.05 208.2,56.12 225.2,163.43 l 407,2562.79 c 16.6,104.83 -54.8,203.31 -159.7,219.97" /></g><g
       transform="matrix(0.145069,0,0,0.145069,0,-18)"
       id="g946"><path
         inkscape:connector-curvature="0"
         id="path948"
         style="fill:#d3782f;fill-opacity:1;fill-rule:nonzero;stroke:none"
         d="m 16300,6422.36 c 0,0 -178,-830.6 -846.2,-1015.63 2.1,92.7 5.5,187.88 9.6,282.47 6,139.43 14.2,276.47 25.7,397.87 12,6.16 23.1,10.95 33.4,14.32 226.7,74.77 777.5,320.97 777.5,320.97" /></g><g
       transform="matrix(0.130818,0,0,0.130818,0,-18)"
       id="g950"><path
         inkscape:connector-curvature="0"
         id="path952"
         style="fill:#699dee;fill-opacity:1;fill-rule:nonzero;stroke:none"
         d="m 14795.5,5546.74 c 48.1,124.06 48.2,249.88 12,361.28 -20.7,63.68 33.6,126.63 99.8,116.14 l 740.1,-117.55 c 107.9,-17.14 209.3,56.46 226.4,164.38 l 409.5,2577.76 c 16.7,105.44 -55.2,204.5 -160.6,221.24 l -2575,408.95 c -109.5,17.38 -212.3,-57.28 -229.7,-166.76 l -114,-717.69 c -14.7,-92.84 75.5,-167.8 163.9,-135.8 85.3,30.9 180,40.29 276.1,22.65 271.1,-49.69 460.7,-302.61 431.8,-576.66 -32.1,-304.83 -312.2,-516.74 -611,-469.29 -112.4,17.86 -210.9,69.78 -286.8,143.61 -49.2,47.97 -132,20.67 -142.8,-47.23 l -125.4,-789.95 c -17.1,-107.97 56.5,-209.4 164.4,-226.55 l 735.6,-116.82 c 68.1,-10.81 101,-89.44 60.9,-145.5 -46.4,-64.82 -78.8,-141.1 -92.1,-225.17 -52.6,-330.55 212.3,-638.19 569.2,-612.59 179.7,12.84 382.7,163.57 447.7,331.55" /></g><g
       transform="matrix(0.129371,0,0,0.129371,0,-18)"
       id="g954"><path
         inkscape:connector-curvature="0"
         id="path956"
         style="fill:#a16d3c;fill-opacity:1;fill-rule:nonzero;stroke:none"
         d="m 16300,6854.67 -107.1,17.7 c 0,0 -122,176.61 -334.7,77.53 0,0 -84.4,-47.18 -28.6,-91.35 55.8,-44.17 40.9,-19.82 118.2,-83.67 77.3,-63.86 177.9,-89.35 243.2,-58.14 l 83.5,4.34 25.5,133.59" /></g><g
       transform="matrix(0.146845,0,0,0.146845,0,-18)"
       id="g958"><path
         inkscape:connector-curvature="0"
         id="path960"
         style="fill:#e69d43;fill-opacity:1;fill-rule:nonzero;stroke:none"
         d="m 14288.3,5991.07 c 3,69.4 40,76.81 40,76.81 0,0 714.5,47.26 776.1,59.2 61.6,11.96 630.6,483.42 630.6,483.42 0,0 220.1,197.78 374.3,131.04 134,-57.99 175.9,-172.41 182.7,-277.63 8,-125.39 -62.8,-242.61 -176.6,-295.78 -255.5,-119.36 -766.6,-353.66 -883,-373.87 -259,-44.99 -924.9,99.21 -924.9,99.21 0,0 -21.6,43.09 -19.2,97.6" /></g><g
       transform="matrix(0.146133,0,0,0.146133,0,-18)"
       id="g962"><path
         inkscape:connector-curvature="0"
         id="path964"
         style="fill:#2c3a64;fill-opacity:1;fill-rule:nonzero;stroke:none"
         d="m 15660,7552.53 c 0,0 -147.9,109.7 -51.4,280.15 0,0 116.3,-38.59 281.6,0 165.4,38.59 313.3,-16.08 332.6,-73.96 0,0 64.3,-25.74 70.8,-122.21 6.4,-96.47 -187.1,-400.36 -187.1,-400.36 0,0 -41.3,51.44 -30.1,86.81 11.3,35.38 46.7,114.17 3.3,114.17 -43.4,0 -57.9,-64.33 -75.6,-38.59 -17.6,25.73 14.5,133.46 -36.9,151.14 -51.5,17.69 -249.3,-29.68 -307.2,2.85" /></g><path
       inkscape:connector-curvature="0"
       id="path966"
       style="fill:#c3e0f4;fill-opacity:1;fill-rule:nonzero;stroke:none;stroke-width:0.1"
       d="m 1553.67,190.06 -95.22,432.33 h 26.21 c 6.22,0 11.3,5.08 11.3,11.3 v 14.6 c 0,6.21 -5.08,11.29 -11.3,11.29 h -332.49 c -6.21,0 -11.29,-5.08 -11.29,-11.29 v -14.6 c 0,-6.22 5.08,-11.3 11.29,-11.3 h 33.75 L 1090.7,190.06 c -1.28,-5.81 2.41,-11.62 8.2,-12.9 5.8,-1.29 11.59,2.42 12.87,8.23 l 96.25,437 h 228.33 l 96.25,-437 c 1.28,-5.81 7.07,-9.52 12.86,-8.23 v 0 c 5.8,1.28 9.49,7.09 8.21,12.9" /><g
       transform="matrix(0.136218,0,0,0.136218,0,-18)"
       id="g968"><path
         inkscape:connector-curvature="0"
         id="path970"
         style="fill:#acd29a;fill-opacity:1;fill-rule:nonzero;stroke:none"
         d="m 16041.3,3471.06 c -258.8,248.35 -1190.2,-1318.85 -1190.2,-1318.85 0,0 1448.9,1070.42 1190.2,1318.85" /></g><g
       transform="matrix(0.135958,0,0,0.135958,0,-18)"
       id="g972"><path
         inkscape:connector-curvature="0"
         id="path974"
         style="fill:#acd29a;fill-opacity:1;fill-rule:nonzero;stroke:none"
         d="m 16040.8,2751.8 c -229.5,91.79 -962.9,-681.38 -1128.1,-859.9 -126.3,16.77 -265,27.66 -416.9,30.38 -1161.3,20.74 -1688.1,-505.23 -1688.1,-505.23 l 3239.6,-11.03 c 0,0 -287,364.38 -1101.1,481.25 199,93.93 787.3,367.61 1001.3,420.2 259.2,63.77 352.5,340.7 93.3,444.33" /></g><g
       transform="matrix(0.127785,0,0,0.127785,0,-18)"
       id="g976"><path
         inkscape:connector-curvature="0"
         id="path978"
         style="fill:#d86713;fill-opacity:1;fill-rule:nonzero;stroke:none"
         d="m 16094.6,4604.52 h -744 c -96.3,0 -157.5,-103.22 -111,-187.42 44.9,-81.39 -113.2,-786.4 -446.4,-804.79 -313.4,-17.29 -572.6,232.73 -572.6,542.47 0,116.53 36.7,224.52 99.1,312.95 40.6,57.52 -0.3,136.79 -70.6,136.79 h -818.9 c -111.9,0 -202.6,-90.7 -202.6,-202.6 0,0 -74.3,-878.9 -137.4,-847.36 -65,32.47 -137.5,52.27 -214.1,56.18 v 0.08 h -0.8 c -9.1,0.47 -18.3,0.71 -27.6,0.71 -9.2,0 -144,2.34 -144,2.34 l -20.5,-1086.11 117.1,-1.26 c 111.3,3.37 207.9,13.78 293.9,57.52 61,31.15 133.4,-13.61 133.4,-82.17 v -767.22 c 0,-111.83 90.7,-202.53 202.5,-202.53 h 2672 c 109.3,0 197.9,88.59 197.9,197.91 V 4399.1 c 0,113.47 -92,205.42 -205.4,205.42" /></g><g
       transform="matrix(0.126656,0,0,0.126656,0,-18)"
       id="g980"><path
         inkscape:connector-curvature="0"
         id="path982"
         style="fill:#f1a34f;fill-opacity:1;fill-rule:nonzero;stroke:none"
         d="m 12695,2563.09 c 134.4,-28.98 262.7,-8.61 370.5,46.34 61.6,31.43 134.7,-13.81 134.7,-82.98 v -773.98 c 0,-112.91 91.5,-204.42 204.3,-204.42 h 2695.8 c 110.3,0 199.7,89.38 199.7,199.68 v 2692.89 c 0,114.48 -92.8,207.33 -207.3,207.33 h -750.6 c -97.1,0 -158.9,-104.14 -111.9,-189.17 45.3,-82.12 70.2,-177.1 67.8,-278 -6.8,-284.55 -234,-518.97 -518.3,-533.97 -316.1,-16.58 -577.7,234.81 -577.7,547.31 0,117.56 37.1,226.52 100.1,315.74 40.9,58.03 -0.4,138.09 -71.3,138.09 h -826.2 c -112.9,0 -204.4,-91.59 -204.4,-204.49 v -769.25 c 0,-71.22 -74.9,-117.48 -138.6,-85.67 -73.6,36.8 -156.7,57.56 -244.7,57.56 -345.6,0 -616.5,-320.08 -532.6,-680.03 42.3,-181.2 228.8,-363.82 410.7,-402.98" /></g><path
       inkscape:connector-curvature="0"
       id="path984"
       style="fill:#acd29a;fill-opacity:1;fill-rule:nonzero;stroke:none;stroke-width:0.1"
       d="m 619.293,176.16 61.366,-0.45 c 0,0 -2.135,14.85 -43.444,18.68 v 0 c -16.015,44.48 -63.063,164.15 -103.918,158.5 -40.338,-5.59 55.196,-115.38 94.061,-158.07 -5.499,-0.01 -10.625,-0.45 -15.356,-1.21 -9.362,18.64 -27.926,44.99 -57.719,43.79 -31.707,-1.28 11.49,-30.24 41.23,-48.02 -15.064,-5.4 -23.199,-12.88 -23.199,-12.88 l 46.282,-0.34 c 0.545,-0.29 0.84,-0.45 0.84,-0.45 0,0 -0.048,0.16 -0.143,0.45" /><path
       inkscape:connector-curvature="0"
       id="path986"
       style="fill:#ea8e50;fill-opacity:1;fill-rule:nonzero;stroke:none;stroke-width:0.1"
       d="m 838.547,672.04 9.079,-7.37 c 0,0 24.839,8.91 30.444,-20.61 0,0 1.493,-12.58 -6.475,-12.6 -7.968,-0.03 -4.681,1.37 -15.964,1.04 -11.283,-0.33 -20.635,5.62 -22.288,14.78 l -5.398,7.76 10.602,17" /><path
       inkscape:connector-curvature="0"
       id="path988"
       style="fill:#1e3d70;fill-opacity:1;fill-rule:nonzero;stroke:none;stroke-width:0.1"
       d="m 837.52,656.22 c 7.243,7.56 6.66,13.15 6.66,13.15 0,0 -83.883,68.679 -92.39,74.275 -5.797,3.812 -67.573,58.579 -96.45,91.966 -14.323,16.562 -32.066,10.135 -52.365,4.311 l -16.717,-4.796 c -20.186,-5.791 -25.436,-34.023 -8.873,-47.742 46.645,-38.636 124.242,-82.094 138.76,-91.226 36.043,-22.678 106.594,-49.618 106.594,-49.618 0,0 8.56,3.18 14.781,9.68" /><path
       inkscape:connector-curvature="0"
       id="path990"
       style="fill:#233862;fill-opacity:1;fill-rule:nonzero;stroke:none;stroke-width:0.1"
       d="m 935.689,234.99 c 0,0 20.357,-15.25 51.549,-7.2 0,0 25.152,5.74 30.662,-6.81 0,0 -38.567,-19.59 -48.328,-24.95 -7.355,-4.04 -15.032,-10.41 -20.459,-15.34 -4.295,-3.9 -10.985,-3.37 -14.646,1.13 -1.697,2.08 -3.639,4.57 -5.767,7.45 -5.946,8.06 -19.804,34.09 -19.804,34.09 l 26.793,11.63" /><path
       inkscape:connector-curvature="0"
       id="path992"
       style="fill:#2b478b;fill-opacity:1;fill-rule:nonzero;stroke:none;stroke-width:0.1"
       d="m 945.195,242.03 c 0,0 -12.396,-28.58 -41.009,-23.33 0,0 -58.388,48.22 -98.438,98.31 -13.007,16.27 -24.082,32.74 -30.59,47.81 -26.558,61.49 -98.241,153.2 -143.817,199.68 l 114.028,41.25 c 0,0 36.524,-73.47 85.119,-163.72 35.023,-65.02 76.303,-138.76 114.707,-200" /><path
       inkscape:connector-curvature="0"
       id="path994"
       style="fill:#233862;fill-opacity:1;fill-rule:nonzero;stroke:none;stroke-width:0.1"
       d="m 830.488,442.03 -24.74,-125.02 c -13.007,16.27 -24.082,32.74 -30.59,47.81 -26.558,61.49 -98.241,153.2 -143.817,199.68 l 114.028,41.25 c 0,0 36.524,-73.47 85.119,-163.72" /><path
       inkscape:connector-curvature="0"
       id="path996"
       style="fill:#233862;fill-opacity:1;fill-rule:nonzero;stroke:none;stroke-width:0.1"
       d="m 736.984,218.77 c 0,0 -1.243,-22.8 26.406,-25.85 0,0 15.799,-0.08 15.844,-14.59 l -80.357,-0.26 c 0,0 -2.333,5.86 -2.899,18.4 -0.435,9.63 9.335,34.81 9.335,34.81 l 31.671,-12.51" /><path
       inkscape:connector-curvature="0"
       id="path998"
       style="fill:#2b478b;fill-opacity:1;fill-rule:nonzero;stroke:none;stroke-width:0.1"
       d="m 707.968,605.75 c 0,0 50.798,-55.82 83.044,-156.38 17.544,-54.71 -32.157,-192.28 -41.846,-240.07 0,0 -33.341,-2.83 -56.138,5.98 0,0 -1.732,98.72 11.601,174.81 7.461,42.58 -66.885,91.07 -99.371,168.01 -22.1,52.34 4.786,51.45 37.827,52.71 l 64.883,-5.06" /><path
       inkscape:connector-curvature="0"
       id="path1000"
       style="fill:#ffb07b;fill-opacity:1;fill-rule:nonzero;stroke:none;stroke-width:0.1"
       d="m 649.327,854.778 c -28.263,-15.959 -86.122,-1.241 -86.122,-1.241 0,0 23.497,26.863 12.82,70.126 l 22.191,-11.269 23.837,-12.106 c 0,0 1.54,-7.641 2.612,-21.364 0.273,-3.534 0.517,-7.482 0.686,-11.795 14.511,-4.4 23.976,-12.351 23.976,-12.351" /><path
       inkscape:connector-curvature="0"
       id="path1002"
       style="fill:#2a4e96;fill-opacity:1;fill-rule:nonzero;stroke:none;stroke-width:0.1"
       d="m 752.962,608.63 c 0,-4.96 -5.722,-7.34 -6.938,-7.58 -11.398,-2.09 -43.227,-14.47 -71.9,-17.31 -24.143,-2.53 -46.559,-0.12 -71.185,4.82 -3.26,0.66 -10.916,2.72 -11.46,5.84 -0.679,3.42 -94.987,192.258 -21.673,273.376 1.721,1.903 16.193,-1.524 29.427,-4.665 12.222,-2.899 23.433,-1.283 33.445,2.733 l 12.411,-6.531 c 15.241,-8.493 44.081,-38.667 47.455,-62.343 1.714,-12.041 8.6,-20.957 10.592,-31.549 0.74,-3.919 1.496,-7.746 2.265,-11.475 1.502,-7.315 3.051,-14.276 4.643,-20.897 4.311,-17.907 8.863,-33.323 13.333,-46.641 4.756,-14.138 9.421,-25.898 13.588,-35.738 5.405,-12.76 9.973,-22.3 12.827,-29.6 2.016,-5.14 3.17,-9.17 3.17,-12.44" /><path
       inkscape:connector-curvature="0"
       id="path1004"
       style="fill:#1e3d70;fill-opacity:1;fill-rule:nonzero;stroke:none;stroke-width:0.1"
       d="M 749.792,621.07 C 616.665,683.796 570.56,804.233 570.56,804.233 c 0,0 108.162,-39.899 134.841,-50.287 1.502,-7.315 3.051,-14.276 4.643,-20.897 4.311,-17.907 8.863,-33.323 13.333,-46.641 4.756,-14.138 9.421,-25.898 13.588,-35.738 5.405,-12.76 9.973,-22.3 12.827,-29.6" /><path
       inkscape:connector-curvature="0"
       id="path1006"
       style="fill:#4a75cb;fill-opacity:1;fill-rule:nonzero;stroke:none;stroke-width:0.1"
       d="m 1125.83,754.467 -28.52,90.422 c -2.77,8.781 -11.85,12.938 -19.79,10.705 v 0 l -0.02,-0.006 c -0.42,-0.12 -0.84,-0.264 -1.25,-0.419 l -10,-3.34 c 0,0 -15.66,-16.121 -26.89,-19.372 -34.54,-9.993 -67.323,8.415 -79.924,42.088 -14.016,37.454 2.245,78.582 39.893,90.455 12.881,4.062 38.231,-3.508 38.231,-3.508 l 10.18,3.382 c 5.53,1.681 9.32,7.645 7.35,13.905 l -31.39,99.521 c -4.29,13.61 -18.79,21.16 -32.397,16.87 l -92.675,-29.23 c -8.577,-2.7 -16.996,4.56 -15.581,13.44 1.636,10.27 0.974,21.06 -2.365,31.65 -13.134,41.65 -61.983,62.13 -102.157,38.34 -20.226,-11.97 -35.133,-41.39 -32.946,-64.79 1.616,-17.29 8.943,-31.98 19.658,-42.87 6.126,-6.23 3.456,-16.75 -4.876,-19.37 L 667.11,992.93 c -13.597,-4.29 -21.143,-18.79 -16.855,-32.387 L 752.676,635.77 c 4.189,-13.28 18.355,-20.65 31.64,-16.46 l 324.414,102.305 c 13.79,4.35 21.45,19.058 17.1,32.852" /><path
       inkscape:connector-curvature="0"
       id="path1008"
       style="fill:#699dee;fill-opacity:1;fill-rule:nonzero;stroke:none;stroke-width:0.1"
       d="m 735.71,1081.29 c 1.616,-17.29 8.943,-31.98 19.659,-42.87 6.125,-6.23 3.455,-16.74 -4.877,-19.37 l -93.25,-29.41 c -13.597,-4.29 -21.144,-18.789 -16.856,-32.387 L 742.807,632.48 c 4.189,-13.28 18.355,-20.65 31.64,-16.46 l 324.413,102.306 c 13.8,4.35 21.45,19.058 17.1,32.852 l -28.52,90.421 c -3.69,11.698 -18.58,15.19 -27.04,6.304 -8.16,-8.582 -18.66,-15.191 -30.91,-18.737 -34.54,-9.992 -71.413,8.481 -84.014,42.154 -14.016,37.454 6.336,78.518 43.985,90.391 14.159,4.466 28.689,4.144 41.839,-0.057 8.54,-2.73 16.62,5.282 13.92,13.836 l -31.39,99.53 c -4.29,13.6 -18.793,21.15 -32.395,16.86 l -92.676,-29.23 c -8.576,-2.7 -16.996,4.56 -15.581,13.44 1.635,10.27 0.974,21.06 -2.366,31.65 -13.134,41.65 -61.98,62.13 -102.155,38.35 -20.227,-11.98 -35.135,-41.4 -32.947,-64.8" /><path
       inkscape:connector-curvature="0"
       id="path1010"
       style="fill:#ffb07b;fill-opacity:1;fill-rule:nonzero;stroke:none;stroke-width:0.1"
       d="m 827.681,657.42 11.504,-4.22 c 0,0 23.038,16.29 37.379,-10.2 0,0 5.189,-11.57 -3.023,-14.08 -8.213,-2.52 -5.227,-0.15 -16.77,-4 -11.542,-3.84 -22.914,-1.07 -27.274,7.17 l -7.818,5.74 6.002,19.59" /><path
       inkscape:connector-curvature="0"
       id="path1012"
       style="fill:#2a4e96;fill-opacity:1;fill-rule:nonzero;stroke:none;stroke-width:0.1"
       d="m 837.148,641.15 c 4.254,11.1 6.197,16.13 6.197,16.13 0,0 -86.927,70.852 -95.783,76.929 -6.037,4.141 -66.123,49.055 -95.417,84.058 -14.532,17.362 -37.444,25.299 -59.604,20.653 l -18.247,-3.827 c -22.034,-4.621 -29.193,-32.51 -12.101,-47.162 48.139,-41.269 129.33,-89.134 144.468,-99.089 37.581,-24.712 120.704,-59.342 120.704,-59.342 0,0 6.444,2.94 9.783,11.65" /><path
       inkscape:connector-curvature="0"
       id="path1014"
       style="fill:#ea8e50;fill-opacity:1;fill-rule:nonzero;stroke:none;stroke-width:0.1"
       d="m 624.665,878.924 c -27.792,-1.561 -45.866,21.387 -45.866,21.387 0,0 12.565,6.96 19.417,12.083 l 23.837,-12.106 c 0,0 1.54,-7.641 2.612,-21.364" /><path
       inkscape:connector-curvature="0"
       id="path1016"
       style="fill:#ffb07b;fill-opacity:1;fill-rule:nonzero;stroke:none;stroke-width:0.1"
       d="m 636.506,907.459 c 0,0 -42.111,-30.221 -60.527,-3.706 -18.416,26.515 -36.254,40.471 -10.146,60.887 26.109,20.42 38.416,13.965 46.715,6.611 8.3,-7.355 34.437,-55.248 23.958,-63.792" /><path
       inkscape:connector-curvature="0"
       id="path1018"
       style="fill:#233862;fill-opacity:1;fill-rule:nonzero;stroke:none;stroke-width:0.1"
       d="m 616.997,995.2 c -1.51,10.19 -4.907,17.36 -4.907,17.36 0,0 -2.643,-10.95 -22.649,-9.44 -20.005,1.51 -51.713,-1.96 -62.283,-24.761 -0.673,-1.451 -1.272,-2.945 -1.804,-4.472 -1.914,5.054 -2.375,12.633 -2.375,12.633 -3.801,-9.819 0,-22.096 0,-22.096 h 10e-4 c -0.056,-0.357 -0.104,-0.716 -0.156,-1.075 -4.414,-3.733 -8.123,-15.336 -8.123,-15.336 1.333,3.234 4.582,5.347 7.48,6.648 -0.09,-17.739 7.103,-35.081 19.73,-40.244 18.465,-7.549 18.318,-1.79 36.888,-14.106 0,0 4.98,6.179 1.584,10.332 -3.399,4.152 -16.232,10.191 -9.06,16.231 7.172,6.039 9.814,-0.755 12.456,3.397 2.643,4.153 -10.568,16.232 6.417,27.555 16.987,11.324 28.311,27.184 26.801,37.374" /><g
       transform="matrix(0.10436,0,0,0.10436,0,-18)"
       id="g1020"><path
         inkscape:connector-curvature="0"
         id="path1022"
         style="fill:#82b378;fill-opacity:1;fill-rule:nonzero;stroke:none"
         d="m 16300,1877.26 c 0,0 -204.1,301.65 -523.4,277.31 -97.1,-7.38 -254.8,-31.04 -438,-56.25 -138.2,482.18 -519,1628.22 -1032.7,1692.81 -524.5,65.83 502,-1208.71 921.8,-1707.76 -76.5,-10.06 -156.1,-19.93 -236.3,-28.65 -222.3,237.36 -609.6,588.93 -933,561.91 -324.1,-27.12 282.8,-362.31 721,-581.55 -268.9,-20.12 -523.8,-17.92 -679.5,42.26 -381.5,147.47 -732.1,-200.08 -732.1,-200.08 H 16300" /></g></g></svg>