<?xml version="1.0" encoding="UTF-8" standalone="no"?>
<!-- Created with Inkscape (http://www.inkscape.org/) -->

<svg
   xmlns:dc="http://purl.org/dc/elements/1.1/"
   xmlns:cc="http://creativecommons.org/ns#"
   xmlns:rdf="http://www.w3.org/1999/02/22-rdf-syntax-ns#"
   xmlns:svg="http://www.w3.org/2000/svg"
   xmlns="http://www.w3.org/2000/svg"
   xmlns:sodipodi="http://sodipodi.sourceforge.net/DTD/sodipodi-0.dtd"
   xmlns:inkscape="http://www.inkscape.org/namespaces/inkscape"
   version="1.1"
   id="svg2"
   xml:space="preserve"
   width="4266.6665"
   height="2666.6667"
   viewBox="0 0 4266.6665 2666.6667"
   sodipodi:docname="5.svg"
   inkscape:version="0.92.5 (2060ec1f9f, 2020-04-08)"><metadata
     id="metadata8"><rdf:RDF><cc:Work
         rdf:about=""><dc:format>image/svg+xml</dc:format><dc:type
           rdf:resource="http://purl.org/dc/dcmitype/StillImage" /><dc:title></dc:title></cc:Work></rdf:RDF></metadata><defs
     id="defs6" /><sodipodi:namedview
     pagecolor="#ffffff"
     bordercolor="#666666"
     borderopacity="1"
     objecttolerance="10"
     gridtolerance="10"
     guidetolerance="10"
     inkscape:pageopacity="0"
     inkscape:pageshadow="2"
     inkscape:window-width="1366"
     inkscape:window-height="668"
     id="namedview4"
     showgrid="false"
     inkscape:zoom="0.085312503"
     inkscape:cx="2133.3333"
     inkscape:cy="1333.3334"
     inkscape:window-x="0"
     inkscape:window-y="27"
     inkscape:window-maximized="1"
     inkscape:current-layer="g10" /><g
     id="g10"
     inkscape:groupmode="layer"
     inkscape:label="ink_ext_XXXXXX"
     transform="matrix(1.3333333,0,0,-1.3333333,0,2666.6667)"><g
       transform="matrix(0.22146498,0,0,0.25668108,-829.91026,-100.80319)"
       id="g18"><path
         inkscape:connector-curvature="0"
         id="path20"
         style="fill:#fcecdb;fill-opacity:1;fill-rule:nonzero;stroke:none"
         d="m 15986.8,1111.44 c 0,0 313.2,3421.42 -2895.3,3421.42 -3466.4,0 -1443,1995.19 -3734.49,2571.84 C 7334.53,7613.66 6042.6,5410 6884.31,4025.36 7490.18,3028.73 5017.16,2476.36 5312.87,1090.86 l 10673.93,20.58" /></g><g
       transform="matrix(0.14851556,0,0,0.17213167,-829.91026,-100.80319)"
       id="g36"><path
         inkscape:connector-curvature="0"
         id="path38"
         style="fill:#2c3a64;fill-opacity:1;fill-rule:nonzero;stroke:none"
         d="m 14689.8,9032.83 c -24.2,43.85 -302.1,507.19 -1047.2,161.67 0,0 381.9,139.32 524.3,12.47 0,0 -344.3,71.55 -512.2,-92.44 -167.8,-164.03 -108.1,-573.24 -51,-688.89 57,-115.74 355.8,-430.55 498.5,-397.96 54,12.35 107.7,43.48 153.5,77.52 -7,-69.71 -10.7,-144.6 -9.5,-225.39 11.4,-747.9 609.5,-1181.71 824.2,-991.72 137.6,121.91 319.5,-126.17 319.5,-126.17 L 16300,8790.1 c 0,0 -1159.2,885.16 -1610.2,242.73" /></g><g
       transform="matrix(0.1531761,0,0,0.1775333,-829.91026,-100.80319)"
       id="g40"><path
         inkscape:connector-curvature="0"
         id="path42"
         style="fill:#ffb27d;fill-opacity:1;fill-rule:nonzero;stroke:none"
         d="m 16300,4672.96 c -185,-128.32 -416.9,-234.12 -708.1,-301.27 -1091.4,-252.24 -1509.7,670.22 -1666.7,1303.39 148.9,85.19 288.9,103.94 369.8,113.62 78.8,9.33 161.8,15.49 230.5,18.92 122.6,93.82 305.2,478 345.5,1074.46 l 51.4,-13.72 860.2,-235.44 c 0,0 -39.5,-273.45 -58.7,-531.86 -15,-202.26 -17.4,-395.53 21,-442.79 67.1,-14.53 107.4,-24.03 107.4,-24.03 0,0 0,-0.36 0.4,-0.88 11.5,-18.92 261.1,-429.24 447.3,-960.4" /></g><g
       transform="matrix(0.14831334,0,0,0.17189729,-829.91026,-100.80319)"
       id="g44"><path
         inkscape:connector-curvature="0"
         id="path46"
         style="fill:#ed985f;fill-opacity:1;fill-rule:nonzero;stroke:none"
         d="m 16300,6850.2 c 0,0 -40.8,-282.15 -60.6,-549.3 -503.3,50.45 -736.9,529.57 -827.8,792.45 L 16300,6850.2" /></g><g
       transform="matrix(0.15352392,0,0,0.17793643,-829.91026,-100.80319)"
       id="g48"><path
         inkscape:connector-curvature="0"
         id="path50"
         style="fill:#ffb27d;fill-opacity:1;fill-rule:nonzero;stroke:none"
         d="m 16012.1,6523.3 c 0,0 -1122.4,-275.91 -1283.4,425.72 -161.1,701.63 -414.4,1138.5 295.4,1344.33 709.9,205.84 911,-29.85 1021.7,-250.97 110.7,-221.11 254.2,-1429.25 -33.7,-1519.08" /></g><g
       transform="matrix(0.15311544,0,0,0.17746299,-829.91026,-100.80319)"
       id="g52"><path
         inkscape:connector-curvature="0"
         id="path54"
         style="fill:#2c3a64;fill-opacity:1;fill-rule:nonzero;stroke:none"
         d="m 15965.6,8447.42 c -222.9,171.78 -344.3,95.18 -403.7,14.62 -695,198.46 -978.2,-394.28 -978.2,-394.28 39.7,-522.12 -258.2,-894.56 -258.2,-894.56 0,0 234.9,-80.12 681.6,150.39 136.5,70.35 242.4,202.95 323.9,353.07 -118.6,-365.84 -327,-657.54 -327,-657.54 507.1,391.55 554.7,1232.14 558.3,1320.71 83.2,-46.14 249.8,-149.68 321.3,-272.07 97.3,-166.32 206.8,-529.43 311.5,-492.27 0,0 104.9,614.31 -229.5,871.93" /></g><g
       transform="matrix(0.16530266,0,0,0.19158815,-829.91026,-100.80319)"
       id="g56"><path
         inkscape:connector-curvature="0"
         id="path58"
         style="fill:#f99746;fill-opacity:1;fill-rule:nonzero;stroke:none"
         d="m 15104.1,5137.48 c -145.5,77.47 -332.8,134.89 -536.5,177.22 0,0 -105.1,-270.44 -425.2,-264.65 -304,5.62 -604.9,341.96 -634.2,375.48 -348.4,11.17 -604.5,0.16 -604.5,0.16 0,0 -733.9,-1148.31 -643,-1414.26 59.8,-175.27 107,-348.41 143.7,-516.82 170.7,-783.35 116.7,-1465.65 73.2,-1785.11 -16.8,-123.56 -31.9,-192.88 -31.9,-192.88 l 2311.3,-53.66 c 0,0 191.5,681.72 333.5,1263.39 4.3,17.45 8.5,34.9 12.7,52.11 96.2,-198.34 369.3,-496.59 492.9,-520 7.4,-1.39 42.1,-2.21 92,-2.61 185,-1.55 543.1,-4 543.1,-4 68.8,548.06 -826.4,2755.21 -1127.1,2885.63" /></g><path
       inkscape:connector-curvature="0"
       id="path60"
       style="fill:#ed7d2b;fill-opacity:1;fill-rule:nonzero;stroke:none;stroke-width:0.14513783"
       d="m 1232.6689,226.71621 c 7.1856,61.20383 16.1103,191.92408 -12.1064,342.00394 0.1214,1.7344 0.1753,2.65628 0.1753,2.65628 0,0 104.5216,-115.7357 122.5868,-236.75273 12.322,-82.61032 -62.9314,-104.14182 -110.6557,-107.90749" /><g
       transform="matrix(0.14471784,0,0,0.16773006,-829.91026,-100.80319)"
       id="g62"><path
         inkscape:connector-curvature="0"
         id="path64"
         style="fill:#ffb27d;fill-opacity:1;fill-rule:nonzero;stroke:none"
         d="m 16300,2596 c -14.9,47.6 -254.6,291.86 -384.4,321.85 -129.7,29.91 -558.3,-68.65 -558.3,-68.65 v 0 c -265.8,35.4 -872.2,130.51 -1582.3,336.76 -125.1,36.33 -253.4,76.02 -383.7,119.61 l 1081.6,975.17 956.7,1916.51 c 0,0 -811.3,64 -1016.6,-58.41 C 13674.1,5698.49 12305.3,3128.3 12331.2,2596 c 0,0 346.8,-19.1 980.1,-27.11 486.6,-6.34 1142.6,-5.96 1940.4,14.44 0,0 87.7,0.56 179.8,12.67 h 868.5" /></g><g
       transform="matrix(0.13699029,0,0,0.15877371,-829.91026,-100.80319)"
       id="g66"><path
         inkscape:connector-curvature="0"
         id="path68"
         style="fill:#f99746;fill-opacity:1;fill-rule:nonzero;stroke:none"
         d="M 15289.3,4522.21 14281.5,3479.83 c 99.3,-37.59 202.9,-91.23 270.5,-114.16 0,0 -92.1,-396.4 -489.8,-651.87 -669.1,8.46 -1035.4,28.64 -1035.4,28.64 -27.4,562.32 1418.6,3277.49 2199.2,3742.68 216.9,129.31 1074,61.71 1074,61.71 L 15289.3,4522.21" /></g><g
       transform="matrix(0.16461375,0,0,0.1907897,-829.91026,-100.80319)"
       id="g70"><path
         inkscape:connector-curvature="0"
         id="path72"
         style="fill:#ed7d2b;fill-opacity:1;fill-rule:nonzero;stroke:none"
         d="m 16299.1,2261.28 c -50.1,0.41 -630.3,5.24 -637.7,6.63 -124.1,23.51 -398.4,323 -495,522.18 -4.2,-17.28 30.8,188.53 63.2,271.98 70.1,179.93 163.5,332.59 163.5,332.59 333.5,50.2 906.9,-816.77 906,-1133.38" /></g><g
       transform="matrix(0.1648335,0,0,0.1910444,-829.91026,-100.80319)"
       id="g74"><path
         inkscape:connector-curvature="0"
         id="path76"
         style="fill:#ffb27d;fill-opacity:1;fill-rule:nonzero;stroke:none"
         d="m 16257.5,2780.63 c -73.8,559.18 -231.4,1527.79 -541.5,2642.64 l -1.8,0.17 c -18.3,70.34 -162.2,619.7 -222.3,679.9 -64.3,64.28 -403.3,198.99 -461.7,213.46 0,0 -9.5,-38.84 25.6,-69.6 10.2,-8.91 29.8,-22.73 53.5,-38.35 l -80.3,-43.19 c 0,0 30.2,-26.33 75.1,-19.71 21.4,3.11 50.5,11.13 75.2,18.65 16.6,-10.22 33.1,-19.96 48,-28.71 25.2,-23.88 55.2,-54.06 57.8,-64.86 3,-12.76 14,-69.03 20.8,-104.6 -12.5,11.04 -23.2,22.24 -30.1,33.04 -32.2,49.65 -99.4,44.57 -99.4,44.57 0,0 92,-115.65 100.8,-190.56 13.2,-114.1 76.8,-173.88 76.8,-173.88 h 0.1 c 23.4,-27.57 56.4,-52.26 84.2,-110.09 20.4,-42.28 28.4,-123.25 34,-169.87 h 0.1 c 13.7,-168.49 61,-789.58 48.1,-1246.86 -17.4,-615.45 -75.7,-1167.11 -6.5,-1509.4 17.8,-88.65 44.3,-163.24 82.1,-221.31 150.9,-231.38 681.2,-163.82 681.2,-163.82 0,0 22.7,200.13 -19.8,522.38" /></g><g
       transform="matrix(0.1648335,0,0,0.1910444,-829.91026,-100.80319)"
       id="g78"><path
         inkscape:connector-curvature="0"
         id="path80"
         style="fill:#f99746;fill-opacity:1;fill-rule:nonzero;stroke:none"
         d="m 16277.3,2258.25 c 0,0 -530.3,-67.56 -681.2,163.82 -37.8,58.07 -64.3,132.66 -82.1,221.31 113.7,-28.54 424.9,-76.63 743.5,137.25 42.5,-322.25 19.8,-522.38 19.8,-522.38" /></g><g
       transform="matrix(0.22933275,0,0,0.26579994,-829.91026,-100.80319)"
       id="g320"><path
         inkscape:connector-curvature="0"
         id="path322"
         style="fill:#82b378;fill-opacity:1;fill-rule:nonzero;stroke:none"
         d="m 14562.8,1830.17 c 0,0 -309.9,361.65 -19.1,591.32 0,0 212.5,128.63 385.7,118.16 0,0 -245.5,-411.55 -166.1,-452.53 79.5,-40.91 240.5,478.4 240.5,478.4 0,0 483.5,46.85 639,-27.92 0,0 -413.3,-338.2 -326.2,-358.36 87,-20.1 533.4,311.86 533.4,311.86 0,0 450,-76.6 426,-351.07 -24,-274.53 -179,-359.24 -247.2,-351.95 -68.1,7.29 -466.7,159.43 -475.4,103.64 -8.7,-55.85 231.2,-238.32 399.2,-246.9 0,0 -317.2,-349.83 -528,-248.84 -210.8,100.94 -228.9,261.01 -360.3,321.03 -131.4,60.02 -243.6,59.9 -189.3,-1.35 54.2,-61.2 292.1,-120.69 367.2,-253.66 75.2,-132.98 142.6,-222.62 -75.5,-189.82 -218.1,32.86 -572.7,192.46 -588.3,375.23 -15.6,182.76 -15.6,182.76 -15.6,182.76" /></g><g
       transform="matrix(0.2258842,0,0,0.26180302,-829.91026,-100.80319)"
       id="g324"><path
         inkscape:connector-curvature="0"
         id="path326"
         style="fill:#82b378;fill-opacity:1;fill-rule:nonzero;stroke:none"
         d="m 16300,2165.18 c 0,0 -1240.8,47.8 -1514.9,-307.07 0,0 -60.5,-181.5 -247.1,-346.76 l -29,-79.2 c 0,0 215,226.68 291.9,240.41 0,0 -120.3,439.62 1499.1,492.62" /></g><g
       transform="matrix(0.20301832,0,0,0.23530115,-829.91026,-100.80319)"
       id="g328"><path
         inkscape:connector-curvature="0"
         id="path330"
         style="fill:#82b378;fill-opacity:1;fill-rule:nonzero;stroke:none"
         d="m 16233.1,1683.43 c -12,-13.08 -29.7,-30.68 -55,-54.19 -0.5,-0.39 -0.9,-0.79 -1.4,-1.26 -8.2,-7.7 -16.3,-15.93 -24.1,-24.63 -49.2,-54.66 -91.3,-128.63 -125.9,-204.27 -6.8,-14.94 -13.4,-30.01 -19.6,-44.95 h -80.8 c 6.9,15.54 14,30.48 21.4,44.95 94,183.55 227.7,282.49 227.7,282.49 0,0 0.1,0.07 0.2,0.07 5,3.12 124.4,75.23 57.5,1.79" /></g><g
       transform="matrix(0.19978952,0,0,0.23155892,-829.91026,-100.80319)"
       id="g332"><path
         inkscape:connector-curvature="0"
         id="path334"
         style="fill:#a8d29f;fill-opacity:1;fill-rule:nonzero;stroke:none"
         d="m 15734,2632.25 c 0,0 566,316.95 301.8,747.12 0,0 -211.3,264.11 -437.6,331.99 0,0 120.7,-641.45 0,-656.49 -120.8,-15.12 -83,724.44 -83,724.44 0,0 -596.2,286.78 -830.2,264.11 0,0 369.8,-626.33 249,-611.28 -120.7,15.11 -535.7,649 -535.7,649 0,0 -611.3,113.23 -709.4,-248.99 -98.1,-362.23 60.4,-543.4 150.9,-566.01 90.6,-22.67 671.6,-15.11 656.6,-90.55 -15.1,-75.44 -407.5,-196.23 -626.4,-128.28 0,0 241.5,-596.17 558.4,-566.01 317,30.16 415.1,226.39 611.3,241.51 196.2,15.05 339.6,-37.72 241.5,-90.56 -98.1,-52.83 -430.2,-17.34 -588.7,-152.03 -158.4,-134.75 -286.7,-217.75 7.6,-278.14 294.3,-60.39 822.6,-22.6 928.2,203.78 105.7,226.39 105.7,226.39 105.7,226.39" /></g><g
       transform="matrix(0.19590552,0,0,0.22705731,-829.91026,-100.80319)"
       id="g336"><path
         inkscape:connector-curvature="0"
         id="path338"
         style="fill:#82b378;fill-opacity:1;fill-rule:nonzero;stroke:none"
         d="m 14245.1,3792.66 c 0,0 1616.2,-523.34 1800.9,-1108.21 0,0 -7.7,-261.71 153.9,-561.82 v -115.47 c 0,0 -169.3,392.53 -261.7,446.41 0,0 361.8,507.93 -1693.1,1339.09" /></g><g
       transform="matrix(0.1970029,0,0,0.22832919,-829.91026,-100.80319)"
       id="g340"><path
         inkscape:connector-curvature="0"
         id="path342"
         style="fill:#82b378;fill-opacity:1;fill-rule:nonzero;stroke:none"
         d="m 16251.9,1441.8 c -1.9,-15.33 -4.3,-30.72 -7,-46.32 h -83.5 c 0.9,14.3 1.9,29.83 2.6,46.32 7.6,155.28 6,399.45 -60.2,567.17 -0.3,0.76 -0.5,1.51 -0.9,2.19 -5.6,14.17 -11.7,27.72 -18.3,40.65 -0.2,0.34 -0.4,0.62 -0.5,0.96 -18.8,36.95 -31.6,64.26 -39.8,84.1 0,0 0,0.07 0,0.14 -46,112.78 60.4,-20.05 65.1,-26 0.1,-0.14 0.2,-0.21 0.2,-0.21 0,0 190.4,-289.06 142.3,-669" /></g><g
       transform="matrix(0.23583888,0,0,0.27334065,-829.91026,-100.80319)"
       id="g344"><path
         inkscape:connector-curvature="0"
         id="path346"
         style="fill:#a8d29f;fill-opacity:1;fill-rule:nonzero;stroke:none"
         d="m 13906.7,2778.28 c 0,0 -632,353.9 -337.1,834.25 0,0 236,294.97 488.8,370.82 0,0 -134.8,-716.32 0,-733.18 134.8,-16.87 92.7,809.04 92.7,809.04 0,0 665.7,320.23 927,294.96 0,0 -412.9,-699.45 -278.1,-682.65 134.8,16.87 598.3,724.78 598.3,724.78 0,0 682.6,126.39 792.2,-278.1 109.5,-404.49 -67.4,-606.79 -168.6,-632.06 -101.1,-25.27 -750,-16.86 -733.1,-101.12 16.8,-84.26 455.1,-219.11 699.4,-143.26 0,0 -269.7,-665.72 -623.6,-632.06 -353.9,33.73 -463.5,252.84 -682.6,269.7 -219.1,16.87 -379.2,-42.13 -269.7,-101.12 109.6,-58.99 480.4,-19.32 657.4,-169.78 176.9,-150.45 320.2,-243.17 -8.5,-310.57 -328.6,-67.45 -918.6,-25.32 -1036.5,227.52 -118,252.83 -118,252.83 -118,252.83" /></g><g
       transform="matrix(0.22974258,0,0,0.26627495,-829.91026,-100.80319)"
       id="g348"><path
         inkscape:connector-curvature="0"
         id="path350"
         style="fill:#82b378;fill-opacity:1;fill-rule:nonzero;stroke:none"
         d="m 16300,4097.68 c 0,0 -1816.6,-588.22 -2024.3,-1245.68 0,0 8.7,-294.16 -173,-631.52 v -129.74 c 0,0 190.4,441.16 294.2,501.72 0,0 -406.6,570.96 1903.1,1505.22" /></g><g
       transform="matrix(0.20123608,0,0,0.2332355,-829.91026,-100.80319)"
       id="g352"><path
         inkscape:connector-curvature="0"
         id="path354"
         style="fill:#82b378;fill-opacity:1;fill-rule:nonzero;stroke:none"
         d="m 16100.4,2535.03 c 0,0 -319.8,-485.71 -137.4,-1076.92 l 82.2,22.11 c 0,0 -79.8,651.17 87.5,978.7 167.3,327.53 -32.3,76.11 -32.3,76.11" /></g><g
       transform="matrix(0.19280748,0,0,0.22346664,-829.91026,-100.80319)"
       id="g356"><path
         inkscape:connector-curvature="0"
         id="path358"
         style="fill:#2c3a64;fill-opacity:1;fill-rule:nonzero;stroke:none"
         d="M 15635.8,1936.27 H 7806.48 c -366.88,0 -664.26,-297.37 -664.26,-664.25 v 0 H 16300 v 0 c 0,366.88 -297.4,664.25 -664.2,664.25" /></g><g
       transform="matrix(0.20415481,0,0,0.23661835,-829.91026,-100.80319)"
       id="g360"><path
         inkscape:connector-curvature="0"
         id="path362"
         style="fill:#2b478b;fill-opacity:1;fill-rule:nonzero;stroke:none"
         d="M 15672.7,1828.66 H 8278.47 c -346.42,0 -627.27,-280.85 -627.27,-627.34 v 0 H 16300 v 0 c 0,346.49 -280.8,627.34 -627.3,627.34" /></g></g></svg>