<?xml version="1.0" encoding="UTF-8" standalone="no"?>
<!-- Created with Inkscape (http://www.inkscape.org/) -->

<svg
   xmlns:dc="http://purl.org/dc/elements/1.1/"
   xmlns:cc="http://creativecommons.org/ns#"
   xmlns:rdf="http://www.w3.org/1999/02/22-rdf-syntax-ns#"
   xmlns:svg="http://www.w3.org/2000/svg"
   xmlns="http://www.w3.org/2000/svg"
   xmlns:sodipodi="http://sodipodi.sourceforge.net/DTD/sodipodi-0.dtd"
   xmlns:inkscape="http://www.inkscape.org/namespaces/inkscape"
   version="1.1"
   id="svg2"
   xml:space="preserve"
   width="4666.6665"
   height="2666.6667"
   viewBox="0 0 4666.6665 2666.6667"
   sodipodi:docname="4.svg"
   inkscape:version="0.92.5 (2060ec1f9f, 2020-04-08)"><metadata
     id="metadata8"><rdf:RDF><cc:Work
         rdf:about=""><dc:format>image/svg+xml</dc:format><dc:type
           rdf:resource="http://purl.org/dc/dcmitype/StillImage" /><dc:title></dc:title></cc:Work></rdf:RDF></metadata><defs
     id="defs6" /><sodipodi:namedview
     pagecolor="#ffffff"
     bordercolor="#666666"
     borderopacity="1"
     objecttolerance="10"
     gridtolerance="10"
     guidetolerance="10"
     inkscape:pageopacity="0"
     inkscape:pageshadow="2"
     inkscape:window-width="1366"
     inkscape:window-height="668"
     id="namedview4"
     showgrid="false"
     inkscape:zoom="0.54170354"
     inkscape:cx="3921.6216"
     inkscape:cy="2007.7466"
     inkscape:window-x="0"
     inkscape:window-y="27"
     inkscape:window-maximized="1"
     inkscape:current-layer="g10" /><g
     id="g10"
     inkscape:groupmode="layer"
     inkscape:label="ink_ext_XXXXXX"
     transform="matrix(1.3333333,0,0,-1.3333333,0,2666.6667)"><g
       transform="scale(0.197429)"
       id="g18"><path
         inkscape:connector-curvature="0"
         id="path20"
         style="fill:#e7f3fe;fill-opacity:1;fill-rule:nonzero;stroke:none"
         d="m 3394.76,8687.7 c 2104.42,781.25 4243.26,90.55 5693.85,-1413.8 725.53,-752.41 1849.69,-492.44 2994.29,-232.48 1144,259.81 2308.2,519.63 3115.2,-231.1 C 16300,5785.34 15795.3,3150.09 14284.4,2008.72 12230.9,457.278 5985.68,1244.5 4634.76,1508.49 3078.37,1812.7 1940.53,2735.56 1478.22,3855.66 364.305,6554.54 2464.77,8342.45 3394.76,8687.7" /></g><g
       transform="scale(0.194275)"
       id="g62"><path
         inkscape:connector-curvature="0"
         id="path64"
         style="fill:#cce2ff;fill-opacity:1;fill-rule:nonzero;stroke:none"
         d="m 15487.8,1414.18 c -1070.5,52.35 -4712.2,-36.34 -5819.74,-70.88 -1107.56,-34.59 -2393.16,45.61 -3060.98,163.48 -667.81,117.88 -4527.96,-10.03 -4352.79,-327.01 175.17,-316.972 1719.88,-141.76 3471.62,-269.152 1751.74,-127.397 5691.39,15.904 6580.09,0 888.7,-15.957 1703.5,31.811 2848.8,95.532 1145.2,63.68 953.6,377.71 333,408.03" /></g><path
       inkscape:connector-curvature="0"
       id="path66"
       style="fill:#99bbeb;fill-opacity:1;fill-rule:nonzero;stroke:none;stroke-width:0.1"
       d="m 448.403,849.83 h 434.745 v 712.573 H 448.403 Z" /><path
       inkscape:connector-curvature="0"
       id="path68"
       style="fill:#ffffff;fill-opacity:1;fill-rule:nonzero;stroke:none;stroke-width:0.1"
       d="m 471.171,876.99 h 397.685 v 670.894 H 471.171 Z" /><path
       inkscape:connector-curvature="0"
       id="path70"
       style="fill:#9bd6e8;fill-opacity:1;fill-rule:nonzero;stroke:none;stroke-width:0.1"
       d="m 590.122,1278.85 c 14.968,32.21 40.301,42.52 81.902,42.52 49.534,0 75.254,-17.95 82.545,-44.07 -88.704,-1.22 -164.447,1.55 -164.447,1.55" /><path
       inkscape:connector-curvature="0"
       id="path72"
       style="fill:#3a384d;fill-opacity:1;fill-rule:nonzero;stroke:none;stroke-width:0.1"
       d="m 654.726,1477.98 c -20.969,-5.88 -20.05,-17.67 -27.037,-28.6 -6.987,-10.94 -22.176,-18.23 -23.999,-25.52 -1.822,-7.29 4.678,-22.48 -3.037,-30.99 -7.715,-8.5 -10.329,-12.75 -7.291,-21.26 3.038,-8.51 9.721,-21.87 10.328,-23.69 0.608,-1.83 9.114,-14.59 19.443,-16.41 10.328,-1.82 29.77,-4.86 39.492,-9.11 9.72,-4.26 40.976,5.44 58.326,4.83 17.349,-0.6 29.163,12.18 27.947,20.69 -1.214,8.5 12.794,25.51 12.759,40.09 -0.037,15.66 -18.227,27.34 -23.087,37.67 -4.861,10.33 0.608,28.56 -17.619,39.35 -11.519,6.83 -19.443,6.22 -28.556,9.26 -9.113,3.04 -24.303,7.44 -37.669,3.69" /><path
       inkscape:connector-curvature="0"
       id="path74"
       style="fill:#f09959;fill-opacity:1;fill-rule:nonzero;stroke:none;stroke-width:0.1"
       d="m 680.244,1295.66 c -4.743,-7 -8.22,-7.29 -13.367,0 -4.092,5.8 -12.151,18.97 -12.151,25.65 v 66.7 c 0,6.69 5.468,12.16 12.151,12.16 h 13.367 c 6.683,0 12.151,-5.47 12.151,-12.16 v -66.7 c 0,-6.68 -7.898,-19.37 -12.151,-25.65" /><path
       inkscape:connector-curvature="0"
       id="path76"
       style="fill:#e38540;fill-opacity:1;fill-rule:nonzero;stroke:none;stroke-width:0.1"
       d="m 680.244,1400.17 h -13.367 c -6.683,0 -12.151,-5.47 -12.151,-12.16 v -59.51 c 15.008,-4.77 28.706,4.72 37.669,15.42 v 44.09 c 0,6.69 -5.468,12.16 -12.151,12.16" /><path
       inkscape:connector-curvature="0"
       id="path78"
       style="fill:#f09959;fill-opacity:1;fill-rule:nonzero;stroke:none;stroke-width:0.1"
       d="m 713.963,1399.49 c 0,-30.4 -18.088,-55.05 -40.402,-55.05 -22.314,0 -40.404,24.65 -40.404,55.05 0,30.4 18.09,55.05 40.404,55.05 22.314,0 40.402,-24.65 40.402,-55.05" /><path
       inkscape:connector-curvature="0"
       id="path80"
       style="fill:#3a384d;fill-opacity:1;fill-rule:nonzero;stroke:none;stroke-width:0.1"
       d="m 692.395,1443.3 c -25.518,-43.13 -63.187,-38.88 -63.187,-38.88 0,0 0.912,57.11 30.834,60.15 29.923,3.03 47.542,-8.97 53.618,-28.79 6.075,-19.82 0,-32.88 0,-32.88 0,0 -9.722,7.59 -14.582,19.74 -4.86,12.16 -6.683,20.66 -6.683,20.66" /><path
       inkscape:connector-curvature="0"
       id="path82"
       style="fill:#f09959;fill-opacity:1;fill-rule:nonzero;stroke:none;stroke-width:0.1"
       d="m 637.293,1400.34 c 3.779,-7.96 2.543,-16.45 -2.761,-18.97 -5.304,-2.52 -12.668,1.89 -16.447,9.85 -3.778,7.95 -2.542,16.44 2.762,18.96 5.304,2.52 12.668,-1.89 16.446,-9.84" /><path
       inkscape:connector-curvature="0"
       id="path84"
       style="fill:#f09959;fill-opacity:1;fill-rule:nonzero;stroke:none;stroke-width:0.1"
       d="m 708.005,1400.34 c -3.779,-7.96 -2.543,-16.45 2.762,-18.97 5.304,-2.52 12.667,1.89 16.446,9.85 3.779,7.95 2.542,16.44 -2.762,18.96 -5.304,2.52 -12.667,-1.89 -16.446,-9.84" /><path
       inkscape:connector-curvature="0"
       id="path86"
       style="fill:#ffffff;fill-opacity:1;fill-rule:nonzero;stroke:none;stroke-width:0.1"
       d="m 688.75,1369.63 c 0,0 -6.801,-8.81 -15.189,-8.81 -8.389,0 -15.189,8.81 -15.189,8.81 h 30.378" /><path
       inkscape:connector-curvature="0"
       id="path88"
       style="fill:#99bbeb;fill-opacity:1;fill-rule:nonzero;stroke:none;stroke-width:0.1"
       d="M 721.656,1191.52 H 619.624 c -6.525,0 -11.864,5.34 -11.864,11.87 0,6.52 5.339,11.86 11.864,11.86 h 102.032 c 6.525,0 11.864,-5.34 11.864,-11.86 0,-6.53 -5.339,-11.87 -11.864,-11.87" /><path
       inkscape:connector-curvature="0"
       id="path90"
       style="fill:#99bbeb;fill-opacity:1;fill-rule:nonzero;stroke:none;stroke-width:0.1"
       d="M 740.337,1155.07 H 600.942 c -6.525,0 -11.863,5.34 -11.863,11.86 0,6.53 5.338,11.87 11.863,11.87 h 139.395 c 6.525,0 11.864,-5.34 11.864,-11.87 0,-6.52 -5.339,-11.86 -11.864,-11.86" /><path
       inkscape:connector-curvature="0"
       id="path92"
       style="fill:#99bbeb;fill-opacity:1;fill-rule:nonzero;stroke:none;stroke-width:0.1"
       d="M 840.178,1023.97 H 501.102 c -3.786,0 -6.884,3.1 -6.884,6.89 0,3.78 3.098,6.88 6.884,6.88 h 339.076 c 3.787,0 6.884,-3.1 6.884,-6.88 0,-3.79 -3.097,-6.89 -6.884,-6.89" /><path
       inkscape:connector-curvature="0"
       id="path94"
       style="fill:#99bbeb;fill-opacity:1;fill-rule:nonzero;stroke:none;stroke-width:0.1"
       d="M 840.178,991.98 H 501.102 c -3.786,0 -6.884,3.1 -6.884,6.88 0,3.79 3.098,6.89 6.884,6.89 h 339.076 c 3.787,0 6.884,-3.1 6.884,-6.89 0,-3.78 -3.097,-6.88 -6.884,-6.88" /><path
       inkscape:connector-curvature="0"
       id="path96"
       style="fill:#99bbeb;fill-opacity:1;fill-rule:nonzero;stroke:none;stroke-width:0.1"
       d="M 840.178,959.98 H 501.102 c -3.786,0 -6.884,3.1 -6.884,6.89 0,3.78 3.098,6.88 6.884,6.88 h 339.076 c 3.787,0 6.884,-3.1 6.884,-6.88 0,-3.79 -3.097,-6.89 -6.884,-6.89" /><path
       inkscape:connector-curvature="0"
       id="path98"
       style="fill:#99bbeb;fill-opacity:1;fill-rule:nonzero;stroke:none;stroke-width:0.1"
       d="m 548.526,1510.61 c -1.242,0 -2.291,-1.05 -2.291,-2.29 v -225.09 c 0,-1.24 1.049,-2.29 2.291,-2.29 h 244.228 c 1.242,0 2.291,1.05 2.291,2.29 v 225.09 c 0,1.24 -1.049,2.29 -2.291,2.29 z M 792.754,1270.94 H 548.526 c -6.777,0 -12.291,5.51 -12.291,12.29 v 225.09 c 0,6.78 5.514,12.29 12.291,12.29 h 244.228 c 6.777,0 12.291,-5.51 12.291,-12.29 v -225.09 c 0,-6.78 -5.514,-12.29 -12.291,-12.29" /><path
       inkscape:connector-curvature="0"
       id="path100"
       style="fill:#99bbeb;fill-opacity:1;fill-rule:nonzero;stroke:none;stroke-width:0.1"
       d="m 583.769,1124.12 7.07,-14.33 15.811,-2.3 -11.441,-11.15 2.701,-15.75 -14.141,7.44 -14.142,-7.44 2.701,15.75 -11.441,11.15 15.811,2.3 7.071,14.33" /><path
       inkscape:connector-curvature="0"
       id="path102"
       style="fill:#99bbeb;fill-opacity:1;fill-rule:nonzero;stroke:none;stroke-width:0.1"
       d="m 641.683,1124.12 7.07,-14.33 15.811,-2.3 -11.44,-11.15 2.7,-15.75 -14.141,7.44 -14.142,-7.44 2.701,15.75 -11.441,11.15 15.811,2.3 7.071,14.33" /><path
       inkscape:connector-curvature="0"
       id="path104"
       style="fill:#99bbeb;fill-opacity:1;fill-rule:nonzero;stroke:none;stroke-width:0.1"
       d="m 699.597,1124.12 7.071,-14.33 15.811,-2.3 -11.441,-11.15 2.701,-15.75 -14.142,7.44 -14.141,-7.44 2.7,15.75 -11.44,11.15 15.81,2.3 7.071,14.33" /><path
       inkscape:connector-curvature="0"
       id="path106"
       style="fill:#99bbeb;fill-opacity:1;fill-rule:nonzero;stroke:none;stroke-width:0.1"
       d="m 757.511,1124.12 7.071,-14.33 15.811,-2.3 -11.441,-11.15 2.701,-15.75 -14.142,7.44 -14.141,-7.44 2.7,15.75 -11.44,11.15 15.81,2.3 7.071,14.33" /><g
       transform="scale(0.113642)"
       id="g108"><path
         inkscape:connector-curvature="0"
         id="path110"
         style="fill:#99bbeb;fill-opacity:1;fill-rule:nonzero;stroke:none"
         d="M 16300,7478.15 H 12474.5 V 13748.5 H 16300 V 7478.15" /></g><g
       transform="scale(0.112765)"
       id="g112"><path
         inkscape:connector-curvature="0"
         id="path114"
         style="fill:#ffffff;fill-opacity:1;fill-rule:nonzero;stroke:none"
         d="M 16300,7777.15 H 12773.3 V 13726.6 H 16300 V 7777.15" /></g><g
       transform="scale(0.104395)"
       id="g116"><path
         inkscape:connector-curvature="0"
         id="path118"
         style="fill:#7a4e34;fill-opacity:1;fill-rule:nonzero;stroke:none"
         d="m 15117.9,13440.5 c 0,-305.7 184,-799 618.2,-783.2 434.3,15.8 530.3,486.1 547.1,618.8 16.8,132.7 -1165.3,164.4 -1165.3,164.4" /></g><g
       transform="scale(0.105753)"
       id="g120"><path
         inkscape:connector-curvature="0"
         id="path122"
         style="fill:#d54a41;fill-opacity:1;fill-rule:nonzero;stroke:none"
         d="m 14745.1,12092.8 c 141.4,304.5 381,402 774.4,402 468.4,0 711.6,-169.7 780.5,-416.7 -838.7,-11.5 -1554.9,14.7 -1554.9,14.7" /></g><g
       transform="scale(0.101939)"
       id="g124"><path
         inkscape:connector-curvature="0"
         id="path126"
         style="fill:#f09959;fill-opacity:1;fill-rule:nonzero;stroke:none"
         d="m 16180.8,12710.2 c -46.6,-68.7 -80.6,-71.6 -131.1,0 -40.2,56.8 -119.2,186 -119.2,251.6 v 654.3 c 0,65.5 53.6,119.2 119.2,119.2 h 131.1 c 65.5,0 119.2,-53.7 119.2,-119.2 v -654.3 c 0,-65.6 -77.5,-190.1 -119.2,-251.6" /></g><g
       transform="scale(0.101939)"
       id="g128"><path
         inkscape:connector-curvature="0"
         id="path130"
         style="fill:#e38540;fill-opacity:1;fill-rule:nonzero;stroke:none"
         d="m 16180.8,13735.3 h -131.1 c -65.6,0 -119.2,-53.7 -119.2,-119.2 v -583.8 c 147.2,-46.9 281.6,46.3 369.5,151.3 v 432.5 c 0,65.5 -53.7,119.2 -119.2,119.2" /></g><g
       transform="scale(0.103263)"
       id="g132"><path
         inkscape:connector-curvature="0"
         id="path134"
         style="fill:#f09959;fill-opacity:1;fill-rule:nonzero;stroke:none"
         d="m 16300,13552.7 c 0,-294.4 -175.2,-533.1 -391.3,-533.1 -216.1,0 -391.3,238.7 -391.3,533.1 0,294.5 175.2,533.2 391.3,533.2 216.1,0 391.3,-238.7 391.3,-533.2" /></g><g
       transform="scale(0.104774)"
       id="g136"><path
         inkscape:connector-curvature="0"
         id="path138"
         style="fill:#7a4e34;fill-opacity:1;fill-rule:nonzero;stroke:none"
         d="m 15891.1,13756.6 c -45.8,-161.6 -146.2,-159.7 -286.2,-212.8 -140,-53.1 -206.9,-106.5 -252.7,-209.8 -58.6,-131.8 26.5,-516.2 26.5,-516.2 0,0 -354.6,265.3 -313.6,682.6 41,417.2 287.1,578.8 518.5,578.8 231.5,0 319.6,-141.1 319.6,-141.1 0,0 123.4,-0.5 240,-138.6 156.8,-185.8 108.5,-636.8 0,-798.4 -108.5,-161.6 -180.9,-212.2 -178.5,-205 2.4,7.2 101.3,378.3 48.3,607.8 -53.1,229.5 -121.9,352.7 -121.9,352.7" /></g><g
       transform="scale(0.101715)"
       id="g140"><path
         inkscape:connector-curvature="0"
         id="path142"
         style="fill:#ffffff;fill-opacity:1;fill-rule:nonzero;stroke:none"
         d="m 16300,13465.3 c 0,0 -66.9,-86.6 -149.3,-86.6 -82.4,0 -149.4,86.6 -149.4,86.6 h 298.7" /></g><g
       transform="scale(0.104462)"
       id="g144"><path
         inkscape:connector-curvature="0"
         id="path146"
         style="fill:#99bbeb;fill-opacity:1;fill-rule:nonzero;stroke:none"
         d="m 16186.5,11406.3 h -976.8 c -62.5,0 -113.6,51.1 -113.6,113.5 0,62.5 51.1,113.6 113.6,113.6 h 976.8 c 62.4,0 113.5,-51.1 113.5,-113.6 0,-62.4 -51.1,-113.5 -113.5,-113.5" /></g><g
       transform="scale(0.105609)"
       id="g148"><path
         inkscape:connector-curvature="0"
         id="path150"
         style="fill:#99bbeb;fill-opacity:1;fill-rule:nonzero;stroke:none"
         d="m 16187.6,10937.3 h -1319.9 c -61.8,0 -112.4,50.5 -112.4,112.3 0,61.8 50.6,112.4 112.4,112.4 h 1319.9 c 61.8,0 112.4,-50.6 112.4,-112.4 0,-61.8 -50.6,-112.3 -112.4,-112.3" /></g><g
       transform="scale(0.111428)"
       id="g152"><path
         inkscape:connector-curvature="0"
         id="path154"
         style="fill:#99bbeb;fill-opacity:1;fill-rule:nonzero;stroke:none"
         d="m 16238.2,9189.54 h -3043 c -34,0 -61.8,27.8 -61.8,61.79 0,33.97 27.8,61.78 61.8,61.78 h 3043 c 34,0 61.8,-27.81 61.8,-61.78 0,-33.99 -27.8,-61.79 -61.8,-61.79" /></g><g
       transform="scale(0.111428)"
       id="g156"><path
         inkscape:connector-curvature="0"
         id="path158"
         style="fill:#99bbeb;fill-opacity:1;fill-rule:nonzero;stroke:none"
         d="m 16238.2,8902.41 h -3043 c -34,0 -61.8,27.82 -61.8,61.75 0,34.01 27.8,61.8 61.8,61.8 h 3043 c 34,0 61.8,-27.79 61.8,-61.8 0,-33.93 -27.8,-61.75 -61.8,-61.75" /></g><g
       transform="scale(0.111428)"
       id="g160"><path
         inkscape:connector-curvature="0"
         id="path162"
         style="fill:#99bbeb;fill-opacity:1;fill-rule:nonzero;stroke:none"
         d="m 16238.2,8615.23 h -3043 c -34,0 -61.8,27.82 -61.8,61.83 0,33.93 27.8,61.75 61.8,61.75 h 3043 c 34,0 61.8,-27.82 61.8,-61.75 0,-34.01 -27.8,-61.83 -61.8,-61.83" /></g><g
       transform="scale(0.10885)"
       id="g164"><path
         inkscape:connector-curvature="0"
         id="path166"
         style="fill:#99bbeb;fill-opacity:1;fill-rule:nonzero;stroke:none"
         d="m 13943.4,13877.9 c -11.4,0 -21.1,-9.7 -21.1,-21.1 V 11789 c 0,-11.4 9.7,-21.1 21.1,-21.1 h 2243.7 c 11.4,0 21,9.7 21,21.1 v 2067.8 c 0,11.4 -9.6,21.1 -21,21.1 z M 16187.1,11676 h -2243.7 c -62.3,0 -112.9,50.7 -112.9,113 v 2067.8 c 0,62.3 50.6,113 112.9,113 h 2243.7 c 62.3,0 112.9,-50.7 112.9,-113 V 11789 c 0,-62.3 -50.6,-113 -112.9,-113" /></g><path
       inkscape:connector-curvature="0"
       id="path168"
       style="fill:#99bbeb;fill-opacity:1;fill-rule:nonzero;stroke:none;stroke-width:0.1"
       d="m 1552.98,1124.12 7.07,-14.33 15.81,-2.3 -11.44,-11.15 2.7,-15.75 -14.14,7.44 -14.14,-7.44 2.7,15.75 -11.44,11.15 15.81,2.3 7.07,14.33" /><g
       transform="scale(0.100232)"
       id="g170"><path
         inkscape:connector-curvature="0"
         id="path172"
         style="fill:#99bbeb;fill-opacity:1;fill-rule:nonzero;stroke:none"
         d="m 16071.7,11215.2 70.6,-143 157.7,-22.9 -114.1,-111.2 26.9,-157.2 -141.1,74.2 -141.1,-74.2 27,157.2 -114.1,111.2 157.7,22.9 70.5,143" /></g><g
       transform="scale(0.103785)"
       id="g174"><path
         inkscape:connector-curvature="0"
         id="path176"
         style="fill:#99bbeb;fill-opacity:1;fill-rule:nonzero;stroke:none"
         d="m 16079.5,10831.3 68.2,-138.1 152.3,-22.1 -110.2,-107.5 26,-151.7 -136.3,71.6 -136.2,-71.6 26,151.7 -110.2,107.5 152.3,22.1 68.1,138.1" /></g><g
       transform="scale(0.107338)"
       id="g178"><path
         inkscape:connector-curvature="0"
         id="path180"
         style="fill:#99bbeb;fill-opacity:1;fill-rule:nonzero;stroke:none"
         d="m 16086.8,10472.7 65.9,-133.5 147.3,-21.4 -106.6,-103.9 25.2,-146.7 -131.8,69.3 -131.8,-69.3 25.2,146.7 -106.6,103.9 147.3,21.4 65.9,133.5" /></g><path
       inkscape:connector-curvature="0"
       id="path182"
       style="fill:#d7e8fa;fill-opacity:1;fill-rule:nonzero;stroke:none;stroke-width:0.1"
       d="M 1417.62,856.96 H 883.148 v 702.8 h 527.822 c -0.41,-6.8 -0.63,-13.64 -0.63,-20.54 0,-6.83 0.23,-13.61 0.62,-20.34 l 6.66,-2.16 V 856.96" /><path
       inkscape:connector-curvature="0"
       id="path184"
       style="fill:#9dc5fb;fill-opacity:1;fill-rule:nonzero;stroke:none;stroke-width:0.1"
       d="m 1417.62,1516.72 -6.66,2.16 c -0.39,6.73 -0.62,13.51 -0.62,20.34 0,6.9 0.22,13.74 0.63,20.54 h 6.65 v -43.04" /><path
       inkscape:connector-curvature="0"
       id="path186"
       style="fill:#99bbeb;fill-opacity:1;fill-rule:nonzero;stroke:none;stroke-width:0.1"
       d="M 883.148,856.96 H 780.393 l 1.383,20.03 h 87.08 v 670.89 h -40.751 l 0.82,11.88 h 54.223 v -702.8" /><path
       inkscape:connector-curvature="0"
       id="path188"
       style="fill:#ebf1fb;fill-opacity:1;fill-rule:nonzero;stroke:none;stroke-width:0.1"
       d="m 868.856,876.99 h -87.08 l 5.731,82.99 h 52.671 c 3.787,0 6.884,3.1 6.884,6.89 0,3.78 -3.097,6.88 -6.884,6.88 h -51.72 l 1.259,18.23 h 50.461 c 3.787,0 6.884,3.1 6.884,6.88 0,3.79 -3.097,6.89 -6.884,6.89 h -49.511 l 1.259,18.22 h 48.252 c 3.787,0 6.884,3.1 6.884,6.89 0,3.78 -3.097,6.88 -6.884,6.88 h -47.301 l 35.228,510.14 h 40.751 V 876.99" /><path
       inkscape:connector-curvature="0"
       id="path190"
       style="fill:#99bbeb;fill-opacity:1;fill-rule:nonzero;stroke:none;stroke-width:0.1"
       d="m 840.178,1023.97 h -48.252 l 0.951,13.77 h 47.301 c 3.787,0 6.884,-3.1 6.884,-6.88 0,-3.79 -3.097,-6.89 -6.884,-6.89" /><path
       inkscape:connector-curvature="0"
       id="path192"
       style="fill:#99bbeb;fill-opacity:1;fill-rule:nonzero;stroke:none;stroke-width:0.1"
       d="m 840.178,991.98 h -50.461 l 0.95,13.77 h 49.511 c 3.787,0 6.884,-3.1 6.884,-6.89 0,-3.78 -3.097,-6.88 -6.884,-6.88" /><path
       inkscape:connector-curvature="0"
       id="path194"
       style="fill:#99bbeb;fill-opacity:1;fill-rule:nonzero;stroke:none;stroke-width:0.1"
       d="m 840.178,959.98 h -52.671 l 0.951,13.77 h 51.72 c 3.787,0 6.884,-3.1 6.884,-6.88 0,-3.79 -3.097,-6.89 -6.884,-6.89" /><path
       inkscape:connector-curvature="0"
       id="path196"
       style="fill:#99bbeb;fill-opacity:1;fill-rule:nonzero;stroke:none;stroke-width:0.1"
       d="m 1466.49,856.96 h -48.87 v 702.8 h 73.61 l -0.42,-11.88 h -50.43 V 876.99 h 26.81 l -0.7,-20.03" /><path
       inkscape:connector-curvature="0"
       id="path198"
       style="fill:#ebf1fb;fill-opacity:1;fill-rule:nonzero;stroke:none;stroke-width:0.1"
       d="m 1467.19,876.99 h -26.81 v 670.89 h 50.43 l -17.96,-510.14 h -2.53 c -3.79,0 -6.89,-3.1 -6.89,-6.88 0,-3.79 3.1,-6.89 6.89,-6.89 h 2.05 l -0.65,-18.22 h -1.4 c -3.79,0 -6.89,-3.1 -6.89,-6.89 0,-3.78 3.1,-6.88 6.89,-6.88 h 0.92 l -0.64,-18.23 h -0.28 c -3.79,0 -6.89,-3.1 -6.89,-6.88 0,-3.72 2.99,-6.78 6.68,-6.88 l -2.92,-83" /><path
       inkscape:connector-curvature="0"
       id="path200"
       style="fill:#99bbeb;fill-opacity:1;fill-rule:nonzero;stroke:none;stroke-width:0.1"
       d="m 1472.37,1023.97 h -2.05 c -3.79,0 -6.89,3.1 -6.89,6.89 0,3.78 3.1,6.88 6.89,6.88 h 2.53 l -0.48,-13.77" /><path
       inkscape:connector-curvature="0"
       id="path202"
       style="fill:#99bbeb;fill-opacity:1;fill-rule:nonzero;stroke:none;stroke-width:0.1"
       d="m 1471.24,991.98 h -0.92 c -3.79,0 -6.89,3.1 -6.89,6.88 0,3.79 3.1,6.89 6.89,6.89 h 1.4 l -0.48,-13.77" /><path
       inkscape:connector-curvature="0"
       id="path204"
       style="fill:#99bbeb;fill-opacity:1;fill-rule:nonzero;stroke:none;stroke-width:0.1"
       d="m 1470.11,959.99 c -3.69,0.1 -6.68,3.16 -6.68,6.88 0,3.78 3.1,6.88 6.89,6.88 h 0.28 l -0.49,-13.76" /><g
       transform="scale(0.10385)"
       id="g206"><path
         inkscape:connector-curvature="0"
         id="path208"
         style="fill:#99bbeb;fill-opacity:1;fill-rule:nonzero;stroke:none"
         d="M 13926.5,6928.19 H 8208.61 V 16300 H 13926.5 V 6928.19" /></g><g
       transform="scale(0.102633)"
       id="g210"><path
         inkscape:connector-curvature="0"
         id="path212"
         style="fill:#ffffff;fill-opacity:1;fill-rule:nonzero;stroke:none"
         d="M 13901.3,7371.7 H 8608.92 V 16300 H 13901.3 V 7371.7" /></g><path
       inkscape:connector-curvature="0"
       id="path214"
       style="fill:#2e2d3d;fill-opacity:1;fill-rule:nonzero;stroke:none;stroke-width:0.1"
       d="m 1104.53,1480.45 c -0.38,1.13 -9.89,55.72 -11.03,76.94 -1.13,21.23 34.12,24.26 34.12,24.26 0,0 28.8,15.54 49.65,7.58 20.85,-7.96 35.04,-21.35 44.51,-38.03 9.48,-16.68 -8.33,-68.65 -8.33,-68.65 l -108.92,-2.1" /><path
       inkscape:connector-curvature="0"
       id="path216"
       style="fill:#d5e1e8;fill-opacity:1;fill-rule:nonzero;stroke:none;stroke-width:0.1"
       d="m 1039.17,1305.07 c -0.13,0.9 2.44,22.38 2.53,23.25 4.8,45.23 60.56,57.96 116.19,57.96 65.37,0 109.72,-11.97 116.8,-58.97 0.21,-1.38 3.98,-22.91 3.79,-24.36 -121.16,-1.66 -239.31,2.12 -239.31,2.12" /><path
       inkscape:connector-curvature="0"
       id="path218"
       style="fill:#f09959;fill-opacity:1;fill-rule:nonzero;stroke:none;stroke-width:0.1"
       d="m 1169.12,1351.17 c -6.48,-9.56 -11.23,-9.96 -18.26,0 -5.59,7.91 -24.25,25.98 -24.25,35.11 l 7.66,91.02 c 0,9.13 7.47,16.6 16.59,16.6 h 18.26 c 9.13,0 16.6,-7.47 16.6,-16.6 l 3.56,-91.02 c 0,-9.13 -14.35,-26.54 -20.16,-35.11" /><path
       inkscape:connector-curvature="0"
       id="path220"
       style="fill:#e38540;fill-opacity:1;fill-rule:nonzero;stroke:none;stroke-width:0.1"
       d="m 1169.12,1493.9 h -18.26 c -9.12,0 -16.59,-7.47 -16.59,-16.6 l -6.65,-80.75 c 20.5,-6.53 48.18,6.74 60.42,21.35 l -2.32,59.4 c 0,9.13 -7.47,16.6 -16.6,16.6" /><path
       inkscape:connector-curvature="0"
       id="path222"
       style="fill:#bdccd4;fill-opacity:1;fill-rule:nonzero;stroke:none;stroke-width:0.1"
       d="m 1097.34,1379.64 29.27,-54.1 c 0,0 15.66,12.89 17.18,10.36 1.52,-2.52 -2.78,-34.41 -2.78,-34.41 0,0 34.87,-0.48 36.39,1.04 1.52,1.51 -7.08,34.64 -3.54,34.64 3.54,0 14.18,-9.61 14.18,-9.61 l 32.68,52.08 -7.18,1.75 -53.55,-28.81 -57.26,28.18 -5.39,-1.12" /><path
       inkscape:connector-curvature="0"
       id="path224"
       style="fill:#d54a41;fill-opacity:1;fill-rule:nonzero;stroke:none;stroke-width:0.1"
       d="m 1130.81,1354.71 21.74,-14.58 -6.74,-38.71 29.31,1.63 -7.32,35.21 18.02,16.45 -8.47,7.98 h -38.08 l -8.46,-7.98" /><path
       inkscape:connector-curvature="0"
       id="path226"
       style="fill:#d5e1e8;fill-opacity:1;fill-rule:nonzero;stroke:none;stroke-width:0.1"
       d="m 1128.12,1406.15 -26.88,-25.58 c 0,0 27.39,-48.71 28.9,-48.71 1.52,0 23.25,26.86 23.25,26.86 l 13.91,0.24 21.98,-23.06 25.53,45.18 -26.04,27.6 c 0,0 -22.24,-42.96 -26.28,-43.97 -4.04,-1.01 -4.07,-1.52 -7.34,1.01 -3.27,2.53 -27.03,40.43 -27.03,40.43" /><path
       inkscape:connector-curvature="0"
       id="path228"
       style="fill:#f09959;fill-opacity:1;fill-rule:nonzero;stroke:none;stroke-width:0.1"
       d="m 1215.18,1492.98 c 0,-41.53 -24.71,-75.2 -55.19,-75.2 -30.48,0 -55.18,33.67 -55.18,75.2 0,41.53 24.7,75.19 55.18,75.19 30.48,0 55.19,-33.66 55.19,-75.19" /><path
       inkscape:connector-curvature="0"
       id="path230"
       style="fill:#f09959;fill-opacity:1;fill-rule:nonzero;stroke:none;stroke-width:0.1"
       d="m 1110.46,1494.14 c 5.16,-10.87 3.47,-22.47 -3.78,-25.91 -7.24,-3.44 -17.3,2.58 -22.46,13.45 -5.16,10.86 -3.47,22.46 3.77,25.9 7.25,3.44 17.31,-2.58 22.47,-13.44" /><path
       inkscape:connector-curvature="0"
       id="path232"
       style="fill:#f09959;fill-opacity:1;fill-rule:nonzero;stroke:none;stroke-width:0.1"
       d="m 1207.04,1494.14 c -5.16,-10.87 -3.47,-22.47 3.77,-25.91 7.24,-3.44 17.3,2.58 22.46,13.45 5.16,10.86 3.48,22.46 -3.77,25.9 -7.24,3.44 -17.3,-2.58 -22.46,-13.44" /><path
       inkscape:connector-curvature="0"
       id="path234"
       style="fill:#ffffff;fill-opacity:1;fill-rule:nonzero;stroke:none;stroke-width:0.1"
       d="m 1184.47,1462.13 c 0,0 -10.96,-17.76 -24.48,-17.76 -13.52,0 -24.48,17.76 -24.48,17.76 h 48.96" /><path
       inkscape:connector-curvature="0"
       id="path236"
       style="fill:#2e2d3d;fill-opacity:1;fill-rule:nonzero;stroke:none;stroke-width:0.1"
       d="m 1127.62,1544.13 c 22.74,15.92 32.97,13.26 50.03,-12.89 17.06,-26.15 37.53,-26.62 37.53,-26.62 l 2.65,27.12 c 0,0 -25.41,49.15 -59.52,42.71 -34.1,-6.44 -53.5,-37.15 -53.5,-37.15 0,0 -1.66,-57.54 3.1,-59.51 4.76,-1.96 5.3,18.58 8.71,22.75 3.42,4.17 -3.41,23.88 1.14,32.97 4.55,9.1 9.86,10.62 9.86,10.62" /><path
       inkscape:connector-curvature="0"
       id="path238"
       style="fill:#2e2d3d;fill-opacity:1;fill-rule:nonzero;stroke:none;stroke-width:0.1"
       d="m 1200.77,1514.56 c 7.94,-8.69 4.93,-43.21 9.1,-42.83 4.17,0.38 5.69,32.98 4.55,36.39 -1.14,3.41 -13.65,6.44 -13.65,6.44" /><path
       inkscape:connector-curvature="0"
       id="path240"
       style="fill:#99bbeb;fill-opacity:1;fill-rule:nonzero;stroke:none;stroke-width:0.1"
       d="m 1282.74,1186.18 h -253.48 c -8.91,0 -16.2,7.29 -16.2,16.21 0,8.91 7.29,16.2 16.2,16.2 h 253.48 c 8.92,0 16.21,-7.29 16.21,-16.2 0,-8.92 -7.29,-16.21 -16.21,-16.21" /><path
       inkscape:connector-curvature="0"
       id="path242"
       style="fill:#99bbeb;fill-opacity:1;fill-rule:nonzero;stroke:none;stroke-width:0.1"
       d="m 1251.2,1136.39 h -190.39 c -8.92,0 -16.21,7.3 -16.21,16.21 0,8.91 7.29,16.2 16.21,16.2 h 190.39 c 8.91,0 16.2,-7.29 16.2,-16.2 0,-8.91 -7.29,-16.21 -16.2,-16.21" /><path
       inkscape:connector-curvature="0"
       id="path244"
       style="fill:#99bbeb;fill-opacity:1;fill-rule:nonzero;stroke:none;stroke-width:0.1"
       d="M 1387.57,957.34 H 924.439 c -5.171,0 -9.402,4.23 -9.402,9.4 0,5.17 4.231,9.4 9.402,9.4 h 463.131 c 5.17,0 9.4,-4.23 9.4,-9.4 0,-5.17 -4.23,-9.4 -9.4,-9.4" /><path
       inkscape:connector-curvature="0"
       id="path246"
       style="fill:#99bbeb;fill-opacity:1;fill-rule:nonzero;stroke:none;stroke-width:0.1"
       d="M 1387.57,913.64 H 924.439 c -5.171,0 -9.402,4.23 -9.402,9.4 0,5.17 4.231,9.4 9.402,9.4 h 463.131 c 5.17,0 9.4,-4.23 9.4,-9.4 0,-5.17 -4.23,-9.4 -9.4,-9.4" /><path
       inkscape:connector-curvature="0"
       id="path248"
       style="fill:#99bbeb;fill-opacity:1;fill-rule:nonzero;stroke:none;stroke-width:0.1"
       d="M 1387.57,869.93 H 924.439 c -5.171,0 -9.402,4.24 -9.402,9.41 0,5.17 4.231,9.4 9.402,9.4 h 463.131 c 5.17,0 9.4,-4.23 9.4,-9.4 0,-5.17 -4.23,-9.41 -9.4,-9.41" /><g
       transform="scale(0.100236)"
       id="g250"><path
         inkscape:connector-curvature="0"
         id="path252"
         style="fill:#99bbeb;fill-opacity:1;fill-rule:nonzero;stroke:none"
         d="m 9868.89,16200.2 c -27.28,0 -49.47,-22.2 -49.47,-49.4 v -3067.2 c 0,-27.3 22.19,-49.5 49.47,-49.5 h 3327.91 c 27.3,0 49.5,22.2 49.5,49.5 v 3067.2 c 0,27.2 -22.2,49.4 -49.5,49.4 z M 13196.8,12934.4 H 9868.89 c -82.29,0 -149.23,66.9 -149.23,149.2 v 3067.2 c 0,82.3 66.94,149.2 149.23,149.2 h 3327.91 c 82.3,0 149.3,-66.9 149.3,-149.2 v -3067.2 c 0,-82.3 -67,-149.2 -149.3,-149.2" /></g><path
       inkscape:connector-curvature="0"
       id="path254"
       style="fill:#99bbeb;fill-opacity:1;fill-rule:nonzero;stroke:none;stroke-width:0.1"
       d="m 997.17,1094.12 9.66,-19.57 21.59,-3.14 -15.62,-15.23 3.69,-21.51 -19.32,10.16 -19.315,-10.16 3.689,21.51 -15.626,15.23 21.595,3.14 9.657,19.57" /><path
       inkscape:connector-curvature="0"
       id="path256"
       style="fill:#99bbeb;fill-opacity:1;fill-rule:nonzero;stroke:none;stroke-width:0.1"
       d="m 1076.27,1094.12 9.66,-19.57 21.6,-3.14 -15.63,-15.23 3.69,-21.51 -19.32,10.16 -19.31,-10.16 3.69,21.51 -15.63,15.23 21.6,3.14 9.65,19.57" /><path
       inkscape:connector-curvature="0"
       id="path258"
       style="fill:#99bbeb;fill-opacity:1;fill-rule:nonzero;stroke:none;stroke-width:0.1"
       d="m 1155.37,1094.12 9.66,-19.57 21.6,-3.14 -15.63,-15.23 3.69,-21.51 -19.32,10.16 -19.31,-10.16 3.69,21.51 -15.63,15.23 21.6,3.14 9.65,19.57" /><path
       inkscape:connector-curvature="0"
       id="path260"
       style="fill:#99bbeb;fill-opacity:1;fill-rule:nonzero;stroke:none;stroke-width:0.1"
       d="m 1234.48,1094.12 9.65,-19.57 21.6,-3.14 -15.63,-15.23 3.69,-21.51 -19.31,10.16 -19.32,-10.16 3.69,21.51 -15.63,15.23 21.6,3.14 9.66,19.57" /><path
       inkscape:connector-curvature="0"
       id="path262"
       style="fill:#99bbeb;fill-opacity:1;fill-rule:nonzero;stroke:none;stroke-width:0.1"
       d="m 1314.84,1094.12 9.65,-19.57 21.6,-3.14 -15.63,-15.23 3.69,-21.51 -19.31,10.16 -19.32,-10.16 3.69,21.51 -15.63,15.23 21.6,3.14 9.66,19.57" /><g
       transform="scale(0.147742)"
       id="g264"><path
         inkscape:connector-curvature="0"
         id="path266"
         style="fill:#2e5b9a;fill-opacity:1;fill-rule:nonzero;stroke:none"
         d="m 16243.9,5081.62 h -5157.4 c -31,0 -56.1,25.11 -56.1,56.11 v 84.13 c 0,31 25.1,56.11 56.1,56.11 h 5157.4 c 31,0 56.1,-25.11 56.1,-56.11 v -84.13 c 0,-31 -25.1,-56.11 -56.1,-56.11" /></g><g
       transform="scale(0.159904)"
       id="g268"><path
         inkscape:connector-curvature="0"
         id="path270"
         style="fill:#f09959;fill-opacity:1;fill-rule:nonzero;stroke:none"
         d="m 16235.5,7308.11 c 64.5,-227.63 -93.2,-462.19 -266.9,-511.47 -173.7,-49.28 -297.7,105.4 -362.2,333.02 -64.6,227.63 23.9,452.1 197.6,501.37 173.7,49.28 366.9,-95.3 431.5,-322.92" /></g><g
       transform="scale(0.156738)"
       id="g272"><path
         inkscape:connector-curvature="0"
         id="path274"
         style="fill:#f09959;fill-opacity:1;fill-rule:nonzero;stroke:none"
         d="m 15569.7,2955.83 c 0,0 454.2,-705.45 515.6,-736.07 61.3,-30.69 214.7,-38.35 157.2,-153.38 -57.5,-115.03 -80.6,-567.45 -134.2,-590.41 -53.7,-23.04 -513.7,-76.69 -444.8,0 69.1,76.69 111.5,38.34 146.3,176.34 34.9,138 83.8,398.69 18.6,452.41 -65.2,53.66 -463.9,536.76 -463.9,536.76 l 205.2,314.35" /></g><g
       transform="scale(0.131354)"
       id="g276"><path
         inkscape:connector-curvature="0"
         id="path278"
         style="fill:#f09959;fill-opacity:1;fill-rule:nonzero;stroke:none"
         d="m 15850.8,3165.57 c 0,0 -658.7,-1085.85 -780.8,-1183.44 -121.9,-97.6 -524.6,-244 -195.2,-268.36 329.5,-24.44 488,109.78 695.4,170.76 207.5,60.98 463.6,97.6 366,256.25 -97.6,158.58 -57,504.82 153.4,724.38 210.4,219.63 -238.8,300.41 -238.8,300.41" /></g><g
       transform="scale(0.156891)"
       id="g280"><path
         inkscape:connector-curvature="0"
         id="path282"
         style="fill:#6791c9;fill-opacity:1;fill-rule:nonzero;stroke:none"
         d="m 16085.5,4758.32 c 0,0 -1365.4,35.7 -1906.7,-408.56 -316.7,-480.08 -1082.7,-1896.53 -1142.3,-2052.63 40.9,-40.85 270.7,-114.6 372.9,-104.4 301.3,359.29 699.6,669.89 858,951.74 195.2,347.24 255.3,520.93 572,551.53 316.6,30.65 1031.6,132.83 1246.1,132.83 214.5,0 0,929.49 0,929.49" /></g><g
       transform="scale(0.166288)"
       id="g284"><path
         inkscape:connector-curvature="0"
         id="path286"
         style="fill:#2e5b9a;fill-opacity:1;fill-rule:nonzero;stroke:none"
         d="m 16300,1351.39 h -67.5 l -484.3,2020.36 h 148.6 L 16300,1351.39" /></g><g
       transform="scale(0.152009)"
       id="g288"><path
         inkscape:connector-curvature="0"
         id="path290"
         style="fill:#2e5b9a;fill-opacity:1;fill-rule:nonzero;stroke:none"
         d="m 15618.3,1478.34 h 73.8 l 607.9,2288.22 h -162.5 l -519.2,-2288.22" /></g><g
       transform="scale(0.165486)"
       id="g292"><path
         inkscape:connector-curvature="0"
         id="path294"
         style="fill:#75a1de;fill-opacity:1;fill-rule:nonzero;stroke:none"
         d="M 15987.6,4599.85 15235,4469.93 c 0,0 -1000.1,-9.19 -1457.3,-94.33 -415.9,-77.47 -477.2,-550.02 0,-1200.77 271.1,-369.7 500.3,-664.53 969,-997 119.2,87.5 164.8,120.61 197.8,331.27 -33.9,46.53 -121.7,337.61 -149,394.59 -259.3,541.92 -605.3,738.98 -610.1,792.34 58.1,94.38 1539,-492.13 1833.4,-147.15 281.2,329.46 -31.2,1050.97 -31.2,1050.97" /></g><g
       transform="scale(0.166987)"
       id="g296"><path
         inkscape:connector-curvature="0"
         id="path298"
         style="fill:#f37168;fill-opacity:1;fill-rule:nonzero;stroke:none"
         d="m 15874.9,6247.04 c -196.4,27.58 -396.5,-9.76 -583.6,-145.22 -163.5,-166.67 -348.5,-441.48 -337.2,-894.87 14.4,-575.8 -89.1,-612.75 18.9,-771.08 450.3,-185.95 1220.3,-984.81 1039,-128.39 -131.3,620.16 288,1082.42 -50.2,1770.33 -27.6,55.99 -62,110.29 -86.9,169.23" /></g><g
       transform="scale(0.163642)"
       id="g300"><path
         inkscape:connector-curvature="0"
         id="path302"
         style="fill:#d54a41;fill-opacity:1;fill-rule:nonzero;stroke:none"
         d="m 15259.6,5092.26 c -8.9,-306.33 -52.2,-396.53 -19.1,-492.59 187.3,-19.13 529.9,-94.05 615.5,-213.95 98,-137.06 196,-156.68 150.2,-55.48 -45.7,101.19 -166.5,244.8 19.6,737.7 186.1,492.97 274.2,825.89 91.4,1168.65 l -857.6,-1144.33" /></g><g
       transform="scale(0.162631)"
       id="g304"><path
         inkscape:connector-curvature="0"
         id="path306"
         style="fill:#f09959;fill-opacity:1;fill-rule:nonzero;stroke:none"
         d="m 16300,6414.34 c -124.1,294.01 -154.6,624.35 -154.6,624.35 l -325.3,-96.07 c 0,0 184.8,-413.83 7.5,-561.63 -37.8,-31.42 -81.5,-69.56 -126.8,-115.76 192.1,139.08 397.5,177.42 599.2,149.11" /></g><g
       transform="scale(0.161315)"
       id="g308"><path
         inkscape:connector-curvature="0"
         id="path310"
         style="fill:#e38540;fill-opacity:1;fill-rule:nonzero;stroke:none"
         d="m 16287,7017.2 c -19.4,17.28 -43.7,38.85 -69.3,61.4 l -267.3,-79 -0.6,-1.45 c 6.5,-14.78 74.5,-173.69 83.5,-326.56 79.7,48.34 167,127.16 266.7,264.85 -5.4,30.55 -9.7,57.79 -13,80.76" /></g><g
       transform="scale(0.163036)"
       id="g312"><path
         inkscape:connector-curvature="0"
         id="path314"
         style="fill:#f09959;fill-opacity:1;fill-rule:nonzero;stroke:none"
         d="m 16031.5,6306.16 c -334.1,-116.83 -297,-468.74 -604.4,-987.77 -159.2,-268.65 -307,-264.6 -307,-264.6 0,0 -373.1,-3.01 -824.4,52.19 -282.7,34.53 -300.6,-49.62 -104.1,-119.85 396.4,-141.75 807.9,-294.35 1139.6,-257.49 331.8,36.87 899.1,883.24 928.3,1103.56 40.5,304.71 -59.7,532.8 -228,473.96" /></g><g
       transform="scale(0.167448)"
       id="g316"><path
         inkscape:connector-curvature="0"
         id="path318"
         style="fill:#2e5b9a;fill-opacity:1;fill-rule:nonzero;stroke:none"
         d="m 15441.6,3264.78 c -20.2,0 -40.9,0.24 -62.1,0.77 -265.1,6.51 -445.6,43.18 -590.5,72.68 -169.3,34.4 -262.6,53.33 -371.1,1.5 -41.7,-19.89 -91.6,-2.27 -111.5,39.41 -19.9,41.63 -2.3,91.55 39.4,111.44 159,76.02 292.2,48.97 476.4,11.52 138.6,-28.18 311,-63.24 561.4,-69.39 280.2,-6.99 451,34.58 537.6,130.61 77.2,85.58 99.7,229.32 71.1,452.38 -9.8,76.38 -19.7,139.86 -28.3,195.88 -24.5,158.08 -40.7,262.53 -20.6,423.95 18.5,149.9 68.2,349.55 183.2,736.77 13.1,44.25 59.6,69.45 103.9,56.32 44.2,-13.14 69.5,-59.67 56.4,-103.92 -214.3,-721.53 -203.4,-791.77 -157.7,-1087.56 8.8,-57.03 18.8,-121.65 28.9,-200.12 35.4,-275.07 -0.4,-461.22 -112.7,-585.68 -115.6,-128.22 -303.2,-186.56 -603.8,-186.56" /></g><g
       transform="scale(0.129209)"
       id="g320"><path
         inkscape:connector-curvature="0"
         id="path322"
         style="fill:#d54a41;fill-opacity:1;fill-rule:nonzero;stroke:none"
         d="m 16159.5,2287.76 c -444.4,-217.32 -683.6,-341.92 -826.1,-330 -33.6,2.78 -61.4,6.19 -84.8,9.9 -158.5,-93.72 -411.5,-204.39 -126.8,-225.45 334.8,-24.84 496,111.61 706.9,173.6 210.9,61.99 471.3,99.22 372.1,260.51 -19.1,30.87 -32.8,68.8 -41.3,111.44" /></g><g
       transform="scale(0.156639)"
       id="g324"><path
         inkscape:connector-curvature="0"
         id="path326"
         style="fill:#d54a41;fill-opacity:1;fill-rule:nonzero;stroke:none"
         d="m 16135.4,2206.15 c -9,-290.22 -48.9,-577.82 -226.4,-632.15 -47,-14.43 -89.9,-16.47 -127.8,-11.43 -28,-34.54 -62,-34.92 -107.8,-85.67 -69,-76.74 391.3,-23.05 445,0 53.7,22.98 76.8,475.68 134.3,590.78 47.3,94.55 -47.8,116.58 -117.3,138.47" /></g><g
       transform="scale(0.142347)"
       id="g328"><path
         inkscape:connector-curvature="0"
         id="path330"
         style="fill:#75a1de;fill-opacity:1;fill-rule:nonzero;stroke:none"
         d="m 16201.6,5450.12 h -1281.4 c -38.3,0 -73.1,22.2 -89.2,56.91 l -517.8,1114.52 c -22.9,49.25 -1.6,107.7 47.7,130.6 49.3,22.9 107.7,1.54 130.6,-47.7 l 491.4,-1057.62 h 1218.7 c 54.4,0 98.4,-44.05 98.4,-98.36 0,-54.37 -44,-98.35 -98.4,-98.35" /></g><g
       transform="scale(0.147511)"
       id="g332"><path
         inkscape:connector-curvature="0"
         id="path334"
         style="fill:#f09959;fill-opacity:1;fill-rule:nonzero;stroke:none"
         d="m 15893.3,5632.59 c -249.9,3.6 -497.8,152.54 -620.9,130.84 -123.1,-21.76 -525,-300.58 -474.3,-311.43 50.6,-10.85 369.3,154.29 380.2,156.8 10.9,2.51 79.7,-114.36 249.8,-157.34 170.3,-42.92 1.3,127.58 528.8,-31.8 343.1,-103.58 -63.6,212.93 -63.6,212.93" /></g><g
       transform="scale(0.162631)"
       id="g336"><path
         inkscape:connector-curvature="0"
         id="path338"
         style="fill:#f2e5de;fill-opacity:1;fill-rule:nonzero;stroke:none"
         d="m 16266.7,6682.65 33.3,-268.31 c 0,0 -293.2,-17.45 -439.2,-99.56 -145.9,-82.12 -361.3,-319.38 -361.3,-319.38 l 176,302.95 25.3,193.8 565.9,190.5" /></g><g
       transform="scale(0.163413)"
       id="g340"><path
         inkscape:connector-curvature="0"
         id="path342"
         style="fill:#f2e5de;fill-opacity:1;fill-rule:nonzero;stroke:none"
         d="m 16064.6,6323.8 c -216.7,40.62 -317,-153.64 -457.6,-470.71 -140.5,-317.11 -380.5,-702.21 -428.2,-751.84 -47.7,-49.69 -804.2,0 -804.2,0 0,0 -22.9,-219.02 0,-245.21 22.9,-26.13 153.7,-22.82 153.7,-22.82 0,0 52.3,-41.8 101.3,-74.84 49,-33.05 464.2,-95.16 657.1,-85.37 192.9,9.79 369.3,26.13 395.5,55.57 26.2,29.43 552.4,840.14 585.1,1131.06 32.7,290.91 -92,443.42 -202.7,464.16" /></g><g
       transform="scale(0.163996)"
       id="g344"><path
         inkscape:connector-curvature="0"
         id="path346"
         style="fill:#303c60;fill-opacity:1;fill-rule:nonzero;stroke:none"
         d="m 15370.5,7630.26 c -408.6,-19.55 -344.5,-634.16 -344.5,-634.16 0,0 106.1,-32.77 328.4,3.88 -17,65.96 -9.7,234.52 -9.7,234.52 0,0 25.8,-136.8 58.6,-219.86 47,-21.55 100.2,-2.44 190.5,19.4 46.5,-195.3 177.7,-277.81 267.4,-306.04 99.3,-31.2 204.3,-68.4 321.5,-9.77 117.3,58.63 52.8,657.96 -9.5,778.48 -93.4,180.91 -248.8,342.83 -517.5,257.33 -134.7,-42.88 -285.2,-123.78 -285.2,-123.78" /></g><g
       transform="scale(0.181801)"
       id="g348"><path
         inkscape:connector-curvature="0"
         id="path350"
         style="fill:#303c60;fill-opacity:1;fill-rule:nonzero;stroke:none"
         d="m 14506.1,6224.52 150.6,-220.08 c 0,0 -167,-417.23 318.7,-606.24 380.4,-148.07 335.6,-408.9 163.7,-671.22 -171.9,-262.32 102.8,-491.42 102.8,-491.42 0,0 41.9,290.59 411.5,345.43 503.9,74.81 646.6,751.32 270.2,1089.63 -311.4,279.92 -406.2,48.1 -617,299.31 -210.8,251.21 -608.8,81.53 -608.8,81.53 l -145.9,212.72 -45.8,-39.66" /></g><g
       transform="scale(0.181148)"
       id="g352"><path
         inkscape:connector-curvature="0"
         id="path354"
         style="fill:#303c60;fill-opacity:1;fill-rule:nonzero;stroke:none"
         d="m 16155,5007.07 c -2.2,0 -4.4,0.55 -6.4,1.66 -6.5,3.58 -8.9,11.75 -5.4,18.27 127.2,232.41 23.4,513.94 -28.7,590.21 -5.6,8.09 -10.9,16.28 -16.4,24.95 -51.3,80.04 -115.1,179.65 -455.6,240.96 -82,14.76 -148.4,63.5 -218.7,115.11 -145.2,106.6 -309.8,227.42 -667.4,62.84 -6.7,-3.12 -14.7,-0.16 -17.8,6.59 -3.1,6.75 -0.2,14.73 6.5,17.84 372,171.21 543.4,45.41 694.6,-65.59 67.7,-49.71 131.7,-96.66 207.6,-110.32 352,-63.39 419.4,-168.48 473.5,-252.92 5.4,-8.49 10.6,-16.52 15.9,-24.27 54.6,-79.9 163.3,-374.87 30.1,-618.32 -2.4,-4.47 -7,-7.01 -11.8,-7.01" /></g><g
       transform="scale(0.162987)"
       id="g356"><path
         inkscape:connector-curvature="0"
         id="path358"
         style="fill:#303c60;fill-opacity:1;fill-rule:nonzero;stroke:none"
         d="m 16090.8,6691.5 c -26.9,0 -56,2.34 -87.3,7.02 -143.8,21.55 -336.8,103.28 -351.9,562.26 -0.3,8.25 6.2,15.16 14.4,15.43 8.4,0.15 15.2,-6.2 15.5,-14.45 6.2,-189.19 43.7,-329.16 111.5,-416.03 51.5,-66.01 119.8,-103.39 214.9,-117.64 133.1,-19.93 221.4,4.64 262.2,73.04 4.3,7.08 13.5,9.39 20.5,5.17 7.1,-4.24 9.4,-13.42 5.2,-20.51 -37.5,-62.73 -106.3,-94.29 -205,-94.29" /></g><g
       transform="scale(0.11039)"
       id="g360"><path
         inkscape:connector-curvature="0"
         id="path362"
         style="fill:#2e5b9a;fill-opacity:1;fill-rule:nonzero;stroke:none"
         d="m 15502.6,2035.69 h 163 l 634.4,4849.16 h -358.7 l -438.7,-4849.16" /></g><g
       transform="scale(0.142465)"
       id="g364"><path
         inkscape:connector-curvature="0"
         id="path366"
         style="fill:#2e5b9a;fill-opacity:1;fill-rule:nonzero;stroke:none"
         d="m 16300,1577.37 h -126.3 l -491.6,3757.41 h 278 L 16300,1577.37" /></g><g
       transform="scale(0.191425)"
       id="g368"><path
         inkscape:connector-curvature="0"
         id="path370"
         style="fill:#74b570;fill-opacity:1;fill-rule:nonzero;stroke:none"
         d="m 15819,3534.39 c 162.7,-148.56 91.9,-297.08 -28.3,-573.01 -120.3,-275.88 -141.5,-1294.51 -141.5,-1294.51 l 99,14.16 c 0,0 -14.1,1046.94 120.3,1329.87 134.4,282.98 191,424.45 311.2,332.51 120.3,-92 -360.7,190.98 -360.7,190.98" /></g><g
       transform="scale(0.201223)"
       id="g372"><path
         inkscape:connector-curvature="0"
         id="path374"
         style="fill:#9cd499;fill-opacity:1;fill-rule:nonzero;stroke:none"
         d="m 14963.7,3545.28 c 18.8,83.74 130.4,174.38 279.7,251.21 -22.3,-123.5 -93.4,-325.46 -19.8,-366.91 99.4,-55.86 9.7,226.12 48,381.12 140.2,68.43 308.8,124.39 464.1,152.22 -0.2,-0.59 -0.4,-1.09 -0.6,-1.69 -87.5,-222.09 -201.9,-309.55 -154.8,-343.2 35.4,-25.34 150.9,231.19 303.3,362.68 114.4,6.12 211.2,-9.39 268.5,-54.71 88.5,-70.07 147.9,-132.24 58.9,-345.59 -50.8,-36.38 -116.7,-62.42 -193.3,-70.07 -201.8,-20.18 -296.1,-26.94 -154.7,-94.22 69.1,-32.95 185.1,1.88 279.2,23.06 -30.5,-56.21 -68,-119.82 -113.6,-192.33 -28.9,-45.92 -60.7,-85.87 -94.6,-120.36 -65,-12.48 -121.8,-12.63 -151.8,0.24 -94.2,40.41 -336.5,168.28 -397.1,114.45 -59.2,-52.72 448.7,-86.07 413.5,-220 -246.2,-141.83 -527.9,-74.35 -577.7,55.91 -66.9,174.93 -313.8,216.08 -257.2,468.19" /></g><g
       transform="scale(0.191009)"
       id="g376"><path
         inkscape:connector-curvature="0"
         id="path378"
         style="fill:#74b570;fill-opacity:1;fill-rule:nonzero;stroke:none"
         d="m 16300,2726.78 c -283.6,212.71 -574.3,14.19 -723.1,-212.66 -148.9,-226.85 -42.6,-737.29 -42.6,-737.29 0,0 56.7,0 56.7,21.25 0,21.26 -155.9,602.59 212.7,864.93 230.7,164.08 397,85.08 418.3,7.07 21.2,-77.95 -92.1,-219.78 -92.1,-219.78 l 170.1,276.48" /></g><g
       transform="scale(0.187769)"
       id="g380"><path
         inkscape:connector-curvature="0"
         id="path382"
         style="fill:#9cd499;fill-opacity:1;fill-rule:nonzero;stroke:none"
         d="m 15917.8,3218.58 c 288.4,0 382.2,-447.15 302.8,-706.77 -79.3,-259.58 -187.5,-742.78 -187.5,-742.78 l -72.1,72.11 c 0,0 274.1,677.91 209.2,980.78 -65,302.92 -223.6,353.41 -252.4,353.41 -28.9,0 0,43.25 0,43.25" /></g><g
       transform="scale(0.187028)"
       id="g384"><path
         inkscape:connector-curvature="0"
         id="path386"
         style="fill:#74b570;fill-opacity:1;fill-rule:nonzero;stroke:none"
         d="m 16223.8,2519.79 c 20.4,26.95 45.5,49.24 76.2,64.05 -4,-21.6 -9,-42.34 -15,-62.07 -36.3,-118.76 -78.6,-284.08 -113.9,-428.92 -3.2,18.55 -8.1,47.16 -15.8,91.21 -1.8,10.43 -3.2,21.76 -4.2,33.74 28.4,96.46 55.2,201.52 72.7,301.99" /></g><g
       transform="scale(0.200041)"
       id="g388"><path
         inkscape:connector-curvature="0"
         id="path390"
         style="fill:#9cd499;fill-opacity:1;fill-rule:nonzero;stroke:none"
         d="m 15242.5,2353.82 c 514.4,216.61 243.4,513.9 696.9,317.59 32,-13.85 70.9,-48.74 109.8,-96.78 -40.3,-11.45 -89.2,-19.7 -143.6,-11.55 -135.4,20.3 -88.1,-87.98 135.4,-115.08 42,-5.09 76.2,-12.14 104.6,-22.09 106.5,-204.41 154.4,-473.36 -70.8,-566.84 -44.4,-18.44 -99.2,-28.94 -160.3,-32.89 -69.5,55.24 17,374.87 -90.2,330.73 -102.8,-42.34 32.2,-273.99 13.7,-332.33 -101.5,1.85 -213.9,18.4 -321.3,45.04 -42.5,23.8 -75,55.74 -85,97.78 -33.8,142.12 189.5,230.15 196.3,351.98 6.2,112.03 -81.8,-246.45 -315.3,-299.19 -211,98.58 -310.7,232.35 -70.2,333.63" /></g><g
       transform="scale(0.186689)"
       id="g392"><path
         inkscape:connector-curvature="0"
         id="path394"
         style="fill:#9cd499;fill-opacity:1;fill-rule:nonzero;stroke:none"
         d="m 15939.8,2932.58 c 58,123.31 -94.4,152.28 -87.1,58.01 6.5,-83.56 7.2,-286.68 -78.5,-341.96 -147.8,16.02 -348.9,75.58 -500.9,166.32 -1.9,12.27 -0.1,24.91 6.4,37.82 65.3,130.59 486,239.38 355.4,282.87 -104,34.66 -286.2,-169.91 -433,-272.96 -88.2,66.9 -147.3,146.66 -147.3,235.68 0,120.52 146.5,256.9 335.8,322.14 85.2,-8.62 164.4,-55.22 288,-125.29 182.7,-103.48 140.4,63.85 -32.3,163.16 149.1,-7.71 297.8,-71.4 407.4,-223.58 0,0 -10.4,-65.02 58.4,-165.67 187.9,-274.47 -28.9,-434.74 -288,-424.29 14.7,72.31 75.6,202.53 115.7,287.75" /></g><g
       transform="scale(0.198669)"
       id="g396"><path
         inkscape:connector-curvature="0"
         id="path398"
         style="fill:#74b570;fill-opacity:1;fill-rule:nonzero;stroke:none"
         d="m 15655.1,2633.22 c 133.3,-102.99 281.4,-223.44 463.1,-305.23 181.8,-81.8 145.5,-348.37 145.5,-348.37 0,0 27.2,230.23 -124.3,309.01 -151.4,78.77 -251.4,172.65 -366.5,190.87 -115.2,18.17 -178.7,36.34 -178.7,36.34 0,0 36.3,72.68 15.1,99.96 -21.2,27.29 45.8,17.42 45.8,17.42" /></g><g
       transform="scale(0.198817)"
       id="g400"><path
         inkscape:connector-curvature="0"
         id="path402"
         style="fill:#74b570;fill-opacity:1;fill-rule:nonzero;stroke:none"
         d="m 16300,3839.91 c -487.4,-130.17 -844.6,-442.01 -911.2,-517.66 -66.6,-75.7 -66.6,-96.87 -66.6,-96.87 l 51.5,-96.88 24.2,12.07 c 0,0 -39.4,81.79 63.5,187.71 177.5,182.73 393.6,326.94 541.9,390.51 148.4,63.58 296.7,121.12 296.7,121.12" /></g><g
       transform="scale(0.187603)"
       id="g404"><path
         inkscape:connector-curvature="0"
         id="path406"
         style="fill:#75a1de;fill-opacity:1;fill-rule:nonzero;stroke:none"
         d="m 15848.6,1210.37 h 197.3 c 140.4,0 254.1,113.76 254.1,254.11 v 453.4 h -705.5 v -453.4 c 0,-140.35 113.8,-254.11 254.1,-254.11" /></g><g
       transform="scale(0.187603)"
       id="g408"><path
         inkscape:connector-curvature="0"
         id="path410"
         style="fill:#ffffff;fill-opacity:1;fill-rule:nonzero;stroke:none"
         d="m 16300,1787.12 h -705.5 v 49.68 h 705.5 v -49.68" /></g><g
       transform="scale(0.187603)"
       id="g412"><path
         inkscape:connector-curvature="0"
         id="path414"
         style="fill:#ffffff;fill-opacity:1;fill-rule:nonzero;stroke:none"
         d="m 16300,1717.03 h -705.5 v 29.21 h 705.5 v -29.21" /></g></g></svg>