<?xml version="1.0" encoding="UTF-8" standalone="no"?>
<!-- Created with Inkscape (http://www.inkscape.org/) -->

<svg
   xmlns:dc="http://purl.org/dc/elements/1.1/"
   xmlns:cc="http://creativecommons.org/ns#"
   xmlns:rdf="http://www.w3.org/1999/02/22-rdf-syntax-ns#"
   xmlns:svg="http://www.w3.org/2000/svg"
   xmlns="http://www.w3.org/2000/svg"
   xmlns:sodipodi="http://sodipodi.sourceforge.net/DTD/sodipodi-0.dtd"
   xmlns:inkscape="http://www.inkscape.org/namespaces/inkscape"
   version="1.1"
   id="svg2"
   xml:space="preserve"
   width="4000"
   height="2666.6667"
   viewBox="0 0 4000 2666.6667"
   sodipodi:docname="2.svg"
   inkscape:version="0.92.5 (2060ec1f9f, 2020-04-08)"><metadata
     id="metadata8"><rdf:RDF><cc:Work
         rdf:about=""><dc:format>image/svg+xml</dc:format><dc:type
           rdf:resource="http://purl.org/dc/dcmitype/StillImage" /><dc:title></dc:title></cc:Work></rdf:RDF></metadata><defs
     id="defs6" /><sodipodi:namedview
     pagecolor="#ffffff"
     bordercolor="#666666"
     borderopacity="1"
     objecttolerance="10"
     gridtolerance="10"
     guidetolerance="10"
     inkscape:pageopacity="0"
     inkscape:pageshadow="2"
     inkscape:window-width="1366"
     inkscape:window-height="668"
     id="namedview4"
     showgrid="false"
     inkscape:zoom="0.088499997"
     inkscape:cx="2000"
     inkscape:cy="1333.3334"
     inkscape:window-x="0"
     inkscape:window-y="27"
     inkscape:window-maximized="1"
     inkscape:current-layer="g10" /><g
     id="g10"
     inkscape:groupmode="layer"
     inkscape:label="ink_ext_XXXXXX"
     transform="matrix(1.3333333,0,0,-1.3333333,0,2666.6667)"><g
       transform="scale(0.176378)"
       id="g18"><path
         inkscape:connector-curvature="0"
         id="path20"
         style="fill:#ebf3fa;fill-opacity:1;fill-rule:nonzero;stroke:none"
         d="m 2174.02,1627.53 c 0,0 -1756.249,1885.66 -297.01,3927.13 C 3171.75,7366 4681.28,7242.18 5788.82,6507.12 6260.48,6194.06 7620.46,6468.54 8778.03,8311.65 10356.5,10825.2 15828.3,9300.7 14830.7,5433.62 14347.8,3562.24 16300,3494.2 15305.3,1623.56 l -13131.28,3.97" /></g><path
       inkscape:connector-curvature="0"
       id="path22"
       style="fill:#a8d29f;fill-opacity:1;fill-rule:nonzero;stroke:none;stroke-width:0.1"
       d="m 978.32,930.03 c 0,0 -153.242,218.13 -213.13,189.85 -59.887,-28.28 213.13,-189.85 213.13,-189.85" /><path
       inkscape:connector-curvature="0"
       id="path24"
       style="fill:#a8d29f;fill-opacity:1;fill-rule:nonzero;stroke:none;stroke-width:0.1"
       d="m 968.575,988.64 c 0,0 -23.407,164.01 -60.308,157.58 -36.901,-6.44 60.308,-157.58 60.308,-157.58" /><path
       inkscape:connector-curvature="0"
       id="path26"
       style="fill:#82b378;fill-opacity:1;fill-rule:nonzero;stroke:none;stroke-width:0.1"
       d="m 839.017,477.44 c 0,0 14.73,72.98 -42.474,82.15 0,0 -38.798,1.36 -61.642,-13.27 0,0 64.879,-37.46 57.163,-49.1 -7.715,-11.64 -69.284,46.95 -69.284,46.95 0,0 -69.55,-30.46 -85.073,-52.53 0,0 82.187,-14.64 71.844,-24.02 -10.344,-9.39 -96.574,1.88 -96.574,1.88 0,0 -55.567,-44.76 -31.365,-80.39 24.201,-35.63 51.822,-35.37 60.565,-29.18 8.743,6.19 51.54,57.35 56.982,50.39 5.442,-6.96 -13.391,-50.15 -35.67,-64.13 0,0 69.965,-23.56 91.039,6.3 21.074,29.85 11.327,53.06 24.686,71.28 13.358,18.21 28.68,26.74 25.943,14.25 -2.737,-12.49 -30.66,-38.75 -30.781,-62.62 -0.121,-23.87 -2.487,-41.25 24.779,-20.14 27.265,21.11 63.484,69.93 51.673,96.05 -11.811,26.13 -11.811,26.13 -11.811,26.13" /><path
       inkscape:connector-curvature="0"
       id="path28"
       style="fill:#82b378;fill-opacity:1;fill-rule:nonzero;stroke:none;stroke-width:0.1"
       d="m 612.348,404.96 c 0,0 163.19,99.6 226.669,72.48 0,0 21.775,-19.84 59.251,-28.05 l 9.856,-8.47 c 0,0 -45.925,14.33 -57.296,10.39 0,0 -16.841,68.13 -238.48,-46.35" /><path
       inkscape:connector-curvature="0"
       id="path30"
       style="fill:#82b378;fill-opacity:1;fill-rule:nonzero;stroke:none;stroke-width:0.1"
       d="m 898.268,449.39 c 0,0 50.589,-6.48 79.504,-52.39 l -6.172,-4.21 c 0,0 -38.76,42.52 -70.112,50.1 -31.351,7.59 -3.22,6.5 -3.22,6.5" /><path
       inkscape:connector-curvature="0"
       id="path32"
       style="fill:#a8d29f;fill-opacity:1;fill-rule:nonzero;stroke:none;stroke-width:0.1"
       d="m 888.969,690.39 c 0,0 118.501,66.36 63.2,156.42 0,0 -44.24,55.3 -91.64,69.52 0,0 25.28,-134.3 0,-137.46 -25.28,-3.16 -17.381,151.68 -17.381,151.68 0,0 -124.82,60.04 -173.8,55.3 0,0 77.421,-131.14 52.14,-127.98 -25.28,3.16 -112.18,135.88 -112.18,135.88 0,0 -127.981,23.71 -148.521,-52.14 -20.54,-75.84 12.64,-113.76 31.6,-118.5 18.96,-4.74 140.621,-3.16 137.461,-18.96 -3.16,-15.8 -85.321,-41.08 -131.141,-26.86 0,0 50.561,-124.82 116.921,-118.5 66.36,6.32 86.9,47.4 127.98,50.56 41.08,3.16 71.1,-7.9 50.56,-18.96 -20.54,-11.06 -90.06,-3.62 -123.24,-31.83 -33.18,-28.21 -60.04,-45.59 1.58,-58.23 61.62,-12.64 172.221,-4.74 194.341,42.66 22.12,47.4 22.12,47.4 22.12,47.4" /><path
       inkscape:connector-curvature="0"
       id="path34"
       style="fill:#82b378;fill-opacity:1;fill-rule:nonzero;stroke:none;stroke-width:0.1"
       d="m 519.247,917.91 c 0,0 331.802,-107.44 369.722,-227.52 0,0 -1.58,-53.72 31.6,-115.34 v -23.7 c 0,0 -34.76,80.58 -53.72,91.64 0,0 74.26,104.28 -347.602,274.92" /><path
       inkscape:connector-curvature="0"
       id="path36"
       style="fill:#82b378;fill-opacity:1;fill-rule:nonzero;stroke:none;stroke-width:0.1"
       d="m 920.569,575.05 c 0,0 51.169,-77.7 21.998,-172.29 l -13.165,3.54 c 0,0 12.779,104.18 -13.992,156.58 -26.771,52.4 5.159,12.17 5.159,12.17" /><path
       inkscape:connector-curvature="0"
       id="path38"
       style="fill:#ed7d2b;fill-opacity:1;fill-rule:nonzero;stroke:none;stroke-width:0.1"
       d="M 1009.41,1245.6 832.107,328.99 c -3.606,-18.65 10.677,-35.96 29.665,-35.96 h 93.508 l 54.13,952.57" /><g
       transform="scale(0.153803)"
       id="g40"><path
         inkscape:connector-curvature="0"
         id="path42"
         style="fill:#c7dcfb;fill-opacity:1;fill-rule:nonzero;stroke:none"
         d="m 14225.7,6392.66 c 0,0 -518.5,330.8 -245.1,723.63 0,0 214.4,238.53 432.4,290.52 0,0 -149.2,-600.63 -35.7,-621.48 113.5,-20.84 117.9,681.26 117.9,681.26 0,0 580,239.05 800.2,204.91 0,0 -384.1,-572.81 -269,-565.08 115.2,7.72 542.5,585.22 542.5,585.22 0,0 584.7,73.93 658,-274.28 73.1,-348.22 -86.7,-511.06 -173.7,-527.56 -86.9,-16.51 -636.6,22.21 -626.4,-50.04 10.2,-72.26 375.1,-207.88 585.9,-155.48 0,0 -260.9,-551.18 -559.3,-505.4 -298.4,45.77 -380.6,236.86 -565.5,261.82 -184.9,24.91 -323.6,-17.29 -233.5,-72.62 90,-55.33 406.2,-39.79 548.9,-175.94 142.7,-136.09 259.6,-221.65 -22.3,-262.81 -281.8,-41.15 -779.9,23.28 -867.5,243.3 -87.8,220.03 -87.8,220.03 -87.8,220.03" /></g><g
       transform="scale(0.150561)"
       id="g44"><path
         inkscape:connector-curvature="0"
         id="path46"
         style="fill:#c7dcfb;fill-opacity:1;fill-rule:nonzero;stroke:none"
         d="m 16300,7483.13 c 0,0 -1560.9,-408.24 -1767.9,-952.81 0,0 -6.9,-248.47 -176.5,-524.31 l -6.3,-109.45 c 0,0 181.9,362.97 272.4,409 0,0 -315.3,501.32 1678.3,1177.57" /></g><g
       transform="scale(0.134061)"
       id="g48"><path
         inkscape:connector-curvature="0"
         id="path50"
         style="fill:#c7dcfb;fill-opacity:1;fill-rule:nonzero;stroke:none"
         d="m 16122.4,6745.19 c 0,0 -288.6,-387.8 -165.5,-887.05 l 69.4,14.4 c 0,0 -35.3,544.15 119.2,807.98 154.5,263.84 -23.1,64.67 -23.1,64.67" /></g><g
       transform="scale(0.142509)"
       id="g52"><path
         inkscape:connector-curvature="0"
         id="path54"
         style="fill:#dfebfd;fill-opacity:1;fill-rule:nonzero;stroke:none"
         d="m 13846.4,8448.85 c 0,0 -859.9,188.81 -686.1,851.44 0,0 170.3,426.21 437.6,603.54 0,0 95.7,-880.59 258.5,-852.66 162.8,27.93 -177.4,973.53 -177.4,973.53 0,0 661.4,607.1 974.2,669.8 0,0 -233.7,-958.99 -82.8,-891.85 150.8,67.13 440.3,1053.75 440.3,1053.75 0,0 749.3,387.7 1019.3,-44.1 270,-431.8 135.5,-729.4 26.8,-794.5 -108.7,-65.05 -866.3,-284 -817,-376.06 49.3,-92.07 606.5,-94.4 863.9,79.97 0,0 -78.8,-869.33 -502.4,-954.9 -423.5,-85.58 -628.2,130.62 -888.9,72.97 -260.8,-57.64 -426.2,-182.69 -278,-212.67 148.2,-29.99 565.5,146.86 824.3,34.27 258.9,-112.58 458.2,-169.88 99.7,-364.15 -358.5,-194.27 -1059.3,-353.24 -1285.7,-100.81 -226.3,252.43 -226.3,252.43 -226.3,252.43" /></g><g
       transform="scale(0.137368)"
       id="g56"><path
         inkscape:connector-curvature="0"
         id="path58"
         style="fill:#dfebfd;fill-opacity:1;fill-rule:nonzero;stroke:none"
         d="m 16300,10950.4 c 0,0 -1925.6,-1338.64 -1935.4,-2185.34 0,0 115,-342.62 21.6,-803.87 l 46.3,-152.51 c 0,0 66.5,586.34 166.9,694.5 0,0 -681.2,526.2 1700.6,2447.22" /></g><g
       transform="scale(0.123535)"
       id="g60"><path
         inkscape:connector-curvature="0"
         id="path62"
         style="fill:#dfebfd;fill-opacity:1;fill-rule:nonzero;stroke:none"
         d="m 15997.2,8852.66 c 0,0 -197.6,-667.01 216.3,-1280.55 l 86.5,53.83 c 0,0 -317.4,717.78 -239.5,1150.79 77.9,433.01 -63.3,75.93 -63.3,75.93" /></g><path
       inkscape:connector-curvature="0"
       id="path64"
       style="fill:#78acea;fill-opacity:1;fill-rule:nonzero;stroke:none;stroke-width:0.1"
       d="M 1011.54,1249.31 894.02,349.34 c -3.897,-29.84 19.335,-56.31 49.43,-56.31 h 172.4 l -97.2,959.53 -7.11,-3.25" /><path
       inkscape:connector-curvature="0"
       id="path66"
       style="fill:#699dee;fill-opacity:1;fill-rule:nonzero;stroke:none;stroke-width:0.1"
       d="M 1011.54,1249.31 958.93,355.08 c -1.98,-33.66 24.782,-62.05 58.5,-62.05 h 257.12 l -263.01,956.28" /><path
       inkscape:connector-curvature="0"
       id="path68"
       style="fill:#5288d8;fill-opacity:1;fill-rule:nonzero;stroke:none;stroke-width:0.1"
       d="m 1009.56,1242.01 25.58,-886.93 c -1.98,-33.66 24.78,-62.05 58.5,-62.05 h 257.12 l -341.2,948.98" /><g
       transform="scale(0.140984)"
       id="g70"><path
         inkscape:connector-curvature="0"
         id="path72"
         style="fill:#d7e9ff;fill-opacity:1;fill-rule:nonzero;stroke:none"
         d="M 15892.5,2078.46 H 8701.62 c -179.52,0 -333.44,128.31 -365.71,304.93 l -1094.17,5983.8 c -49.72,271.67 158.96,521.95 435.16,521.95 h 7106.2 c 179.5,0 333.4,-128.3 365.7,-304.91 l 1109.4,-6067.07 c 41.8,-228.32 -133.5,-438.7 -365.7,-438.7" /></g><g
       transform="scale(0.132643)"
       id="g74"><path
         inkscape:connector-curvature="0"
         id="path76"
         style="fill:#f99746;fill-opacity:1;fill-rule:nonzero;stroke:none"
         d="M 7848.44,8067.36 H 16300 l -216.7,1200.82 c -18.8,104.17 -109.5,179.94 -215.4,179.94 H 7681.6 c -44.71,0 -78.48,-40.53 -70.49,-84.55 l 237.33,-1296.21" /></g><path
       inkscape:connector-curvature="0"
       id="path78"
       style="fill:#78acea;fill-opacity:1;fill-rule:nonzero;stroke:none;stroke-width:0.1"
       d="m 1067.25,1301.16 c -26.81,0 -48.61,-21.79 -48.61,-48.59 h 9.34 c 0,21.65 17.61,39.26 39.27,39.26 21.65,0 39.27,-17.61 39.27,-39.26 0,-4.35 -0.7,-8.53 -2.02,-12.43 -3.85,-11.55 -12.93,-20.71 -24.41,-24.68 -3.36,-1.17 -6.91,-1.9 -10.61,-2.1 v -9.34 c 4.32,0.19 8.47,0.95 12.42,2.2 15.77,4.99 28.08,17.83 32.34,33.92 1.05,3.97 1.61,8.13 1.61,12.43 0,26.8 -21.8,48.59 -48.6,48.59" /><path
       inkscape:connector-curvature="0"
       id="path80"
       style="fill:#78acea;fill-opacity:1;fill-rule:nonzero;stroke:none;stroke-width:0.1"
       d="m 1082.28,1209.03 c 0,-0.97 -0.14,-1.92 -0.38,-2.81 -1.23,-4.45 -5.3,-7.71 -10.14,-7.71 -5.81,0 -10.53,4.71 -10.53,10.52 0,5.81 4.72,10.53 10.53,10.53 3.39,0 6.4,-1.62 8.33,-4.1 1.38,-1.78 2.19,-4.01 2.19,-6.43" /><path
       inkscape:connector-curvature="0"
       id="path82"
       style="fill:#78acea;fill-opacity:1;fill-rule:nonzero;stroke:none;stroke-width:0.1"
       d="m 1241.5,1301.16 c -26.8,0 -48.6,-21.79 -48.6,-48.59 h 9.33 c 0,21.65 17.62,39.26 39.27,39.26 21.66,0 39.27,-17.61 39.27,-39.26 0,-4.35 -0.71,-8.53 -2.02,-12.43 -3.86,-11.55 -12.93,-20.71 -24.41,-24.68 -3.35,-1.17 -6.91,-1.9 -10.61,-2.1 v -9.34 c 4.31,0.19 8.47,0.95 12.42,2.2 15.77,4.99 28.09,17.83 32.35,33.92 1.05,3.97 1.61,8.13 1.61,12.43 0,26.8 -21.81,48.59 -48.61,48.59" /><path
       inkscape:connector-curvature="0"
       id="path84"
       style="fill:#78acea;fill-opacity:1;fill-rule:nonzero;stroke:none;stroke-width:0.1"
       d="m 1256.52,1209.03 c 0,-0.97 -0.13,-1.92 -0.37,-2.81 -1.23,-4.45 -5.3,-7.71 -10.15,-7.71 -5.81,0 -10.52,4.71 -10.52,10.52 0,5.81 4.71,10.53 10.52,10.53 3.4,0 6.42,-1.62 8.34,-4.1 1.37,-1.78 2.18,-4.01 2.18,-6.43" /><path
       inkscape:connector-curvature="0"
       id="path86"
       style="fill:#78acea;fill-opacity:1;fill-rule:nonzero;stroke:none;stroke-width:0.1"
       d="m 1415.76,1301.16 c -26.8,0 -48.6,-21.79 -48.6,-48.59 h 9.32 c 0,21.65 17.61,39.26 39.28,39.26 21.65,0 39.27,-17.61 39.27,-39.26 0,-4.35 -0.71,-8.53 -2.03,-12.43 -3.85,-11.55 -12.93,-20.71 -24.4,-24.68 -3.36,-1.17 -6.92,-1.9 -10.62,-2.1 v -9.34 c 4.31,0.19 8.47,0.95 12.42,2.2 15.78,5 28.08,17.83 32.34,33.92 1.05,3.97 1.61,8.13 1.61,12.43 0,26.8 -21.8,48.59 -48.59,48.59" /><path
       inkscape:connector-curvature="0"
       id="path88"
       style="fill:#78acea;fill-opacity:1;fill-rule:nonzero;stroke:none;stroke-width:0.1"
       d="m 1430.78,1209.03 c 0,-0.97 -0.14,-1.92 -0.38,-2.81 -1.23,-4.45 -5.3,-7.71 -10.14,-7.71 -5.81,0 -10.53,4.71 -10.53,10.52 0,5.81 4.72,10.53 10.53,10.53 3.39,0 6.4,-1.62 8.34,-4.1 1.37,-1.78 2.18,-4.01 2.18,-6.43" /><g
       transform="scale(0.100528)"
       id="g90"><path
         inkscape:connector-curvature="0"
         id="path92"
         style="fill:#78acea;fill-opacity:1;fill-rule:nonzero;stroke:none"
         d="m 15816.5,12943.2 c -266.6,0 -483.4,-216.8 -483.4,-483.4 h 92.8 c 0,215.4 175.2,390.6 390.6,390.6 215.4,0 390.7,-175.2 390.7,-390.6 0,-43.2 -7.1,-84.8 -20.1,-123.6 -38.4,-114.8 -128.6,-206 -242.8,-245.5 -33.4,-11.6 -68.8,-18.8 -105.6,-20.9 v -92.9 c 42.8,2 84.3,9.4 123.6,21.9 157,49.8 279.3,177.4 321.7,337.4 10.4,39.5 16,81 16,123.6 0,266.6 -216.9,483.4 -483.5,483.4" /></g><path
       inkscape:connector-curvature="0"
       id="path94"
       style="fill:#78acea;fill-opacity:1;fill-rule:nonzero;stroke:none;stroke-width:0.1"
       d="m 1605.04,1209.03 c 0,-0.97 -0.14,-1.92 -0.38,-2.81 -1.23,-4.45 -5.31,-7.71 -10.15,-7.71 -5.81,0 -10.52,4.71 -10.52,10.52 0,5.81 4.71,10.53 10.52,10.53 3.39,0 6.41,-1.62 8.34,-4.1 1.38,-1.78 2.19,-4.01 2.19,-6.43" /><g
       transform="scale(0.111218)"
       id="g96"><path
         inkscape:connector-curvature="0"
         id="path98"
         style="fill:#78acea;fill-opacity:1;fill-rule:nonzero;stroke:none"
         d="m 15863,11699.1 c -240.9,0 -437,-195.9 -437,-436.9 h 83.8 c 0,194.7 158.6,353.1 353.2,353.1 194.7,0 353.1,-158.4 353.1,-353.1 0,-39.1 -6.4,-76.7 -18.2,-111.8 -34.7,-103.7 -116.3,-186.1 -219.5,-221.8 -30.1,-10.5 -62.2,-17.1 -95.3,-18.9 v -84 c 38.7,1.8 76.1,8.5 111.6,19.8 141.8,44.9 252.6,160.3 290.8,304.9 9.5,35.8 14.5,73.2 14.5,111.8 0,241 -196,436.9 -437,436.9" /></g><g
       transform="scale(0.109158)"
       id="g100"><path
         inkscape:connector-curvature="0"
         id="path102"
         style="fill:#78acea;fill-opacity:1;fill-rule:nonzero;stroke:none"
         d="m 16300,11075.9 c 0,-8.9 -1.3,-17.5 -3.5,-25.7 -11.2,-40.8 -48.4,-70.7 -92.9,-70.7 -53.2,0 -96.4,43.2 -96.4,96.4 0,53.3 43.2,96.5 96.4,96.5 31.2,0 58.8,-14.8 76.3,-37.6 12.7,-16.3 20.1,-36.7 20.1,-58.9" /></g><g
       transform="scale(0.121909)"
       id="g104"><path
         inkscape:connector-curvature="0"
         id="path106"
         style="fill:#78acea;fill-opacity:1;fill-rule:nonzero;stroke:none"
         d="m 15901.4,10673.2 c -219.9,0 -398.7,-178.7 -398.7,-398.6 h 76.5 c 0,177.7 144.5,322.1 322.2,322.1 177.6,0 322.1,-144.4 322.1,-322.1 0,-35.6 -5.9,-69.9 -16.6,-101.9 -31.7,-94.7 -106.1,-169.9 -200.2,-202.47 -27.5,-9.55 -56.7,-15.54 -87.1,-17.23 v -76.59 c 35.5,1.59 69.5,7.77 101.9,18.07 129.3,40.92 230.4,146.22 265.3,278.22 8.6,32.5 13.2,66.7 13.2,101.9 0,219.9 -178.8,398.6 -398.6,398.6" /></g><g
       transform="scale(0.119849)"
       id="g108"><path
         inkscape:connector-curvature="0"
         id="path110"
         style="fill:#78acea;fill-opacity:1;fill-rule:nonzero;stroke:none"
         d="m 16300,10087.9 c 0,-8.1 -1.2,-16 -3.2,-23.4 -10.2,-37.1 -44.3,-64.4 -84.7,-64.4 -48.4,0 -87.7,39.4 -87.7,87.8 0,48.5 39.3,87.9 87.7,87.9 28.3,0 53.5,-13.5 69.6,-34.2 11.5,-14.9 18.3,-33.5 18.3,-53.7" /></g><g
       transform="scale(0.132599)"
       id="g112"><path
         inkscape:connector-curvature="0"
         id="path114"
         style="fill:#78acea;fill-opacity:1;fill-rule:nonzero;stroke:none"
         d="m 15933.5,9812.75 c -202.1,0 -366.5,-164.34 -366.5,-366.46 h 70.3 c 0,163.29 132.9,296.12 296.2,296.12 163.3,0 296.2,-132.83 296.2,-296.12 0,-32.8 -5.3,-64.31 -15.2,-93.75 -29.1,-87.03 -97.5,-156.16 -184.2,-186.11 -25.3,-8.79 -52,-14.29 -79.9,-15.85 v -70.41 c 32.5,1.46 63.8,7.14 93.6,16.61 118.9,37.62 211.8,134.47 243.9,255.76 7.9,29.95 12.1,61.38 12.1,93.75 0,202.12 -164.4,366.46 -366.5,366.46" /></g><g
       transform="scale(0.130539)"
       id="g116"><path
         inkscape:connector-curvature="0"
         id="path118"
         style="fill:#78acea;fill-opacity:1;fill-rule:nonzero;stroke:none"
         d="m 16300,9261.81 c 0,-7.43 -1,-14.69 -2.8,-21.51 -9.5,-34.1 -40.7,-59.11 -77.8,-59.11 -44.5,0 -80.6,36.11 -80.6,80.62 0,44.51 36.1,80.63 80.6,80.63 26,0 49,-12.34 63.8,-31.4 10.6,-13.64 16.8,-30.69 16.8,-49.23" /></g><g
       transform="scale(0.104307)"
       id="g120"><path
         inkscape:connector-curvature="0"
         id="path122"
         style="fill:#afcdfb;fill-opacity:1;fill-rule:nonzero;stroke:none"
         d="m 16195.7,7390.32 h -543.3 c -62.8,0 -124.1,51.29 -136.2,114.18 l -104.8,543.3 c -12.1,62.8 29.3,114.18 92.2,114.18 h 543.3 c 62.8,0 124.1,-51.38 136.1,-114.18 l 104.9,-543.3 c 12.1,-62.89 -29.4,-114.18 -92.2,-114.18" /></g><g
       transform="scale(0.11308)"
       id="g124"><path
         inkscape:connector-curvature="0"
         id="path126"
         style="fill:#afcdfb;fill-opacity:1;fill-rule:nonzero;stroke:none"
         d="m 16203.8,6816.96 h -501.2 c -57.9,0 -114.4,47.31 -125.5,105.32 l -96.8,501.15 c -11.1,57.93 27.2,105.33 85.1,105.33 h 501.1 c 58,0 114.5,-47.4 125.7,-105.33 l 96.7,-501.15 c 11.1,-58.01 -27.1,-105.32 -85.1,-105.32" /></g><g
       transform="scale(0.121853)"
       id="g128"><path
         inkscape:connector-curvature="0"
         id="path130"
         style="fill:#78acea;fill-opacity:1;fill-rule:nonzero;stroke:none"
         d="m 16210.8,6326.16 h -465.1 c -53.8,0 -106.2,43.91 -116.6,97.74 l -89.7,465.07 c -10.4,53.76 25.1,97.74 78.9,97.74 h 465 c 53.8,0 106.2,-43.98 116.7,-97.74 l 89.7,-465.07 c 10.3,-53.83 -25.2,-97.74 -78.9,-97.74" /></g><path
       inkscape:connector-curvature="0"
       id="path132"
       style="fill:#afcdfb;fill-opacity:1;fill-rule:nonzero;stroke:none;stroke-width:0.1"
       d="m 1260.32,770.86 h -56.67 c -6.55,0 -12.95,5.35 -14.21,11.91 l -10.93,56.67 c -1.27,6.55 3.06,11.91 9.61,11.91 h 56.67 c 6.55,0 12.95,-5.36 14.21,-11.91 l 10.93,-56.67 c 1.27,-6.56 -3.06,-11.91 -9.61,-11.91" /><path
       inkscape:connector-curvature="0"
       id="path134"
       style="fill:#f99746;fill-opacity:1;fill-rule:nonzero;stroke:none;stroke-width:0.1"
       d="m 1198.21,940.99 h -24.36 c -2.81,0 -5.56,2.3 -6.1,5.12 l -4.7,24.35 c -0.54,2.82 1.32,5.12 4.13,5.12 h 24.35 c 2.82,0 5.57,-2.3 6.11,-5.12 l 4.7,-24.35 c 0.54,-2.82 -1.32,-5.12 -4.13,-5.12" /><path
       inkscape:connector-curvature="0"
       id="path136"
       style="fill:#afcdfb;fill-opacity:1;fill-rule:nonzero;stroke:none;stroke-width:0.1"
       d="m 1403.32,770.86 h -56.67 c -6.55,0 -12.95,5.35 -14.21,11.91 l -10.93,56.67 c -1.26,6.55 3.06,11.91 9.61,11.91 h 56.67 c 6.55,0 12.95,-5.36 14.21,-11.91 l 10.93,-56.67 c 1.27,-6.56 -3.06,-11.91 -9.61,-11.91" /><path
       inkscape:connector-curvature="0"
       id="path138"
       style="fill:#afcdfb;fill-opacity:1;fill-rule:nonzero;stroke:none;stroke-width:0.1"
       d="m 1546.32,770.86 h -56.67 c -6.55,0 -12.94,5.35 -14.21,11.91 l -10.93,56.67 c -1.26,6.55 3.06,11.91 9.61,11.91 h 56.67 c 6.56,0 12.95,-5.36 14.21,-11.91 l 10.93,-56.67 c 1.27,-6.56 -3.06,-11.91 -9.61,-11.91" /><g
       transform="scale(0.130626)"
       id="g140"><path
         inkscape:connector-curvature="0"
         id="path142"
         style="fill:#78acea;fill-opacity:1;fill-rule:nonzero;stroke:none"
         d="m 16216.7,5901.26 h -433.8 c -50.2,0 -99.2,40.96 -108.8,91.17 l -83.7,433.84 c -9.7,50.14 23.4,91.17 73.6,91.17 h 433.8 c 50.2,0 99.2,-41.03 108.8,-91.17 l 83.7,-433.84 c 9.7,-50.21 -23.4,-91.17 -73.6,-91.17" /></g><g
       transform="scale(0.10285)"
       id="g144"><path
         inkscape:connector-curvature="0"
         id="path146"
         style="fill:#afcdfb;fill-opacity:1;fill-rule:nonzero;stroke:none"
         d="m 16194.2,8691.66 h -551 c -63.7,0 -125.9,52.11 -138.1,115.8 l -106.3,550.99 c -12.3,63.69 29.7,115.8 93.4,115.8 h 551 c 63.7,0 125.9,-52.11 138.2,-115.8 l 106.2,-550.99 c 12.4,-63.69 -29.7,-115.8 -93.4,-115.8" /></g><g
       transform="scale(0.111623)"
       id="g148"><path
         inkscape:connector-curvature="0"
         id="path150"
         style="fill:#afcdfb;fill-opacity:1;fill-rule:nonzero;stroke:none"
         d="m 16202.5,8008.54 h -507.7 c -58.6,0 -115.9,48.02 -127.3,106.7 l -97.9,507.69 c -11.3,58.68 27.4,106.7 86.1,106.7 h 507.7 c 58.8,0 116,-48.02 127.3,-106.7 l 98,-507.69 c 11.3,-58.68 -27.5,-106.7 -86.2,-106.7" /></g><g
       transform="scale(0.120396)"
       id="g152"><path
         inkscape:connector-curvature="0"
         id="path154"
         style="fill:#78acea;fill-opacity:1;fill-rule:nonzero;stroke:none"
         d="m 16209.6,7424.98 h -470.7 c -54.4,0 -107.4,44.52 -117.9,98.92 l -90.9,470.7 c -10.4,54.4 25.5,98.92 79.9,98.92 h 470.7 c 54.4,0 107.5,-44.52 118,-98.92 l 90.8,-470.7 c 10.5,-54.4 -25.5,-98.92 -79.9,-98.92" /></g><g
       transform="scale(0.129169)"
       id="g156"><path
         inkscape:connector-curvature="0"
         id="path158"
         style="fill:#78acea;fill-opacity:1;fill-rule:nonzero;stroke:none"
         d="m 16215.8,6920.68 h -438.7 c -50.8,0 -100.2,41.5 -110,92.21 l -84.7,438.72 c -9.7,50.71 23.8,92.21 74.5,92.21 h 438.7 c 50.7,0 100.2,-41.5 110,-92.21 l 84.6,-438.72 c 9.8,-50.71 -23.6,-92.21 -74.4,-92.21" /></g><g
       transform="scale(0.10585)"
       id="g160"><path
         inkscape:connector-curvature="0"
         id="path162"
         style="fill:#afcdfb;fill-opacity:1;fill-rule:nonzero;stroke:none"
         d="m 16197.3,6050.05 h -535.4 c -61.9,0 -122.3,50.64 -134.2,112.52 l -103.3,535.38 c -12,61.88 28.9,112.52 90.8,112.52 h 535.4 c 61.9,0 122.3,-50.64 134.2,-112.52 l 103.3,-535.38 c 11.9,-61.88 -28.9,-112.52 -90.8,-112.52" /></g><g
       transform="scale(0.114624)"
       id="g164"><path
         inkscape:connector-curvature="0"
         id="path166"
         style="fill:#afcdfb;fill-opacity:1;fill-rule:nonzero;stroke:none"
         d="m 16205.1,5586.97 h -494.4 c -57.2,0 -113,46.76 -124,103.9 l -95.3,494.4 c -11.1,57.15 26.7,103.91 83.8,103.91 h 494.4 c 57.1,0 113,-46.76 124,-103.91 l 95.3,-494.4 c 11.1,-57.14 -26.7,-103.9 -83.8,-103.9" /></g><g
       transform="scale(0.123397)"
       id="g168"><path
         inkscape:connector-curvature="0"
         id="path170"
         style="fill:#78acea;fill-opacity:1;fill-rule:nonzero;stroke:none"
         d="m 16211.8,5189.76 h -459.2 c -53.1,0 -104.9,43.43 -115.2,96.52 l -88.6,459.24 c -10.2,53.09 24.8,96.52 77.9,96.52 h 459.3 c 53.1,0 104.9,-43.43 115.1,-96.52 l 88.6,-459.24 c 10.3,-53.09 -24.8,-96.52 -77.9,-96.52" /></g><path
       inkscape:connector-curvature="0"
       id="path172"
       style="fill:#afcdfb;fill-opacity:1;fill-rule:nonzero;stroke:none;stroke-width:0.1"
       d="m 1285.48,640.4 h -56.67 c -6.55,0 -12.94,5.36 -14.21,11.91 l -10.93,56.67 c -1.26,6.55 3.06,11.91 9.62,11.91 h 56.67 c 6.55,0 12.94,-5.36 14.2,-11.91 l 10.94,-56.67 c 1.26,-6.55 -3.07,-11.91 -9.62,-11.91" /><path
       inkscape:connector-curvature="0"
       id="path174"
       style="fill:#afcdfb;fill-opacity:1;fill-rule:nonzero;stroke:none;stroke-width:0.1"
       d="m 1428.48,640.4 h -56.67 c -6.55,0 -12.94,5.36 -14.21,11.91 l -10.93,56.67 c -1.26,6.55 3.07,11.91 9.62,11.91 h 56.67 c 6.55,0 12.94,-5.36 14.21,-11.91 l 10.93,-56.67 c 1.26,-6.55 -3.06,-11.91 -9.62,-11.91" /><path
       inkscape:connector-curvature="0"
       id="path176"
       style="fill:#afcdfb;fill-opacity:1;fill-rule:nonzero;stroke:none;stroke-width:0.1"
       d="m 1571.49,640.4 h -56.67 c -6.56,0 -12.95,5.36 -14.21,11.91 l -10.94,56.67 c -1.26,6.55 3.07,11.91 9.62,11.91 h 56.67 c 6.55,0 12.94,-5.36 14.21,-11.91 l 10.93,-56.67 c 1.26,-6.55 -3.06,-11.91 -9.61,-11.91" /><g
       transform="scale(0.13217)"
       id="g178"><path
         inkscape:connector-curvature="0"
         id="path180"
         style="fill:#78acea;fill-opacity:1;fill-rule:nonzero;stroke:none"
         d="m 16217.7,4845.28 h -428.8 c -49.5,0 -97.9,40.55 -107.5,90.11 l -82.7,428.76 c -9.5,49.56 23.2,90.12 72.7,90.12 h 428.9 c 49.5,0 97.9,-40.56 107.4,-90.12 l 82.8,-428.76 c 9.5,-49.56 -23.3,-90.11 -72.8,-90.11" /></g><g
       transform="scale(0.107394)"
       id="g182"><path
         inkscape:connector-curvature="0"
         id="path184"
         style="fill:#afcdfb;fill-opacity:1;fill-rule:nonzero;stroke:none"
         d="M 16198.7,4748.38 H 15671 c -61,0 -120.5,49.91 -132.3,110.9 l -101.8,527.68 c -11.7,60.99 28.5,110.9 89.5,110.9 h 527.8 c 61,0 120.5,-49.91 132.2,-110.9 l 101.9,-527.68 c 11.7,-60.99 -28.6,-110.9 -89.6,-110.9" /></g><g
       transform="scale(0.116167)"
       id="g186"><path
         inkscape:connector-curvature="0"
         id="path188"
         style="fill:#afcdfb;fill-opacity:1;fill-rule:nonzero;stroke:none"
         d="m 16206.3,4389.78 h -487.8 c -56.4,0 -111.4,46.14 -122.3,102.53 l -94.1,487.83 c -10.8,56.38 26.3,102.52 82.8,102.52 h 487.8 c 56.4,0 111.4,-46.14 122.3,-102.52 l 94.2,-487.83 c 10.8,-56.39 -26.5,-102.53 -82.9,-102.53" /></g><g
       transform="scale(0.12494)"
       id="g190"><path
         inkscape:connector-curvature="0"
         id="path192"
         style="fill:#78acea;fill-opacity:1;fill-rule:nonzero;stroke:none"
         d="m 16212.9,4081.54 h -453.6 c -52.4,0 -103.5,42.9 -113.6,95.33 l -87.6,453.58 c -10.1,52.42 24.6,95.32 77,95.32 h 453.6 c 52.4,0 103.6,-42.9 113.7,-95.32 l 87.5,-453.58 c 10.1,-52.43 -24.5,-95.33 -77,-95.33" /></g><path
       inkscape:connector-curvature="0"
       id="path194"
       style="fill:#afcdfb;fill-opacity:1;fill-rule:nonzero;stroke:none;stroke-width:0.1"
       d="m 1310.65,509.95 h -56.67 c -6.56,0 -12.95,5.36 -14.21,11.91 l -10.93,56.67 c -1.27,6.55 3.06,11.91 9.61,11.91 h 56.67 c 6.55,0 12.94,-5.36 14.21,-11.91 l 10.93,-56.67 c 1.26,-6.55 -3.06,-11.91 -9.61,-11.91" /><path
       inkscape:connector-curvature="0"
       id="path196"
       style="fill:#f99746;fill-opacity:1;fill-rule:nonzero;stroke:none;stroke-width:0.1"
       d="m 1453.65,509.95 h -56.67 c -6.55,0 -12.95,5.36 -14.21,11.91 l -10.93,56.67 c -1.27,6.55 3.06,11.91 9.61,11.91 h 56.67 c 6.55,0 12.95,-5.36 14.21,-11.91 l 10.93,-56.67 c 1.27,-6.55 -3.06,-11.91 -9.61,-11.91" /><path
       inkscape:connector-curvature="0"
       id="path198"
       style="fill:#afcdfb;fill-opacity:1;fill-rule:nonzero;stroke:none;stroke-width:0.1"
       d="m 1596.65,509.95 h -56.67 c -6.55,0 -12.95,5.36 -14.21,11.91 l -10.93,56.67 c -1.26,6.55 3.06,11.91 9.61,11.91 h 56.67 c 6.55,0 12.95,-5.36 14.21,-11.91 l 10.93,-56.67 c 1.27,-6.55 -3.06,-11.91 -9.61,-11.91" /><g
       transform="scale(0.133714)"
       id="g200"><path
         inkscape:connector-curvature="0"
         id="path202"
         style="fill:#78acea;fill-opacity:1;fill-rule:nonzero;stroke:none"
         d="m 16218.7,3813.75 h -423.8 c -49,0 -96.9,40.09 -106.3,89.07 l -81.7,423.82 c -9.5,48.98 22.9,89.07 71.8,89.07 h 423.9 c 48.9,0 96.8,-40.09 106.2,-89.07 l 81.8,-423.82 c 9.4,-48.98 -22.9,-89.07 -71.9,-89.07" /></g><g
       transform="scale(0.108851)"
       id="g204"><path
         inkscape:connector-curvature="0"
         id="path206"
         style="fill:#afcdfb;fill-opacity:1;fill-rule:nonzero;stroke:none"
         d="m 16200,3554.04 h -520.6 c -60.1,0 -118.9,49.24 -130.5,109.41 l -100.4,520.62 c -11.6,60.27 28.2,109.51 88.3,109.51 h 520.7 c 60.1,0 118.8,-49.24 130.5,-109.51 l 100.4,-520.62 c 11.6,-60.17 -28.1,-109.41 -88.4,-109.41" /></g><g
       transform="scale(0.117624)"
       id="g208"><path
         inkscape:connector-curvature="0"
         id="path210"
         style="fill:#afcdfb;fill-opacity:1;fill-rule:nonzero;stroke:none"
         d="m 16207.6,3288.96 h -481.8 c -55.8,0 -110.1,45.57 -120.8,101.25 l -93,481.79 c -10.7,55.77 26.1,101.34 81.8,101.34 h 481.8 c 55.6,0 110,-45.57 120.8,-101.34 l 92.9,-481.79 c 10.7,-55.68 -26,-101.25 -81.7,-101.25" /></g><g
       transform="scale(0.126397)"
       id="g212"><path
         inkscape:connector-curvature="0"
         id="path214"
         style="fill:#78acea;fill-opacity:1;fill-rule:nonzero;stroke:none"
         d="m 16214,3060.68 h -448.3 c -51.9,0 -102.5,42.4 -112.5,94.22 l -86.4,448.35 c -10.1,51.9 24.2,94.31 76,94.31 h 448.3 c 51.9,0 102.5,-42.41 112.5,-94.31 l 86.4,-448.35 c 10,-51.82 -24.2,-94.22 -76,-94.22" /></g><path
       inkscape:connector-curvature="0"
       id="path216"
       style="fill:#afcdfb;fill-opacity:1;fill-rule:nonzero;stroke:none;stroke-width:0.1"
       d="m 1334.39,386.86 h -56.67 c -6.55,0 -12.95,5.36 -14.21,11.91 l -10.93,56.67 c -1.27,6.56 3.06,11.92 9.61,11.92 h 56.67 c 6.55,0 12.95,-5.36 14.21,-11.92 L 1344,398.77 c 1.27,-6.55 -3.06,-11.91 -9.61,-11.91" /><path
       inkscape:connector-curvature="0"
       id="path218"
       style="fill:#afcdfb;fill-opacity:1;fill-rule:nonzero;stroke:none;stroke-width:0.1"
       d="m 1477.39,386.86 h -56.67 c -6.55,0 -12.95,5.36 -14.21,11.91 l -10.93,56.67 c -1.26,6.56 3.06,11.92 9.61,11.92 h 56.67 c 6.56,0 12.95,-5.36 14.21,-11.92 L 1487,398.77 c 1.27,-6.55 -3.06,-11.91 -9.61,-11.91" /><g
       transform="scale(0.100078)"
       id="g220"><path
         inkscape:connector-curvature="0"
         id="path222"
         style="fill:#afcdfb;fill-opacity:1;fill-rule:nonzero;stroke:none"
         d="M 16191.3,3865.59 H 15625 c -65.4,0 -129.3,53.56 -142,119 l -109.2,566.26 c -12.6,65.55 30.6,119.11 96.1,119.11 h 566.3 c 65.5,0 129.3,-53.56 141.9,-119.11 l 109.3,-566.26 c 12.6,-65.44 -30.7,-119 -96.1,-119" /></g><path
       inkscape:connector-curvature="0"
       id="path224"
       style="fill:#afcdfb;fill-opacity:1;fill-rule:nonzero;stroke:none;stroke-width:0.1"
       d="m 1369.97,963.36 h -150.13 c -2.22,0 -4.03,1.81 -4.03,4.02 v 0 c 0,2.21 1.81,4.02 4.03,4.02 h 150.13 c 2.21,0 4.02,-1.81 4.02,-4.02 v 0 c 0,-2.21 -1.81,-4.02 -4.02,-4.02" /><path
       inkscape:connector-curvature="0"
       id="path226"
       style="fill:#afcdfb;fill-opacity:1;fill-rule:nonzero;stroke:none;stroke-width:0.1"
       d="M 1374.54,945.17 H 1224.4 c -2.21,0 -4.02,1.81 -4.02,4.03 v 0 c 0,2.21 1.81,4.02 4.02,4.02 h 150.14 c 2.21,0 4.02,-1.81 4.02,-4.02 v 0 c 0,-2.22 -1.81,-4.03 -4.02,-4.03" /><path
       inkscape:connector-curvature="0"
       id="path228"
       style="fill:#ffffff;fill-opacity:1;fill-rule:nonzero;stroke:none;stroke-width:0.1"
       d="m 1208.95,1098.75 h -51.52 c -4.22,0 -7.67,3.46 -7.67,7.68 v 0 c 0,4.21 3.45,7.67 7.67,7.67 h 51.52 c 4.22,0 7.67,-3.46 7.67,-7.67 v 0 c 0,-4.22 -3.45,-7.68 -7.67,-7.68" /><path
       inkscape:connector-curvature="0"
       id="path230"
       style="fill:#ffffff;fill-opacity:1;fill-rule:nonzero;stroke:none;stroke-width:0.1"
       d="m 1350.32,1098.75 h -51.52 c -4.22,0 -7.68,3.46 -7.68,7.68 v 0 c 0,4.21 3.46,7.67 7.68,7.67 h 51.52 c 4.22,0 7.67,-3.46 7.67,-7.67 v 0 c 0,-4.22 -3.45,-7.68 -7.67,-7.68" /><path
       inkscape:connector-curvature="0"
       id="path232"
       style="fill:#ffffff;fill-opacity:1;fill-rule:nonzero;stroke:none;stroke-width:0.1"
       d="m 1491.69,1098.75 h -51.52 c -4.22,0 -7.68,3.46 -7.68,7.68 v 0 c 0,4.21 3.46,7.67 7.68,7.67 h 51.52 c 4.22,0 7.67,-3.46 7.67,-7.67 v 0 c 0,-4.22 -3.45,-7.68 -7.67,-7.68" /><g
       transform="scale(0.100658)"
       id="g234"><path
         inkscape:connector-curvature="0"
         id="path236"
         style="fill:#ffffff;fill-opacity:1;fill-rule:nonzero;stroke:none"
         d="m 16223.7,10915.7 h -511.8 c -42,0 -76.2,34.3 -76.2,76.2 v 0 c 0,41.9 34.2,76.2 76.2,76.2 h 511.8 c 41.9,0 76.3,-34.3 76.3,-76.2 v 0 c 0,-41.9 -34.4,-76.2 -76.3,-76.2" /></g><g
       transform="scale(0.109331)"
       id="g238"><path
         inkscape:connector-curvature="0"
         id="path240"
         style="fill:#ffffff;fill-opacity:1;fill-rule:nonzero;stroke:none"
         d="m 16229.8,10049.8 h -471.2 c -38.6,0 -70.1,31.6 -70.1,70.2 v 0 c 0,38.6 31.5,70.2 70.1,70.2 h 471.2 c 38.6,0 70.2,-31.6 70.2,-70.2 v 0 c 0,-38.6 -31.6,-70.2 -70.2,-70.2" /></g><g
       transform="scale(0.118004)"
       id="g242"><path
         inkscape:connector-curvature="0"
         id="path244"
         style="fill:#ffffff;fill-opacity:1;fill-rule:nonzero;stroke:none"
         d="m 16235,9311.17 h -436.6 c -35.8,0 -65.1,29.26 -65.1,65.02 v 0 c 0,35.76 29.3,65.02 65.1,65.02 h 436.6 c 35.8,0 65,-29.26 65,-65.02 v 0 c 0,-35.76 -29.2,-65.02 -65,-65.02" /></g><g
       transform="scale(0.126677)"
       id="g246"><path
         inkscape:connector-curvature="0"
         id="path248"
         style="fill:#ffffff;fill-opacity:1;fill-rule:nonzero;stroke:none"
         d="m 16239.5,8673.67 h -406.8 c -33.3,0 -60.6,27.26 -60.6,60.57 v 0 c 0,33.32 27.3,60.57 60.6,60.57 h 406.8 c 33.3,0 60.5,-27.25 60.5,-60.57 v 0 c 0,-33.31 -27.2,-60.57 -60.5,-60.57" /></g><g
       transform="scale(0.113507)"
       id="g250"><path
         inkscape:connector-curvature="0"
         id="path252"
         style="fill:#c65447;fill-opacity:1;fill-rule:nonzero;stroke:none"
         d="m 15252.9,7865.79 c -100.1,0 -173.2,31.8 -212.9,93.56 -76.3,118.41 -17.5,284.39 175,493.28 140.5,152.58 304.6,273.46 306.2,274.69 6.4,4.76 15.5,3.35 20.3,-3.08 4.7,-6.43 3.3,-15.51 -3.1,-20.26 -6.5,-4.76 -638.9,-473.02 -474.1,-728.95 52.2,-81.05 164,-86.42 248.7,-76.65 156.7,18.15 361,102.55 546.6,225.81 192,127.57 327.4,271.26 371.2,394.42 28.8,80.7 19.9,137.88 -26.5,169.95 -59.8,41.41 -184.8,41.49 -334.3,0.08 -143.3,-39.55 -287.4,-110.82 -376.2,-185.97 -6.1,-5.2 -15.2,-4.41 -20.4,1.67 -5.2,6.08 -4.5,15.24 1.6,20.44 91.8,77.71 240.2,151.18 387.2,191.8 160.1,44.31 290.8,42.72 358.6,-4.15 40.2,-27.84 79.2,-85.72 37.3,-203.6 -45.9,-128.89 -185.3,-277.87 -382.5,-408.78 -189.1,-125.63 -398.2,-211.8 -559.2,-230.39 -22.2,-2.55 -43.4,-3.87 -63.5,-3.87" /></g><g
       transform="scale(0.124466)"
       id="g254"><path
         inkscape:connector-curvature="0"
         id="path256"
         style="fill:#ffb27d;fill-opacity:1;fill-rule:nonzero;stroke:none"
         d="m 16300,7923.79 -47,88.62 c 0,0 23.3,158.01 -174.6,257.94 0,0 -72.4,29.45 -113.2,-29.55 -37.6,-54.34 71.7,-44.53 65.8,-137.49 -5.9,-92.99 38.3,-147.54 99.7,-177.83 l 50.8,-58.81 118.5,57.12" /></g><g
       transform="scale(0.138749)"
       id="g258"><path
         inkscape:connector-curvature="0"
         id="path260"
         style="fill:#233862;fill-opacity:1;fill-rule:nonzero;stroke:none"
         d="m 16300,7298.2 c 0,0 -152.4,-748.39 -991.6,-992.93 -261.9,-76.33 -857,786.02 -857,786.02 0,0 20.9,79.5 152,61.26 0,0 579.4,-383.57 652.3,-425.3 64.8,-36.97 490.4,475.32 684.5,557.97 194,82.64 359.8,12.98 359.8,12.98" /></g><g
       transform="scale(0.125925)"
       id="g262"><path
         inkscape:connector-curvature="0"
         id="path264"
         style="fill:#c65447;fill-opacity:1;fill-rule:nonzero;stroke:none"
         d="m 16263,8242.6 37,-200.06 -1006.3,-186.33 -37.1,200.03 1006.4,186.36" /></g><g
       transform="scale(0.11815)"
       id="g266"><path
         inkscape:connector-curvature="0"
         id="path268"
         style="fill:#ffb27d;fill-opacity:1;fill-rule:nonzero;stroke:none"
         d="m 16030.9,8433.58 269.1,-60.43 -39.5,213.19 -229.6,-152.76" /></g><g
       transform="scale(0.126783)"
       id="g270"><path
         inkscape:connector-curvature="0"
         id="path272"
         style="fill:#ffb27d;fill-opacity:1;fill-rule:nonzero;stroke:none"
         d="m 16281.2,8142.37 11.6,-62.82 c 7.2,-38.64 -18.4,-75.77 -57,-82.93 l -46.2,-8.56 -36.8,198.7 50.3,9.32 c 36.4,6.74 71.3,-17.31 78.1,-53.71" /></g><g
       transform="scale(0.148163)"
       id="g274"><path
         inkscape:connector-curvature="0"
         id="path276"
         style="fill:#233862;fill-opacity:1;fill-rule:nonzero;stroke:none"
         d="m 16202.5,2428.75 c 0,0 97.5,-88.95 78.5,-152.2 -19,-63.24 -107,-105.36 -118.9,-182.63 -11.9,-77.22 -59.5,-119.4 -102.2,-119.4 -42.8,0 -204.1,0 -204.1,0 0,0 -31.5,54.4 44.6,70.8 76.1,16.34 104.8,107.18 100.1,191.41 -4.8,84.3 7.1,196.68 7.1,196.68 l 161.7,37.46 33.2,-42.12" /></g><g
       transform="scale(0.136565)"
       id="g278"><path
         inkscape:connector-curvature="0"
         id="path280"
         style="fill:#233862;fill-opacity:1;fill-rule:nonzero;stroke:none"
         d="m 16281,2385.31 c 0,0 19,-219.6 -27.4,-242.45 l -594.2,1.17 c 0,0 0,68.62 95.4,83.85 95.4,15.23 263.1,71.1 291.5,195.58 28.3,124.41 234.7,-38.15 234.7,-38.15" /></g><g
       transform="scale(0.139539)"
       id="g282"><path
         inkscape:connector-curvature="0"
         id="path284"
         style="fill:#f99746;fill-opacity:1;fill-rule:nonzero;stroke:none"
         d="m 15443,5371.18 c 0,0 30.6,-376.81 66.7,-829.73 49,-615.39 107.9,-1371.16 113.8,-1514.35 10,-248.6 50.5,-646.34 50.5,-646.34 0,0 95.9,-94.45 287.7,-54.68 0,0 171.1,567.73 219.9,1168.42 0.8,9.89 1.6,19.78 2.3,29.74 45.4,611.51 116.1,1899.18 116.1,1899.18 l -857,-52.24" /></g><g
       transform="scale(0.139539)"
       id="g286"><path
         inkscape:connector-curvature="0"
         id="path288"
         style="fill:#ed7d2b;fill-opacity:1;fill-rule:nonzero;stroke:none"
         d="m 15443,5371.18 c 0,0 30.6,-376.81 66.7,-829.73 l 671.9,-1046.95 c 0.8,9.89 1.6,19.78 2.3,29.74 45.4,611.51 116.1,1899.18 116.1,1899.18 l -857,-52.24" /></g><g
       transform="scale(0.147277)"
       id="g290"><path
         inkscape:connector-curvature="0"
         id="path292"
         style="fill:#f99746;fill-opacity:1;fill-rule:nonzero;stroke:none"
         d="m 14764.4,5046.62 c 0,0 523.8,-1293.01 868.2,-1900.64 344.5,-607.7 452.1,-777.24 452.1,-777.24 0,0 197.4,77.74 215.3,130.71 0,0 -131.7,1173.09 -362.4,1459.09 -130.3,161.53 -283.4,646.47 -290.6,816.08 -7.2,169.54 -46.6,505.17 -46.6,505.17 l -836,-233.17" /></g><g
       transform="scale(0.139629)"
       id="g294"><path
         inkscape:connector-curvature="0"
         id="path296"
         style="fill:#ffb27d;fill-opacity:1;fill-rule:nonzero;stroke:none"
         d="m 16300,7424.82 c 0,0 -373.8,-180.38 -589.3,-113.46 0,0 53,66.93 145.8,116.73 -7.4,43.26 -13.2,80.8 -16.5,112.63 -9.2,73.47 -9.2,115.09 -9.2,115.09 l 144.3,113.45 136.8,108.55 c -10.8,-305.26 188.1,-452.99 188.1,-452.99" /></g><g
       transform="scale(0.141324)"
       id="g298"><path
         inkscape:connector-curvature="0"
         id="path300"
         style="fill:#2b478b;fill-opacity:1;fill-rule:nonzero;stroke:none"
         d="m 15224.7,5272.64 c 6.5,-5.66 13.8,-8.85 22.1,-8.85 80.3,1.63 313.7,-42.67 511,-22.5 167,16.14 314.5,64.46 472.6,133.74 21.3,9.69 69.6,35.52 68.8,58.09 -0.9,25.83 -3.3,62.06 -6.6,108.9 -6.6,92.13 -15.9,222.96 -18.9,378.07 -2.1,114.98 -0.9,243.27 7.4,379.2 0.5,9.13 1,18.32 1.4,27.52 2.4,49.82 3.5,99.99 3.5,149.02 0.9,158.08 -10.6,308.87 -33.5,443.52 -40.2,233.89 -115.5,416.91 -226.8,498.39 -14.8,11.32 -106.6,-33.01 -191.7,-74.19 -77.9,-37.91 -155.6,-41.94 -229.3,-27.45 l -73.7,-64.49 c -89.4,-81.39 -187.7,-193.5 -231,-362.9 -36,-143.57 -57.3,-403.18 -68.8,-672.56 -5.7,-122.56 -9.8,-245.12 -11.4,-362.01 v -4.03 c -0.9,-12.1 -0.9,-24.27 -0.9,-36.37 -4.1,-299.18 0,-537.07 5.8,-541.1" /></g><g
       transform="scale(0.138039)"
       id="g302"><path
         inkscape:connector-curvature="0"
         id="path304"
         style="fill:#ed985f;fill-opacity:1;fill-rule:nonzero;stroke:none"
         d="m 16300,7850.5 c 0,0 -95.6,-174.2 -277.5,-222.91 -9.3,74.31 -9.3,116.41 -9.3,116.41 l 145.9,114.76 140.9,-8.26" /></g><g
       transform="scale(0.139263)"
       id="g306"><path
         inkscape:connector-curvature="0"
         id="path308"
         style="fill:#ffb27d;fill-opacity:1;fill-rule:nonzero;stroke:none"
         d="m 15806.5,7680.93 c 0,0 357.6,-58.49 391.2,161.33 33.6,219.82 102.3,360.32 -124.5,406.96 -226.9,46.64 -284.2,-30.66 -313.5,-101.35 -29.3,-70.69 -45.3,-446.06 46.8,-466.94" /></g><g
       transform="scale(0.139772)"
       id="g310"><path
         inkscape:connector-curvature="0"
         id="path312"
         style="fill:#2c3a64;fill-opacity:1;fill-rule:nonzero;stroke:none"
         d="m 16268.2,8245.39 c 3.2,3.71 10.7,6.7 27.3,7.61 0,0 -13.3,8.29 -31.1,8.73 -3.4,23.08 -15.7,63.94 -55.4,73.88 0,0 21.3,-11.38 24.1,-35.93 -46,47.26 -144.6,81.66 -417.7,60.11 -359.8,-28.4 -241.2,-258.79 -194.6,-286.26 46.6,-27.46 163.9,47.83 250.6,40.94 86.8,-6.89 103.4,-132.31 132.8,-149.51 29.4,-17.22 17.8,13.22 57.7,31.22 39.8,18.01 43.6,-48 32.1,-90.93 -11.5,-42.92 43.2,-99.53 43.2,-99.53 0,0 0,0 55.3,59.57 55.3,59.57 107.5,311.9 82.4,365.7 -2.2,4.75 -4.4,9.56 -6.7,14.4" /></g><g
       transform="scale(0.124206)"
       id="g314"><path
         inkscape:connector-curvature="0"
         id="path316"
         style="fill:#ffb27d;fill-opacity:1;fill-rule:nonzero;stroke:none"
         d="m 16286.2,8033.46 c 0,0 13.8,54.47 -24,78.96 -37.8,24.5 -72.6,91.1 -88.5,82.08 -33,-18.69 18,-76.81 8.7,-149.28 -3.2,-25.45 55.8,-91.95 103.8,-11.76" /></g><g
       transform="scale(0.141172)"
       id="g318"><path
         inkscape:connector-curvature="0"
         id="path320"
         style="fill:#233862;fill-opacity:1;fill-rule:nonzero;stroke:none"
         d="m 16291.3,5926.47 c -2.2,115.11 -1,243.53 7.4,379.61 0.5,9.13 0.9,18.34 1.3,27.55 -33.5,166.11 -84.2,313.52 -158.9,318.34 0,0 -222.4,-349.58 150.2,-725.5" /></g><g
       transform="scale(0.143644)"
       id="g322"><path
         inkscape:connector-curvature="0"
         id="path324"
         style="fill:#ffb27d;fill-opacity:1;fill-rule:nonzero;stroke:none"
         d="m 16300,5232.1 c 0,0 -18.2,-177.18 -38.2,-210.66 -20,-33.49 -105.1,-140.56 -141.3,-161.58 -36.3,-21.03 22.1,141.11 14.6,172.65 -7.3,31.53 -29.7,-57.58 -45.8,-59.67 -15.9,-2.09 -11.8,78.12 -12.3,107.28 -0.7,29.17 77.6,101.22 105.3,163.32 27.6,62.17 117.7,-11.34 117.7,-11.34" /></g><g
       transform="scale(0.144969)"
       id="g326"><path
         inkscape:connector-curvature="0"
         id="path328"
         style="fill:#2b478b;fill-opacity:1;fill-rule:nonzero;stroke:none"
         d="m 15622.5,7233 c 0,0 217.4,-102.92 321.6,-261.13 161.7,-245.45 349,-1139.85 352.5,-1222.7 3.4,-82.78 -136.8,-667.52 -136.8,-667.52 0,0 -142.2,9.31 -178.9,81.12 0,0 28.4,600.82 10.4,639.45 -18,38.63 -592.8,805.89 -528.2,969.66 64.7,163.7 159.4,461.12 159.4,461.12" /></g><g
       transform="scale(0.117301)"
       id="g330"><path
         inkscape:connector-curvature="0"
         id="path332"
         style="fill:#c65447;fill-opacity:1;fill-rule:nonzero;stroke:none"
         d="m 16285.8,8587.06 14.2,-126.75 -153,34.36 138.8,92.39" /></g><g
       transform="scale(0.15985)"
       id="g334"><path
         inkscape:connector-curvature="0"
         id="path336"
         style="fill:#82b378;fill-opacity:1;fill-rule:nonzero;stroke:none"
         d="m 16216,1833.16 h -568 c -30.5,25.84 21,84.45 74.8,88.4 23.4,1.81 53,-3.13 86.7,-10.26 7.9,103.84 52.5,570.53 220.7,551.83 189.2,-21.02 0,-205.57 -53.4,-314.8 -39.6,-80.95 -81.4,-196.99 -100.6,-251.73 15.4,-3.38 31.3,-6.64 47.6,-9.58 25,76.95 118.3,335.88 236.9,320.81 139.3,-17.65 83.4,-121.5 -15.4,-183.12 -72.4,-45.29 -161.3,-109.72 -203.6,-140.81 35.8,-5.89 73.2,-9.83 111.1,-8.95 97.2,2.31 144.8,-26.34 163.2,-41.79" /></g><path
       inkscape:connector-curvature="0"
       id="path338"
       style="fill:#82b378;fill-opacity:1;fill-rule:nonzero;stroke:none;stroke-width:0.1"
       d="m 519.42,297.35 c -4.812,7.56 -19.293,27.18 -38.582,24.58 -21.015,-2.83 23.211,-16.69 36.751,-24.64 -3.007,-0.04 -5.592,0.2 -7.491,0.88 -9.052,3.22 -24.555,-2.97 -29.511,-5.14 h 86.176 c -0.596,2.06 -2.148,5.43 -6.161,7.88 -1.415,0.87 -4.26,0.99 -7.932,0.71 5.124,6.04 8.683,25.34 -5.582,20.37 -10.421,-3.63 -10.392,-15.42 -9.369,-22.39 -2.217,-0.35 -4.465,-0.7 -6.687,-1.02 -4.29,21.87 -19.466,85.95 -50.224,87.66 -31.182,1.73 26.442,-66.46 45.629,-88.27 -2.458,-0.3 -4.825,-0.52 -7.017,-0.62" /></g></svg>